<?xml version="1.0" encoding="utf-8"?>
<!-- Generator: Adobe Illustrator 25.0.1, SVG Export Plug-In . SVG Version: 6.00 Build 0)  -->
<svg version="1.0" id="katman_1" xmlns="http://www.w3.org/2000/svg" xmlns:xlink="http://www.w3.org/1999/xlink" x="0px" y="0px"
	 viewBox="0 0 800 600" style="enable-background:new 0 0 800 600;" xml:space="preserve">
<style type="text/css">
	.st0{fill:#0B213E;}
</style>
<path class="st0" d="M541.8,483v-89.5H600v12.3h-43.6v26H600v12.8h-43.6V470H600v13H541.8z"/>
<path class="st0" d="M603.3,483l29-46.8l-25.7-42.6h15.3l12.9,21.9c0.7,1.1,2,3.5,3.8,7.1l0.9,1.8c0.7-1.3,1.4-2.6,2.2-4
	c0.8-1.4,1.7-3,2.7-4.7l13.6-22H673L646.8,436l28.2,47h-16.1l-15-25.4l-0.2-0.4c-1.6-3.1-3.1-5.9-4.5-8.6c-0.7,1.4-1.4,2.8-2.3,4.3
	c-0.8,1.5-1.7,3-2.6,4.5L618.7,483L603.3,483L603.3,483z"/>
<path class="st0" d="M172,395.7h-13.2l-34.4,88h14.8l9.8-25.2h32.6l9.5,25.2h15.3l-34.2-87.5L172,395.7z M154,444.8l11.4-30.1
	l11.2,30.1H154z"/>
<path class="st0" d="M314.6,458.6c-1.8,3.8-4.3,6.8-7.5,8.9c-3.2,2.1-6.8,3.1-10.8,3.1c-5.9,0-10.9-2.1-14.9-6.3
	c-4-4.2-6-9.5-6-15.9c0-6.2,2-11.6,5.9-15.8c3.9-4.2,8.7-6.4,14.3-6.4c4.4,0,8.2,1,11.3,2.9c3.1,1.9,5.7,4.8,7.7,8.7l0.2,0.4h14.3
	l-0.3-0.9c-2.5-7.6-6.7-13.6-12.3-17.8c-5.6-4.2-12.3-6.4-19.9-6.4c-4.9,0-9.5,1-13.8,2.9c-4.3,1.9-8.2,4.7-11.6,8.4
	c-3.1,3.3-5.5,7.1-7.1,11.1c-1.6,4.1-2.4,8.4-2.4,13.1c0,4.5,0.9,9,2.6,13.3c1.8,4.3,4.2,8.2,7.3,11.4c3.3,3.4,7,6,11,7.7
	c4,1.7,8.6,2.6,13.5,2.6c7.9,0,14.6-2.1,20.1-6.2c5.5-4.1,9.7-10.3,12.4-18.3l0.3-0.9h-14.4L314.6,458.6z"/>
<path class="st0" d="M394.6,428.7c-3.3-4.9-7.5-8.7-12.5-11.4c-5-2.7-10.5-4.1-16.4-4.1c-4.9,0-9.5,0.9-13.7,2.8
	c-4.2,1.8-7.9,4.6-11.2,8.2c-3.1,3.3-5.5,7.1-7.1,11.2c-1.6,4.1-2.4,8.5-2.4,13.2c0,4.5,0.9,9,2.6,13.3c1.8,4.3,4.2,8.2,7.3,11.4
	c3.3,3.5,7,6.1,11.1,7.8c4.1,1.7,8.6,2.6,13.5,2.6c7.3,0,13.8-2,19.3-5.9c5.5-3.9,9.8-9.6,12.9-17l0.4-1h-14.7l-0.2,0.4
	c-1.8,3.3-4.3,5.9-7.4,7.6c-3.1,1.8-6.5,2.7-10.3,2.7c-5.2,0-9.8-1.7-13.6-4.9c-3.6-3.1-6-7.1-7-12h54.9V451c0-4.6-0.5-8.7-1.4-12.3
	C398,435.1,396.5,431.7,394.6,428.7z M345.8,441.6c1.4-4.6,3.9-8.4,7.3-11.1c3.6-2.9,8-4.4,13-4.4c4.8,0,9,1.4,12.5,4.3
	c3.3,2.7,5.7,6.5,7.1,11.3H345.8L345.8,441.6z"/>
<path class="st0" d="M520.8,393.9v28.1c-2.9-2.7-6.1-4.8-9.4-6.2c-3.9-1.6-8.1-2.4-12.6-2.4c-5.1,0-9.6,0.8-13.6,2.5
	c-4,1.7-7.7,4.3-11,7.8c-3.1,3.2-5.5,6.9-7.1,11.1c-1.6,4.2-2.5,8.7-2.5,13.3c0,10,3.3,18.5,10,25.1c6.6,6.7,15,10.1,25,10.1
	c4.3,0,8.4-0.8,12.1-2.5c3.3-1.4,6.3-3.5,9.1-6.1v7H534v-88H520.8z M514.9,464.2c-4.3,4.3-9.2,6.5-14.8,6.5
	c-6.1,0-11.4-2.2-15.6-6.5c-4.2-4.3-6.4-9.8-6.4-16.2c0-6.1,2.1-11.3,6.4-15.5c4.2-4.2,9.4-6.3,15.3-6.3c5.8,0,10.9,2.2,15.1,6.6
	c4.2,4.4,6.4,9.8,6.4,16C521.3,454.8,519.2,459.9,514.9,464.2z"/>
<path class="st0" d="M232.6,426c0.4,0,0.8-0.1,1.3-0.1c1.4,0,2.8,0.2,4,0.6c2.8,1,5,3.1,6.1,5.9h14.4c-0.7-4.4-3.1-8.3-6.5-11.3
	c-1.3-1.4-2.9-2.5-4.7-3.5c-2.2-1.1-4.7-1.9-7.5-2.3c-1.8-0.4-3.7-0.6-5.6-0.6c-4.1,0-8,0.8-11.5,2.2c-0.3,0.1-0.6,0.3-0.9,0.4
	c-0.2,0.1-0.3,0.1-0.5,0.2c-1.6,0.7-3.1,1.6-4.4,2.7c-4.5,3.5-6.7,8.2-6.7,13.9c0,4.2,1.4,7.7,4.1,10.6c2.7,2.9,7.5,5.8,14.3,8.6
	c1.2,0.5,2.9,1.2,5.2,2c6.6,2.5,10,5.4,10,8.9c0,2.6-0.9,4.7-2.8,6.2c-1.9,1.5-4.4,2.3-7.7,2.3c-3.8,0-6.9-0.8-9.4-2.5
	c-0.1-0.1-0.2-0.1-0.2-0.1c-2.3-1.7-4.1-4.1-4.8-7.1l-13.9,0c0.2,2.8,1.1,5.6,2.5,8.1c2.2,4,5.2,7.1,8.9,9.2
	c3.9,2.2,8.8,3.4,14.6,3.5c0.1,0,0.2,0,0.3,0v0c0.2,0,0.4,0,0.6,0c8.1,0,14.5-1.8,19.1-5.4c4.6-3.6,6.9-8.6,6.9-15
	c0-4.4-1.3-8.1-3.8-11c-2.5-2.9-6.7-5.6-12.6-7.9c-1.3-0.5-3.1-1.2-5.5-2.1c-7.5-2.7-11.3-5.8-11.3-9.1c0-0.5,0.1-1,0.1-1.4
	C226.3,428.8,229.1,426.6,232.6,426z"/>
<path class="st0" d="M432.8,414.6c-15.9,0-28.8,12.9-28.8,28.8v40h13.3v-38.8c0-8.6,7-15.5,15.5-15.5c8.6,0,15.5,7,15.5,15.5v38.8
	h13.3v-40C461.6,427.6,448.7,414.6,432.8,414.6z"/>
<path class="st0" d="M541,118.3c-8.4-3.5-18.1-1.6-24.5,4.9l-84.2,84.3v45.8l90.2-90.2v150.3h-150l-17.3-28.1l-60.4,60.5h237.7
	c12.4,0,22.5-10.1,22.5-22.5V139C554.9,129.9,549.5,121.8,541,118.3z"/>
<path class="st0" d="M317.7,313.3h-23.9l99.5-99.5v92.9h32.4V189.9c0-9.1-5.5-17.3-13.9-20.8c-8.4-3.5-18.1-1.6-24.5,4.9
	L215.5,345.8h69.8L317.7,313.3z"/>
<path class="st0" d="M391.9,313.4L391.9,313.4l-64.8,0l-32.4,32.4h108.6c12.4,0,22.5-10.1,22.5-22.5v-9.9L391.9,313.4L391.9,313.4z"
	/>
</svg>
