<svg width="100" height="100" viewBox="0 0 100 100" fill="none" xmlns="http://www.w3.org/2000/svg">
<g clip-path="url(#clip0_4968_1200)">
<path d="M32.626 0H12.2539L37.6226 43.9711L47.7701 26.3672L32.626 0Z" fill="#141717"/>
<path d="M67.3727 0V0.0771084L64.5293 4.91952L74.7539 22.5234L87.7447 0H67.3727Z" fill="url(#paint0_linear_4968_1200)"/>
<path d="M42.0048 8.76343L52.2294 26.3673L50.001 30.134L39.8535 47.7398L47.7706 61.5769L50.001 65.3437L60.1485 47.7398L72.5244 26.3673L62.3769 8.76343H42.0048Z" fill="url(#paint1_linear_4968_1200)"/>
<path d="M90.525 75.0496H71.2324V99.9999H77.0676V80.1811H90.525V75.0496Z" fill="#141717"/>
<path d="M87.917 85.228H79.865V89.9451H87.917V85.228Z" fill="#141717"/>
<path d="M100 82.9783H94.5391V100H100V82.9783Z" fill="#141717"/>
<path d="M100 75.0496H94.5391V80.1792H100V75.0496Z" fill="url(#paint2_linear_4968_1200)"/>
<path d="M16.4916 87.1615C17.8313 86.3692 18.3788 83.761 18.3788 82.7277V82.6853C18.3783 80.6631 17.5746 78.7239 16.1445 77.2941C14.7144 75.8644 12.775 75.0612 10.7528 75.0612H0V80.2853H10.2901C10.9197 80.2853 11.5234 80.5353 11.9688 80.9802C12.4141 81.4252 12.6646 82.0288 12.6651 82.6583C12.6646 83.2879 12.4141 83.8914 11.9688 84.3364C11.5234 84.7814 10.9197 85.0313 10.2901 85.0313H0V100.002H11.9518C13.9007 100.002 15.7698 99.2277 17.1479 97.8496C18.526 96.4715 19.3002 94.6024 19.3002 92.6535V92.6381C19.2925 91.2925 19.2925 88.5552 16.4916 87.1615ZM13.76 92.6381C13.76 93.3482 13.4779 94.0293 12.9757 94.5314C12.4736 95.0336 11.7925 95.3157 11.0824 95.3157H5.53832V89.9605H11.0766C11.4287 89.9597 11.7775 90.0284 12.1031 90.1627C12.4286 90.2969 12.7245 90.494 12.9737 90.7427C13.223 90.9914 13.4207 91.2868 13.5556 91.6121C13.6906 91.9373 13.76 92.286 13.76 92.6381Z" fill="#141717"/>
<path d="M35.8207 75.0496H41.8563L33.7619 88.3161V100H28.1638V88.3161L35.8207 75.0496Z" fill="#141717"/>
<path d="M45.8691 75.0612V100.002H54.5959C57.9441 100.002 61.1552 98.6718 63.5228 96.3042C65.8904 93.9367 67.2205 90.7256 67.2205 87.3773V87.013C67.2205 85.4426 66.911 83.8877 66.3098 82.437C65.7085 80.9863 64.8273 79.6683 63.7165 78.5583C62.6056 77.4484 61.2869 76.5682 59.8357 75.9682C58.3846 75.3681 56.8294 75.0599 55.259 75.0612H54.0195V79.7262H54.0484C56.0561 79.7262 57.9816 80.5238 59.4013 81.9435C60.821 83.3631 61.6185 85.2886 61.6185 87.2963C61.618 89.3978 60.7829 91.413 59.2967 92.8988C57.8106 94.3846 55.7952 95.2192 53.6937 95.2192H51.2205V75.0612H45.8691Z" fill="#141717"/>
<path d="M26.5473 85.5133L32.5888 75.0497H20.5059L26.5473 85.5133Z" fill="url(#paint3_linear_4968_1200)"/>
</g>
<defs>
<linearGradient id="paint0_linear_4968_1200" x1="47.4768" y1="53.6386" x2="76.51" y2="1.7947" gradientUnits="userSpaceOnUse">
<stop stop-color="#FFD41F"/>
<stop offset="1" stop-color="#F8BB37"/>
</linearGradient>
<linearGradient id="paint1_linear_4968_1200" x1="39.5489" y1="49.1991" x2="68.5822" y2="-2.64476" gradientUnits="userSpaceOnUse">
<stop stop-color="#FFD41F"/>
<stop offset="1" stop-color="#F8BB37"/>
</linearGradient>
<linearGradient id="paint2_linear_4968_1200" x1="97.2706" y1="80.2968" x2="97.2706" y2="75.5238" gradientUnits="userSpaceOnUse">
<stop stop-color="#FFD41F"/>
<stop offset="1" stop-color="#F8BB37"/>
</linearGradient>
<linearGradient id="paint3_linear_4968_1200" x1="26.5473" y1="85.5133" x2="26.5473" y2="75.0497" gradientUnits="userSpaceOnUse">
<stop stop-color="#FFD41F"/>
<stop offset="1" stop-color="#F8BB37"/>
</linearGradient>
<clipPath id="clip0_4968_1200">
<rect width="100" height="100" fill="white"/>
</clipPath>
</defs>
</svg>
