<?xml version="1.0" encoding="UTF-8"?>
<svg xmlns:xodm="http://www.corel.com/coreldraw/odm/2003" xmlns="http://www.w3.org/2000/svg" xmlns:xlink="http://www.w3.org/1999/xlink" version="1.1" id="Layer_1" x="0px" y="0px" viewBox="0 0 2500 2500" style="enable-background:new 0 0 2500 2500;" xml:space="preserve">
<style type="text/css">
	.st0{fill-rule:evenodd;clip-rule:evenodd;fill:#F34718;}
</style>
<g id="Layer_x0020_1">
	<path class="st0" d="M1921.4,2500H1177l296.4-420c62.1-88,71.3-184.2,22.3-263.7l-388.8-566.2l370.2-522.8   c57.3-86.3,75.2-199.4,12.6-287L1174.7,0h746.7C2239.6,0,2500,260.4,2500,578.6v1342.8C2500,2239.6,2239.6,2500,1921.4,2500z    M1995.3,1339.7l-364.2,516.6c-45.4-190.1-52.7-191.7-153.1-319.5l212.1-286.6L1478,969.5c99.8-121.9,116-155.7,153.3-330.8   c117.2,166.3,323.6,453.1,363.1,508.4C2047.6,1221.6,2044.7,1269.7,1995.3,1339.7L1995.3,1339.7z M893.4,2500H578.6   C260.4,2500,0,2239.6,0,1921.4V578.6C0,260.4,260.4,0,578.6,0h314.5l271.5,375.3c78.2,108.3,38.8,210.2-122.7,436.4   c-116.9,172.5-196,283.7-237.9,362.9c-31.2,59.1-31.6,131.7,22.5,211.6l326.9,482.7c63.2,93.2,65.8,174.3-5.4,274L893.4,2500z"></path>
</g>
</svg>
