<svg clip-rule="evenodd" fill-rule="evenodd" stroke-linejoin="round" stroke-miterlimit="2" viewBox="0 0 560 400" xmlns="http://www.w3.org/2000/svg"><g fill-rule="nonzero"><g fill="#f34718"><path d="m0 0c.411 12.185 11.536 23.036 23.785 22.798 17.752-.037 35.504-.009 53.256-.018 8.858-12.597 17.889-25.065 26.683-37.698-10.631-15.038-21.345-30.02-31.957-45.066-4.278-6.134-4.306-14.745-.037-20.897 10.622-15.064 21.345-30.064 31.994-45.111-8.794-12.633-17.825-25.111-26.683-37.707h-54.161c-12.267.284-23.081 11.554-22.889 23.813.027 46.628-.01 93.257.009 139.886" transform="matrix(.530763 0 0 -.530763 100.0060966085 162.607023926)"/><path d="m0 0c6.234 8.785 12.441 17.587 18.721 26.335 6.325-8.894 12.67-17.788 18.959-26.71 1.746-2.276 1.471-5.704-.366-7.861-6.207-8.712-12.377-17.451-18.593-26.153-6.417 8.986-12.843 17.963-19.169 27.021-1.682 2.176-1.28 5.339.448 7.368" transform="matrix(.530763 0 0 -.530763 150.789235067 197.86454849)"/><path d="m0 0c22.624-.019 45.249.027 67.864-.019 11.535-.539 21.061-11.371 20.86-22.797 0-46.94-.01-93.88 0-140.819.21-11.453-9.333-22.304-20.888-22.834-22.615-.037-45.23.009-67.836-.01 19.407 27.259 38.74 54.573 58.128 81.85 3.2 4.232 4.497 9.799 3.447 15.001-.595 3.994-3.063 7.294-5.357 10.466-18.758 26.381-37.451 52.799-56.218 79.162" transform="matrix(.530763 0 0 -.530763 151.361928344 150.516242786)"/></g><path d="m0 0c10.594.036 21.18-.119 31.774.146 4.388.183 9.096.302 12.889 2.825 8.063 4.909 7.935 18.456.019 23.456-3.83 2.614-8.62 2.916-13.099 3.218-10.513.557-21.053.274-31.574.347-.018-10.001 0-19.992-.009-29.992m0 76.026v-25.796c9.625-.036 19.26-.018 28.886.156 4.36.1 9.022.539 12.633 3.245 6.536 4.589 6.216 16.116-.832 20.064-3.903 2.24-8.556 2.103-12.898 2.222-9.269.091-18.529.155-27.789.109m-23.127 20.12c17.011.265 34.05.091 51.071.083 9.333-.33 19.279-.046 27.698-4.745 9.287-5.046 15.923-15.348 15.183-26.107-.256-10.028-6.81-19.068-15.549-23.63 6.326-2.642 12.734-6.006 16.6-11.929 9.05-12.962 4.873-31.966-6.846-41.866-6.463-5.576-15.165-7.679-23.52-7.916-21.025-.813-42.068-.375-63.101-.494-2.149-.411-4.169 1.354-3.757 3.574-.046 36.254.009 72.517-.028 108.78-.119 1.672.201 3.985 2.249 4.25" transform="matrix(.530763 0 0 -.530763 236.097710531 222.593858186)"/><path d="m0 0c-.329 2.066 1.545 3.729 3.556 3.382 28.648 0 57.296.018 85.935-.018 1.554.182 3.254-.905 3.254-2.578.147-5.128.165-10.275-.009-15.412-.018-1.645-1.718-2.715-3.236-2.532-21.381-.073-42.762 0-64.143-.036-.009-8.219-.009-16.445.009-24.672h56.776c1.837.292 3.994-.887 3.784-2.98.082-4.873.1-9.763-.009-14.635.164-2.057-2.012-3.126-3.775-2.843-18.932.009-37.854.009-56.785 0-.009-10.183 0-20.366 0-30.54 21.372-.065 42.753.027 64.124-.046 1.792.283 3.465-1.207 3.301-3.035.072-4.881.118-9.781-.028-14.662.056-1.701-1.6-2.953-3.227-2.715-28.693-.036-57.396-.019-86.09-.009-2.066-.375-3.793 1.489-3.447 3.501-.009 36.609-.027 73.229.01 109.83" transform="matrix(.530763 0 0 -.530763 347.999004584 173.29552922)"/><path d="m0 0c-.055 1.398.046 3.666 1.966 3.638 6.727.21 13.465.091 20.192.055 1.499.201 2.495-1.389 2.295-2.733.045-23.438 0-46.876.018-70.323 16.619 23.712 33.182 47.461 49.81 71.173.74 1.207 1.984 2.066 3.464 1.901 9.077.028 18.154.082 27.232-.055-12.195-18.437-25.102-36.418-37.552-54.691 12.24-18.757 24.562-37.469 36.757-56.245 1.553-1.435.52-4.379-1.701-4.077-8.062-.092-16.125-.018-24.187-.009-8.318 13.483-16.647 26.966-25.02 40.412-9.808-13.492-19.278-27.24-29.26-40.604-7.368.082-14.744-.155-22.113.092-1.837-.019-1.956 2.23-1.901 3.574.019 35.961.019 71.922 0 107.892" transform="matrix(.530763 0 0 -.530763 284.789908151 173.785423469)"/><path d="m0 0c-1.179.969-.585 3.428 1.134 3.153 8.255.065 16.527.138 24.781-.036 1.49.101 2.194-1.453 2.972-2.45 7.321-11.298 14.671-22.587 22.048-33.868 7.395 11.591 14.745 23.21 22.194 34.764.869 1.855 3.054 1.627 4.763 1.664 7.377-.092 14.754.073 22.122-.074 1.69.211 2.294-2.157 1.114-3.162-11.728-17.67-23.556-35.276-35.33-52.918 12.944-18.758 25.988-37.451 38.923-56.208 1.161-.997.695-3.438-1.088-3.182-7.642-.155-15.293.019-22.935-.082-1.792.073-4.086-.32-5.055 1.608-8.447 12.515-16.783 25.102-25.202 37.634-8.282-12.312-16.554-24.643-24.809-36.984-.804-1.234-1.847-2.486-3.491-2.203-8.228-.046-16.464-.082-24.682.018-1.956-.329-2.459 2.221-1.179 3.3 12.925 19.004 25.951 37.954 38.877 56.958-11.728 17.35-23.474 34.691-35.157 52.068" transform="matrix(.530763 0 0 -.530763 404.079953927 173.503588316)"/></g></svg>