<?xml version="1.0" encoding="utf-8"?>
<!-- Generator: Adobe Illustrator 25.4.1, SVG Export Plug-In . SVG Version: 6.00 Build 0)  -->
<svg version="1.0" id="katman_1" xmlns="http://www.w3.org/2000/svg" xmlns:xlink="http://www.w3.org/1999/xlink" x="0px" y="0px"
	 viewBox="0 0 1700 1200" style="enable-background:new 0 0 1700 1200;" xml:space="preserve">
<style type="text/css">
	
		.st0{clip-path:url(#SVGID_00000039846170092644047620000007351648172709308547_);fill:url(#SVGID_00000031169344044793819910000011580112643524131715_);}
	.st1{clip-path:url(#SVGID_00000039846170092644047620000007351648172709308547_);fill:#1D1D1B;}
	
		.st2{clip-path:url(#SVGID_00000039846170092644047620000007351648172709308547_);fill:url(#SVGID_00000134220341540358216050000015844806904896401080_);}
</style>
<g>
	<defs>
		<rect id="SVGID_1_" x="230" y="419.9" width="1240" height="361.2"/>
	</defs>
	<clipPath id="SVGID_00000023992894583543859900000005267177556499401116_">
		<use xlink:href="#SVGID_1_"  style="overflow:visible;"/>
	</clipPath>
	
		<linearGradient id="SVGID_00000132802608697213370500000007121287634021379720_" gradientUnits="userSpaceOnUse" x1="621.7222" y1="878.8523" x2="621.7222" y2="1033.0162" gradientTransform="matrix(1 0 0 -1 454 1496)">
		<stop  offset="0" style="stop-color:#CDA146"/>
		<stop  offset="1" style="stop-color:#F1D961"/>
	</linearGradient>
	
		<path style="clip-path:url(#SVGID_00000023992894583543859900000005267177556499401116_);fill:url(#SVGID_00000132802608697213370500000007121287634021379720_);" d="
		M895.2,588.8c-6.5-2.8-12.4-6.8-17.4-11.8c-5-5-8.9-11-11.8-17.4c-3.6-8.3-5-17.4-4.1-26.5c0.8-9,3.9-17.7,8.9-25.3
		c5-7.6,11.8-13.7,19.8-18c8-4.3,16.9-6.5,26-6.4c7.4,0,14.6,1.5,21.4,4.3c6.5,2.8,12.3,6.8,17.4,11.8c5,5,9,10.9,11.6,17.4
		c2.9,6.8,4.4,14.1,4.4,21.4c0,7.4-1.5,14.6-4.4,21.4c-2.8,6.5-6.7,12.4-11.7,17.4c-5,5-11,9-17.4,11.8c-6.8,2.8-14.1,4.2-21.4,4.2
		C909.2,593.1,902,591.7,895.2,588.8C895.2,588.8,895.2,588.8,895.2,588.8z M887.4,469c-18.1,7.6-32.5,22-40,40
		c-3.9,9.3-5.9,19.2-5.9,29.3c0,10,2,20,5.9,29.3c7.6,18.1,22,32.4,40,40c9.3,3.9,19.2,5.9,29.2,5.9c10,0,20-2,29.3-5.9
		c18.1-7.6,32.5-22,40-40c3.9-9.3,5.9-19.2,5.9-29.2c0-10-2-20-5.9-29.2c-7.6-18.1-22-32.5-40.1-40.1c-9.3-3.9-19.2-5.8-29.2-5.8
		C906.6,463.1,896.7,465.1,887.4,469L887.4,469z M727.4,468.9c-8.9,3.8-17.1,9.3-24,16.1c-6.8,6.9-12.3,15-16.1,23.9
		c-3.9,9.3-5.9,19.2-5.9,29.3c0,10.1,2,20,5.9,29.3c3.8,8.9,9.3,17,16.1,23.9c6.9,6.8,15,12.3,23.9,16.1c9.3,3.9,19.2,5.8,29.3,5.8
		c19.9,0,39-7.9,53.1-21.9c6.9-6.9,12.3-15.1,16.1-24c0.8-2,1.5-4,2.2-6h-21.9c-2.7,5.8-6.4,11.1-10.9,15.6
		c-5.1,5.1-11.1,9.2-17.8,12c-6.7,2.8-13.8,4.1-21.1,4.1c-7.2,0-14.4-1.4-21-4.1c-6.7-2.8-12.7-6.8-17.8-11.9c-5-5-8.9-11-11.8-17.4
		c-5.6-13.7-5.6-29.1,0.1-42.8c4.2-9.9,11.2-18.4,20.3-24.4c9-6,19.6-9.1,30.4-9.1c7.4,0,14.7,1.5,21.4,4.3
		c6.5,2.8,12.4,6.8,17.4,11.8c4.5,4.6,8.2,9.9,10.9,15.7h21.8c-0.7-2.1-1.4-4.1-2.2-6.1c-7.6-18.1-22-32.4-40.1-40.1
		c-9.3-3.9-19.2-5.8-29.2-5.8C746.6,463.1,736.7,465.1,727.4,468.9L727.4,468.9L727.4,468.9z M1014.5,613.4h20.3V463.1h-20.3
		L1014.5,613.4L1014.5,613.4z M1265.2,516.1c0-4.7,0.9-9.4,2.7-13.7c1.8-4.4,4.4-8.3,7.8-11.6c3.3-3.3,7.3-6,11.6-7.8
		s9-2.7,13.7-2.7c4.7,0,9.4,0.9,13.7,2.7c4.4,1.8,8.3,4.4,11.6,7.8s6,7.3,7.8,11.6c1.8,4.4,2.7,9,2.7,13.7c0,9.5-3.8,18.6-10.5,25.4
		c-6.7,6.7-15.8,10.5-25.4,10.5s-18.6-3.8-25.4-10.5C1269,534.7,1265.2,525.6,1265.2,516.1z M1246.9,516.4
		c0,29.3,24.2,52.3,55.1,52.3h12.3l-23.9,45.4h20.4l37.3-71.4c4.6-8.2,7.2-17.4,7.4-26.9c-0.4-14.2-6.3-27.7-16.5-37.5
		c-10.2-9.9-23.8-15.4-38-15.3c-14.2,0.1-27.8,5.7-37.9,15.7C1253,488.7,1247.2,502.2,1246.9,516.4z M1390.5,568.9
		c0.1-8.2,3.5-16,9.4-21.8s13.7-9,21.9-9c8.2,0,16.1,3.2,22,9s9.2,13.6,9.4,21.8c0,8.3-3.3,16.3-9.2,22.1
		c-5.9,5.9-13.8,9.2-22.2,9.2s-16.3-3.3-22.1-9.2C1393.8,585.2,1390.5,577.2,1390.5,568.9L1390.5,568.9z M1400.9,500.2
		c0-5.5,2.2-10.8,6-14.8c3.9-3.9,9.1-6.2,14.6-6.4c5.6,0,11,2.2,15,6.2c4,4,6.2,9.3,6.2,15c0,5.6-2.2,11-6.2,14.9
		c-4,4-9.3,6.2-15,6.2c-5.5-0.1-10.7-2.4-14.6-6.4C1403.1,511,1400.9,505.7,1400.9,500.2L1400.9,500.2z M1384,500.2
		c-0.1,8.2,2.5,16.2,7.4,22.8l4.2,5.6l-5.3,4.5c-5.2,4.4-9.4,9.9-12.3,16.1c-2.9,6.2-4.4,13-4.3,19.8c0,12.8,5.1,25,14.1,34.1
		c9,9,21.3,14.1,34.1,14.1s25-5.1,34.1-14.1c9-9,14.1-21.3,14.1-34.1c0-6.9-1.5-13.7-4.4-20c-2.9-6.3-7.2-11.8-12.5-16.2l-5.4-4.6
		l4.4-5.6c5-6.4,7.6-14.3,7.5-22.4c-0.2-9.9-4.2-19.3-11.3-26.3c-7.1-6.9-16.6-10.8-26.5-10.8c-9.9,0-19.4,3.9-26.5,10.8
		C1388.3,480.8,1384.2,490.3,1384,500.2L1384,500.2L1384,500.2z M1198.3,463.1v116.6c0.2,1.4,0,2.8-0.4,4.1c-0.4,1.3-1.1,2.6-2,3.6
		c-0.9,1-2,1.9-3.3,2.5c-1.3,0.6-2.6,0.9-4,0.9c-2.4-0.1-4.6-0.9-6.6-2.2s-3.5-3.2-4.5-5.3l-46.4-99.9c-2.4-6-6.6-11.2-12-14.8
		c-5.4-3.6-11.8-5.5-18.3-5.5c-7.6-0.1-14.9,2.5-20.8,7.2c-0.3,0.2-0.5,0.4-0.8,0.6c-3.1,2.5-5.6,5.7-7.3,9.4
		c-1.7,3.6-2.6,7.6-2.6,11.6v121.5h21.5V495.1c-0.1-1.3,0.1-2.7,0.6-4c0.5-1.3,1.2-2.4,2.1-3.4s2.1-1.8,3.3-2.3
		c1.2-0.5,2.6-0.8,3.9-0.8c2.4,0.1,4.7,0.9,6.6,2.2c1.9,1.4,3.4,3.3,4.2,5.5l0.4,1c10.9,24.1,35.3,77.1,49.6,105.3
		c4.8,9.4,13,13.7,26.6,13.8c7.7,0.1,15.2-2.4,21.3-7.2c3.3-2.1,6.1-5.1,7.8-8.7c1.8-3.5,2.6-7.5,2.3-11.4v-122H1198.3L1198.3,463.1
		z"/>
	<path style="clip-path:url(#SVGID_00000023992894583543859900000005267177556499401116_);fill:#1D1D1B;" d="M702.2,734.6
		c-0.5,0.1-1,0-1.5-0.2c-0.5-0.2-0.9-0.4-1.3-0.8c-0.4-0.4-0.6-0.8-0.8-1.3c-0.2-0.5-0.2-1-0.2-1.5v-70.2c0-0.5,0-1,0.2-1.5
		s0.4-0.9,0.8-1.3c0.5-0.6,1.2-1,2-1.1c0.8-0.2,1.5-0.1,2.3,0.2c0.7,0.3,1.3,0.8,1.7,1.5c0.4,0.7,0.6,1.4,0.5,2.2v70.2
		c0,0.5,0,1-0.2,1.5c-0.2,0.5-0.4,0.9-0.7,1.3c-0.4,0.3-0.8,0.6-1.3,0.8C703.2,734.6,702.7,734.7,702.2,734.6z M732.7,734.6
		c-0.5,0.1-1,0-1.5-0.1c-0.5-0.2-0.9-0.4-1.3-0.8c-0.4-0.4-0.6-0.8-0.8-1.3c-0.2-0.5-0.2-1-0.1-1.5v-70.2c-0.1-0.5,0-1,0.1-1.5
		c0.2-0.5,0.4-0.9,0.8-1.3c0.4-0.4,0.8-0.6,1.3-0.8c0.5-0.2,1-0.2,1.5-0.1c0.8,0.1,1.5,0.3,2.1,0.7c0.6,0.4,1.2,0.9,1.6,1.5
		l47.6,61.2v-59.6c0-0.5,0.1-1,0.2-1.5c0.2-0.5,0.5-0.9,0.8-1.3c0.3-0.4,0.8-0.7,1.2-0.8c0.5-0.2,1-0.3,1.5-0.3s1,0.1,1.5,0.3
		c0.5,0.2,0.9,0.5,1.2,0.8c0.3,0.4,0.6,0.8,0.8,1.3c0.2,0.5,0.3,1,0.2,1.5v70.2c0.1,0.5,0,1-0.1,1.5c-0.2,0.5-0.4,0.9-0.8,1.3
		c-0.4,0.4-0.8,0.6-1.3,0.8c-0.5,0.2-1,0.2-1.5,0.1c-0.8-0.1-1.5-0.3-2.1-0.7c-0.7-0.4-1.2-0.9-1.6-1.5l-47.6-61.1v59.6
		c0.1,0.5,0,1-0.1,1.5c-0.2,0.5-0.4,0.9-0.8,1.3c-0.4,0.4-0.8,0.6-1.3,0.8C733.7,734.7,733.2,734.7,732.7,734.6L732.7,734.6z
		 M834.3,734.6c-5.6,0.4-11.2-1.2-15.7-4.5c-1.9-1.8-3.4-4-4.4-6.4s-1.6-5-1.6-7.7v-0.4c0-0.5,0-0.9,0.2-1.4
		c0.2-0.4,0.4-0.9,0.7-1.2c0.4-0.3,0.8-0.6,1.3-0.7c0.5-0.2,1-0.2,1.5-0.2c0.5,0,1,0,1.4,0.2c0.5,0.2,0.9,0.4,1.2,0.7
		c0.7,0.8,1.1,1.7,1.2,2.7c-0.1,1.6,0.2,3.3,0.9,4.8c0.6,1.5,1.6,2.9,2.8,4c3.2,1.9,6.9,2.8,10.6,2.5h17.1c4,0.4,8.1-0.7,11.3-3.1
		c2.4-3.2,3.5-7.2,3.1-11.2c0.4-4-0.7-8.1-3.2-11.3c-3.2-2.4-7.2-3.5-11.2-3.1h-15.7c-2.9,0.3-5.8,0-8.6-0.9
		c-2.8-0.9-5.3-2.4-7.5-4.3c-2.1-2-3.9-4.3-5.1-7c-1.2-2.6-1.8-5.5-1.8-8.4c0-2.9,0.6-5.8,1.8-8.5c1.2-2.7,2.9-5,5-7
		c2.1-2,4.7-3.4,7.4-4.4c2.8-0.9,5.7-1.3,8.6-1h15.8c5.3-0.4,10.5,1.1,14.8,4.2c1.8,1.7,3.2,3.8,4.2,6c1,2.3,1.5,4.7,1.5,7.2v0.5
		c0,0.4-0.1,0.9-0.2,1.3c-0.2,0.4-0.4,0.8-0.7,1.1c-0.4,0.3-0.8,0.6-1.3,0.8c-0.5,0.2-1,0.2-1.5,0.2c-0.5,0-1,0-1.4-0.2
		c-0.5-0.2-0.9-0.4-1.2-0.8c-0.7-0.7-1.1-1.7-1.1-2.7c0-1.5-0.3-3-0.9-4.4c-0.6-1.4-1.5-2.6-2.6-3.6c-2.9-1.7-6.2-2.5-9.6-2.2h-15.8
		c-3.7-0.4-7.4,0.6-10.4,2.9c-2.2,3-3.2,6.7-2.8,10.3c-0.4,3.7,0.6,7.4,2.9,10.4c3,2.3,6.7,3.4,10.5,2.9h15.7c3.1-0.3,6.1,0,9,1
		c2.9,0.9,5.6,2.5,7.9,4.6c2.3,2.1,4.1,4.6,5.3,7.4c1.2,2.8,1.9,5.8,1.9,8.9s-0.6,6.1-1.9,8.9c-1.2,2.8-3.1,5.3-5.3,7.4
		c-2.3,2.1-4.9,3.6-7.9,4.6c-2.9,1-6,1.3-9,1C851.4,734.6,834.3,734.6,834.3,734.6z M897.9,734.6c-0.5,0.1-1,0-1.5-0.2
		c-0.5-0.2-0.9-0.4-1.3-0.8c-0.4-0.4-0.6-0.8-0.8-1.3c-0.2-0.5-0.2-1-0.2-1.5v-70.2c0-0.5,0-1,0.2-1.5c0.2-0.5,0.4-0.9,0.8-1.3
		c0.5-0.6,1.2-1,2-1.1c0.8-0.2,1.5-0.1,2.3,0.2c0.7,0.3,1.3,0.8,1.7,1.5c0.4,0.7,0.6,1.4,0.5,2.2v70.2c0,0.5,0,1-0.2,1.5
		c-0.2,0.5-0.4,0.9-0.8,1.3c-0.4,0.3-0.8,0.6-1.3,0.8C898.9,734.6,898.4,734.7,897.9,734.6z M947.9,734.6c-3.4,0.3-6.9-0.1-10.2-1.1
		c-3.3-1-6.4-2.7-9-5c-2.2-2.6-3.9-5.7-5-9c-1-3.3-1.4-6.8-1.1-10.2v-27.1c-0.3-3.4,0.1-6.9,1.1-10.2c1-3.3,2.7-6.4,5-9
		c2.6-2.2,5.6-3.9,8.8-4.9c3.2-1,6.6-1.4,10-1.1h14.6c5.9-0.4,11.7,1.2,16.5,4.5c2,1.9,3.6,4.1,4.6,6.6c1.1,2.5,1.6,5.2,1.5,7.9
		c0.1,0.2,0.1,0.5,0.1,0.7c0,0.8-0.3,1.6-0.9,2.2c-0.4,0.3-0.8,0.6-1.3,0.7c-0.5,0.2-1,0.2-1.5,0.2c-0.5,0-1,0-1.5-0.2
		c-0.5-0.2-0.9-0.4-1.3-0.8c-0.4-0.4-0.7-0.8-0.9-1.2c-0.2-0.5-0.3-1-0.3-1.5c0.1-1.7-0.3-3.5-0.9-5.1c-0.7-1.6-1.7-3-3-4.2
		c-3.4-1.9-7.4-2.8-11.3-2.5h-14.8c-3.4-0.1-6.9,0.4-10.1,1.6c-2.5,1-4.5,3-5.5,5.5c-1.3,3.4-1.8,7-1.7,10.7v27.1
		c-0.1,3.6,0.4,7.2,1.7,10.6c1,2.5,3.1,4.5,5.6,5.6c3.4,1.3,7,1.8,10.6,1.7h14.2c3.2,0.1,6.3-0.3,9.3-1.4c1.1-0.4,2.1-1.1,2.9-1.9
		c0.8-0.8,1.5-1.8,1.9-2.9c1-3,1.5-6.1,1.4-9.3v-6.8l-11.7-0.1c-1,0-1.9-0.4-2.6-1.1c-0.7-0.7-1-1.6-1-2.6c0-1,0.4-1.9,1-2.6
		c0.7-0.7,1.6-1.1,2.6-1.1l15.5,0.1c0.5-0.1,1,0,1.5,0.1c0.5,0.2,0.9,0.4,1.3,0.8c0.4,0.4,0.6,0.8,0.8,1.3c0.2,0.5,0.2,1,0.1,1.5
		v10.6c0.3,3.1-0.1,6.3-1,9.3c-0.9,3-2.5,5.8-4.5,8.2c-4.9,4.1-11.1,6-17.5,5.5L947.9,734.6L947.9,734.6z M1012.3,691.6h38
		c1,0,1.9,0.3,2.7,0.9c0.7,0.8,1.1,1.8,1.1,2.8c0,1-0.4,2.1-1.1,2.8c-0.8,0.6-1.7,0.9-2.7,0.9h-38.1v31.9c0,0.5-0.1,1-0.2,1.5
		c-0.2,0.5-0.5,0.9-0.8,1.3c-0.3,0.4-0.8,0.6-1.2,0.8c-0.5,0.2-1,0.3-1.5,0.3c-0.5,0-1-0.1-1.5-0.3s-0.9-0.5-1.2-0.8
		c-0.3-0.4-0.6-0.8-0.8-1.3c-0.2-0.5-0.3-1-0.2-1.5v-70.2c0-0.5,0.1-1,0.3-1.4c0.2-0.5,0.5-0.9,0.8-1.2c0.4-0.4,0.8-0.6,1.2-0.8
		c0.5-0.2,1-0.3,1.5-0.3c0.5,0,1,0.1,1.4,0.3s0.9,0.5,1.2,0.8c0.4,0.3,0.6,0.8,0.8,1.2c0.2,0.5,0.3,1,0.3,1.4L1012.3,691.6z
		 M1069,660.7v70.2c0,0.5-0.1,1-0.3,1.4c-0.2,0.5-0.5,0.9-0.8,1.2c-0.4,0.3-0.8,0.6-1.2,0.8c-0.5,0.2-0.9,0.3-1.4,0.3
		c-0.5,0-1-0.1-1.4-0.2c-0.5-0.2-0.9-0.5-1.2-0.8c-0.4-0.3-0.7-0.8-0.9-1.2c-0.2-0.5-0.3-1-0.3-1.5v-70.2c0-0.5,0.1-1,0.3-1.5
		c0.2-0.5,0.5-0.9,0.9-1.2c0.3-0.3,0.7-0.6,1.2-0.8c0.5-0.2,0.9-0.3,1.4-0.3c0.5,0,1,0.1,1.4,0.3c0.5,0.2,0.9,0.5,1.2,0.8
		c0.3,0.3,0.6,0.8,0.8,1.2C1068.9,659.7,1069,660.2,1069,660.7L1069,660.7z M1146.1,658c0.4,0.4,0.6,0.8,0.8,1.2
		c0.2,0.5,0.3,1,0.2,1.5c0.1,1-0.3,2-0.9,2.7c-0.4,0.3-0.8,0.6-1.3,0.8c-0.5,0.2-1,0.3-1.5,0.2H1087c-0.5,0.1-1,0-1.5-0.2
		c-0.5-0.2-0.9-0.4-1.3-0.8c-0.4-0.4-0.6-0.8-0.8-1.3c-0.2-0.5-0.2-1-0.2-1.5c-0.1-0.5,0-1,0.2-1.5c0.2-0.5,0.4-0.9,0.8-1.3
		c0.4-0.4,0.8-0.6,1.3-0.8c0.5-0.2,1-0.2,1.5-0.2h56.4c0.5,0,1,0,1.4,0.2C1145.4,657.3,1145.8,657.6,1146.1,658z M1111.4,675.6
		c0-0.9,0.2-1.9,0.8-2.6c0.4-0.4,0.9-0.7,1.4-0.9c0.5-0.2,1.1-0.3,1.6-0.2c0.5-0.1,1.1,0,1.6,0.2c0.5,0.2,1,0.5,1.3,0.9
		c0.5,0.8,0.8,1.7,0.8,2.6v55.3c0,0.5,0,1-0.2,1.5c-0.2,0.5-0.4,0.9-0.8,1.2s-0.8,0.6-1.3,0.8c-0.5,0.2-1,0.2-1.5,0.2
		c-1,0.1-2-0.3-2.8-1c-0.4-0.4-0.6-0.8-0.8-1.3c-0.2-0.5-0.3-1-0.2-1.5C1111.4,730.9,1111.4,675.6,1111.4,675.6z M1181,734.6
		c-5.6,0.4-11.2-1.2-15.7-4.5c-1.9-1.8-3.4-4-4.4-6.4s-1.6-5-1.6-7.7v-0.4c0-0.5,0-0.9,0.2-1.4c0.2-0.4,0.4-0.9,0.7-1.2
		c0.4-0.3,0.8-0.6,1.3-0.7c0.5-0.2,1-0.2,1.5-0.2c0.5,0,1,0,1.4,0.2c0.5,0.2,0.9,0.4,1.3,0.7c0.7,0.8,1.1,1.7,1.2,2.7
		c-0.1,1.6,0.2,3.3,0.9,4.8c0.6,1.5,1.6,2.9,2.8,4c3.2,1.9,6.9,2.8,10.6,2.5h17.1c4,0.4,8.1-0.7,11.3-3.1c2.4-3.2,3.5-7.2,3.1-11.2
		c0.4-4-0.7-8.1-3.2-11.3c-3.2-2.4-7.2-3.5-11.2-3.1h-15.7c-2.9,0.3-5.8,0-8.6-0.9c-2.8-0.9-5.3-2.4-7.5-4.3c-2.2-1.9-3.9-4.3-5.1-7
		s-1.8-5.5-1.8-8.4c0-2.9,0.6-5.8,1.8-8.5c1.2-2.7,2.9-5,5-7c2.1-2,4.7-3.4,7.4-4.4c2.8-0.9,5.7-1.3,8.6-1h15.8
		c5.3-0.4,10.5,1.1,14.8,4.2c1.8,1.7,3.2,3.8,4.2,6c1,2.3,1.5,4.7,1.5,7.2v0.5c0,0.4-0.1,0.9-0.2,1.3c-0.2,0.4-0.4,0.8-0.7,1.1
		c-0.4,0.3-0.8,0.6-1.3,0.8c-0.5,0.2-1,0.2-1.5,0.2c-0.5,0-1,0-1.4-0.2c-0.5-0.2-0.9-0.4-1.2-0.8c-0.7-0.7-1.1-1.7-1.1-2.7
		c0-1.5-0.3-3-0.9-4.4c-0.6-1.4-1.5-2.6-2.6-3.6c-2.9-1.7-6.3-2.5-9.6-2.2h-15.8c-3.7-0.4-7.4,0.6-10.4,2.9c-2.2,3-3.2,6.7-2.8,10.3
		c-0.4,3.7,0.6,7.4,2.9,10.4c3,2.3,6.7,3.4,10.5,2.9h15.7c3-0.3,6.1,0,9,1c2.9,0.9,5.6,2.5,7.9,4.6c2.3,2.1,4.1,4.6,5.3,7.4
		c1.2,2.8,1.9,5.8,1.9,8.9c0,3.1-0.6,6.1-1.9,8.9c-1.2,2.8-3.1,5.3-5.3,7.4c-2.3,2-5,3.6-7.9,4.6c-2.9,1-6,1.3-9,1L1181,734.6
		L1181,734.6z"/>
	
		<linearGradient id="SVGID_00000134956486698336365350000000224907073127337354_" gradientUnits="userSpaceOnUse" x1="143.1431" y1="1021.3699" x2="-230.0712" y2="769.6311" gradientTransform="matrix(1 0 0 -1 454 1496)">
		<stop  offset="0" style="stop-color:#F1D961"/>
		<stop  offset="1" style="stop-color:#CDA146"/>
	</linearGradient>
	
		<path style="clip-path:url(#SVGID_00000023992894583543859900000005267177556499401116_);fill:url(#SVGID_00000134956486698336365350000000224907073127337354_);" d="
		M525.3,419.9H295.8c-17.5,0-34.2,7-46.5,19.3c-12.3,12.4-19.3,29.1-19.3,46.6v229.4c0,17.5,6.9,34.2,19.3,46.6
		c12.3,12.3,29.1,19.3,46.5,19.3h229.5c17.5,0,34.2-7,46.5-19.3c12.3-12.3,19.3-29.1,19.3-46.5V485.8c0-17.5-6.9-34.2-19.3-46.5
		C559.5,426.9,542.8,419.9,525.3,419.9L525.3,419.9z M469.6,510.2c12.8,0,25.1,5.1,34.1,14.2c9,9.1,14.1,21.3,14.2,34.1
		c0,8.1-2,16-5.9,23.1c-6-4.9-12.9-8.7-20.3-11.2c2-3.7,3-7.8,3-11.9c0.1-3.3-0.6-6.6-1.8-9.7s-3.1-5.9-5.4-8.3
		c-2.3-2.4-5.1-4.2-8.2-5.5s-6.4-1.9-9.7-1.9c-3.3,0-6.6,0.7-9.7,1.9c-3.1,1.3-5.8,3.2-8.2,5.5c-2.3,2.4-4.2,5.2-5.4,8.3
		c-1.2,3.1-1.9,6.4-1.8,9.7c0,4.2,1,8.3,3,11.9c-7.4,2.5-14.2,6.3-20.3,11.2c-3.9-7.1-5.9-15-5.9-23.1c0-12.8,5.1-25.1,14.1-34.1
		C444.5,515.3,456.8,510.2,469.6,510.2z M351.5,690.8c-12.8,0-25.1-5.1-34.1-14.2c-9.1-9-14.1-21.3-14.2-34.1h23.2
		c0,3.3,0.6,6.6,1.9,9.6c1.3,3,3.1,5.8,5.4,8.1c2.3,2.3,5.1,4.2,8.1,5.4c3.1,1.3,6.3,1.9,9.6,1.9c3.3,0,6.6-0.7,9.6-1.9
		c3-1.3,5.8-3.1,8.1-5.4c2.3-2.3,4.2-5.1,5.5-8.1c1.3-3.1,1.9-6.3,1.9-9.6h23.2c0,6.3-1.3,12.6-3.7,18.5c-2.4,5.8-6,11.2-10.5,15.7
		c-4.5,4.5-9.8,8-15.7,10.5C364.1,689.6,357.9,690.8,351.5,690.8z M351.5,623c-11.2,0-22.1-3.3-31.3-9.5c-9.3-6.2-16.5-15-20.8-25.3
		c-4.3-10.3-5.4-21.7-3.2-32.6c2.2-11,7.6-21,15.5-28.9c7.9-7.9,18-13.2,28.9-15.4s22.3-1,32.6,3.2c10.3,4.3,19.1,11.5,25.3,20.8
		c6.2,9.3,9.5,20.2,9.5,31.4c0,7.4-1.5,14.7-4.3,21.6c-2.8,6.9-7,13.1-12.2,18.3c-5.2,5.2-11.5,9.4-18.3,12.2
		C366.3,621.6,358.9,623,351.5,623z M469.6,690.8c-11.2,0-22.1-3.3-31.4-9.5c-9.3-6.2-16.5-15-20.8-25.3
		c-4.3-10.3-5.4-21.7-3.2-32.6c2.2-11,7.5-21,15.5-28.9c7.9-7.9,17.9-13.3,28.9-15.4c11-2.2,22.3-1,32.6,3.2
		c10.3,4.3,19.1,11.5,25.3,20.8c6.2,9.3,9.5,20.2,9.5,31.4c0,14.9-6,29.3-16.5,39.8C498.8,684.9,484.5,690.8,469.6,690.8z
		 M502.9,634.4c0,6.6-2,13-5.6,18.5c-3.7,5.5-8.9,9.8-14.9,12.3c-6.1,2.5-12.8,3.2-19.2,1.9s-12.4-4.5-17.1-9.1
		c-4.7-4.7-7.8-10.6-9.1-17c-1.3-6.5-0.6-13.2,1.9-19.2c2.5-6.1,6.8-11.3,12.3-14.9c5.5-3.7,11.9-5.6,18.5-5.6
		c4.4,0,8.7,0.9,12.7,2.5c4,1.7,7.7,4.1,10.8,7.2c3.1,3.1,5.5,6.8,7.2,10.8C502,625.7,502.9,630.1,502.9,634.4z M384.8,566.6
		c0,6.6-2,13-5.6,18.5c-3.7,5.5-8.9,9.7-14.9,12.3c-6.1,2.5-12.8,3.2-19.2,1.9c-6.4-1.3-12.4-4.5-17-9.1c-4.7-4.7-7.8-10.6-9.1-17
		c-1.3-6.5-0.6-13.2,1.9-19.2c2.5-6.1,6.8-11.3,12.3-14.9c5.5-3.7,11.9-5.6,18.5-5.6c8.8,0,17.3,3.5,23.5,9.8
		C381.3,549.4,384.8,557.8,384.8,566.6z"/>
</g>
</svg>
