<svg width="61" height="54" viewBox="0 0 61 54" fill="none" xmlns="http://www.w3.org/2000/svg">
<path d="M30.872 35.1625C21.4347 35.1625 13.7587 27.4093 13.7587 17.8879C13.7587 8.36654 21.4347 0.613281 30.872 0.613281C37.4283 0.613281 43.4856 4.47467 46.3158 10.4395L46.9979 11.8723L42.2131 16.699L39.0266 13.5286L41.5106 11.0187C39.2098 7.39103 35.1886 5.11484 30.872 5.11484C23.9188 5.11484 18.2584 10.846 18.2584 17.8777C18.2584 24.9095 23.9188 30.6406 30.872 30.6406C35.1886 30.6406 39.2098 28.3645 41.5106 24.7368L32.786 15.9166C32.2769 15.3983 31.5949 15.1138 30.872 15.1138C30.1492 15.1138 29.4773 15.3983 28.9581 15.9166C27.8892 16.9937 27.8892 18.7415 28.9581 19.8186C29.4671 20.3368 30.1492 20.6214 30.872 20.6214C31.5949 20.6214 32.2668 20.3368 32.786 19.8186L33.5597 19.026L36.7564 22.1964L35.9725 22.989C34.6083 24.371 32.7962 25.1229 30.872 25.1229C28.9479 25.1229 27.1358 24.3608 25.7716 22.989C22.972 20.1641 22.972 15.5609 25.7716 12.736C27.1358 11.3642 28.9378 10.6021 30.872 10.6021C32.7962 10.6021 34.6083 11.3642 35.9725 12.736L46.9979 23.8731L46.3158 25.3058C43.4856 31.3011 37.4181 35.1625 30.872 35.1625Z" fill="url(#paint0_linear_21099_12551)"/>
<path d="M16.5247 43.5789C13.6436 43.5789 11.3049 45.9133 11.3049 48.7891C11.3049 51.6648 13.6436 53.9992 16.5247 53.9992C19.4058 53.9992 21.7445 51.6648 21.7445 48.7891C21.7445 45.9063 19.4129 43.5789 16.5247 43.5789ZM16.5247 51.7211C14.8975 51.7211 13.5802 50.4063 13.5802 48.782C13.5802 47.1578 14.8975 45.843 16.5247 45.843C18.1519 45.843 19.4692 47.1578 19.4692 48.782C19.4692 50.4063 18.1519 51.7211 16.5247 51.7211Z" fill="#4A4A4A"/>
<path d="M7.6839 51.4034C4.98593 51.4034 2.79515 49.2167 2.79515 46.5238C2.79515 43.8308 4.98593 41.6441 7.6839 41.6441C9.31818 41.6441 10.7693 42.4457 11.6569 43.6831C12.2416 43.0433 12.9319 42.5019 13.7068 42.0871C12.3402 40.2449 10.1565 39.0496 7.6839 39.0496C3.54889 39.0566 0.195801 42.3964 0.195801 46.5238C0.195801 50.6511 3.54889 53.9909 7.67686 53.9909C8.93074 53.9909 10.1071 53.6815 11.1427 53.1401C10.6355 52.444 10.241 51.6565 10.0015 50.8128C9.31114 51.1925 8.52217 51.4034 7.6839 51.4034Z" fill="#4A4A4A"/>
<path d="M25.6687 43.8522H23.3441V53.9982H25.6687V43.8522Z" fill="#4A4A4A"/>
<path d="M39.2963 39.0782V53.9914H41.7759H48.5455V51.5235H41.7759V47.7477H47.7425V45.2727H41.7759V41.5251H48.5455V39.0571H39.2963V39.0782Z" fill="#4A4A4A"/>
<path d="M60.072 43.4873H57.2614L55.1128 46.6654L52.9784 43.4873H50.1677L53.704 48.7396L50.1396 53.992H52.9502L55.0988 50.8209L57.2402 53.992H60.0509L56.5147 48.7396L60.072 43.4873Z" fill="#4A4A4A"/>
<path d="M32.4879 43.3444C31.1635 43.3444 29.959 43.8366 29.0432 44.6452L27.268 43.471V53.9967H29.5433V48.5546C29.5433 46.9303 30.8606 45.6155 32.4879 45.6155C34.1151 45.6155 35.4324 46.9303 35.4324 48.5546V53.9967H37.7077V48.5546C37.7077 45.6788 35.369 43.3444 32.4879 43.3444Z" fill="#4A4A4A"/>
<path d="M24.5031 42.2558C25.3901 42.2558 26.1092 41.5381 26.1092 40.6527C26.1092 39.7673 25.3901 39.0496 24.5031 39.0496C23.6161 39.0496 22.897 39.7673 22.897 40.6527C22.897 41.5381 23.6161 42.2558 24.5031 42.2558Z" fill="url(#paint1_linear_21099_12551)"/>
<defs>
<linearGradient id="paint0_linear_21099_12551" x1="46.9881" y1="17.8886" x2="13.7601" y2="17.8886" gradientUnits="userSpaceOnUse">
<stop offset="0.1" stop-color="#00DEC0"/>
<stop offset="1" stop-color="#00C5E5"/>
</linearGradient>
<linearGradient id="paint1_linear_21099_12551" x1="26.108" y1="40.6549" x2="22.8987" y2="40.6549" gradientUnits="userSpaceOnUse">
<stop stop-color="#00DEC0"/>
<stop offset="0.8" stop-color="#00C5E5"/>
</linearGradient>
</defs>
</svg>
