<?xml version="1.0" encoding="UTF-8" standalone="no"?>
<svg
   version="1.1"
   width="5.3013in"
   height="5.1181in"
   viewBox="0 0 381.6916 368.5042"
   id="svg32"
   sodipodi:docname="EVOS Esports.cdr"
   xmlns:inkscape="http://www.inkscape.org/namespaces/inkscape"
   xmlns:sodipodi="http://sodipodi.sourceforge.net/DTD/sodipodi-0.dtd"
   xmlns="http://www.w3.org/2000/svg"
   xmlns:svg="http://www.w3.org/2000/svg">
  <defs
     id="defs32" />
  <sodipodi:namedview
     id="namedview32"
     pagecolor="#ffffff"
     bordercolor="#000000"
     borderopacity="0.25"
     inkscape:showpageshadow="2"
     inkscape:pageopacity="0.0"
     inkscape:pagecheckerboard="0"
     inkscape:deskcolor="#d1d1d1"
     inkscape:document-units="in" />
  <g
     id="Layer1000">
    <path
       d="  M184.2650,23.9306 C184.2650,20.1244 185.6525,10.7690 181.8721,10.7690 C168.8000,10.7690 152.9925,28.1946 144.4834,36.7961 C138.5695,42.7736 132.9298,45.7533 125.2377,49.8566 L105.0559,61.9810 C88.2434,73.1954 60.0005,95.5139 46.3745,110.9870 C22.1332,138.5149 19.4035,143.3234 0.0000,172.2995 C3.0509,176.8560 5.4750,182.0307 8.3068,186.7269 C23.6123,212.1089 22.2882,203.9827 18.0783,216.6938 C8.3427,246.0882 18.1814,240.1503 27.5213,252.4657 C31.6646,257.9294 35.6584,261.7156 42.2950,265.2121 C52.5872,270.6345 51.9176,276.2329 65.7922,282.3966 C69.2901,283.9507 73.4636,284.4754 76.5779,285.9695 C75.9684,278.6484 71.2156,275.4789 70.5952,268.0218 C82.6406,271.2379 99.1817,285.0598 107.6875,290.7556 C104.4945,297.4101 105.1281,305.8630 107.2818,312.7716 C107.8737,314.6699 109.0567,317.1717 109.1473,317.7879 C109.9352,323.1496 103.8715,318.6155 110.4348,328.6900 C116.9188,338.6416 107.4497,342.2952 120.8491,349.3853 C144.1001,337.0824 136.9184,342.8233 160.5744,340.0529 C169.0883,339.0558 167.3792,339.4604 173.4962,336.2237 C173.6800,344.4740 176.3788,356.4414 177.0860,364.9400 C182.6820,364.8156 209.2566,356.6113 217.0464,354.6394 C232.3973,350.7531 231.7753,353.8945 255.5920,361.8152 C291.3198,373.6968 283.3940,369.7865 293.5546,349.7909 C297.1193,342.7758 299.4566,335.8482 302.7211,329.0444 C311.0542,329.0444 346.9927,324.8376 346.9927,309.9001 C346.9927,303.0930 345.2883,285.5438 343.2869,281.2994 C341.2125,276.9007 333.6927,274.1358 329.6447,271.0113 C326.1739,268.3325 327.0649,270.5938 326.6518,265.6286 C330.4638,268.1812 336.3250,272.9127 341.0100,274.0042 C341.0100,267.8940 339.2076,259.4564 338.7202,253.5599 C336.2830,224.0712 334.4056,244.5460 340.7187,215.0831 C347.1490,185.0724 341.3631,189.2531 352.9838,181.8805 C371.5403,170.1071 374.6597,157.0422 381.6918,142.3866 C370.1026,142.3866 359.1327,138.4115 349.3855,137.6005 C349.3855,99.9456 346.2326,117.8108 353.7130,88.0840 C354.8686,83.4913 356.4587,76.5522 356.5648,71.7915 C350.5513,71.7915 351.2072,72.8677 345.7961,72.9881 C345.7961,60.7315 342.8456,46.9607 341.0181,35.8878 C339.0781,24.1344 336.4749,11.3493 333.8307,0.0003 C289.6640,3.6755 266.5995,1.7263 218.4804,13.8744 C207.8487,16.5587 192.6734,19.8961 184.2650,23.9306 Z"
       style="fill-rule: evenodd; fill: #162b3e; "
       id="path1" />
    <path
       d="  M234.8523,50.9864 C239.1340,44.5801 245.2523,40.1596 248.7797,31.1570 C232.2871,33.6346 204.5648,41.0954 188.5087,46.1579 C176.2584,50.0201 165.5891,51.4059 164.0312,58.8335 C162.5881,65.7149 165.0634,69.4536 168.6498,73.0492 C174.1203,78.5343 176.8059,78.3274 179.8103,81.6818 C172.6666,80.9882 165.4314,78.9379 159.4032,76.3259 C145.7695,70.4179 150.9711,66.6019 147.1727,62.1546 C140.8081,66.1637 133.1027,70.2836 129.9606,75.3813 C133.6258,84.1913 141.3423,87.3579 151.5904,90.3117 C143.6191,91.2234 125.6294,91.5137 117.4720,89.5777 C111.9787,88.2743 112.5305,87.9436 110.0804,84.1642 C104.6821,87.7031 101.5522,91.6742 103.1931,100.3502 C108.2858,102.8658 114.8590,103.4848 121.5040,104.7883 C111.5347,107.4277 99.9008,112.7046 90.0651,107.0930 C83.2776,113.7584 76.7610,123.3763 70.9825,133.1994 C68.2902,137.7759 57.6218,155.0896 59.4418,161.0397 C59.5178,161.2876 59.6803,161.6149 59.7814,161.8510 L61.3711,164.3080 C57.4913,165.6535 58.0841,165.4384 55.6238,167.8937 C56.6457,171.0989 56.6515,169.9613 59.2902,172.0062 C41.6587,184.3897 24.9449,210.4185 22.2807,233.6270 C36.4764,231.5377 44.1007,217.2280 50.5213,212.5749 C49.5458,217.7273 47.7082,222.1796 46.1456,226.8239 C42.6955,237.0784 43.6710,232.8144 38.6014,234.5191 C34.1504,243.8382 40.1110,248.8973 45.6263,253.5036 C48.8237,256.1742 51.8111,257.7154 57.4397,257.4013 C71.2044,256.6328 66.6832,237.3912 97.4621,221.9222 L99.6779,220.6354 C99.8224,220.5472 100.1562,220.3430 100.3671,220.1609 C97.8376,218.4460 97.8834,218.8221 95.6781,217.8803 L90.4334,215.1394 C106.2976,215.9331 123.5930,223.1615 135.2328,229.7025 C141.6906,233.3316 147.4640,236.4130 152.9712,240.6811 C156.3707,243.3158 158.7310,244.7766 161.0452,246.9884 L168.2021,254.4536 C166.3590,247.9004 161.2633,241.0939 158.2762,236.2872 C177.0463,249.8605 173.4698,257.6934 178.2823,268.1270 L207.8293,260.4162 C207.1652,249.6852 198.2338,235.0214 193.2001,227.9784 C185.1750,216.7501 172.2871,205.6538 170.1398,202.0301 C181.6615,187.8096 182.4582,185.1956 188.8882,166.2372 C193.5919,152.3688 197.7684,136.4924 199.8330,121.5488 C200.0036,121.8239 200.2295,121.9311 200.2936,122.4039 C200.3570,122.8743 200.6467,123.0578 200.7298,123.2667 C208.2017,142.0613 201.5807,175.2188 195.4624,193.0929 C190.1906,208.4930 211.8475,206.4098 209.8664,259.2206 L221.3752,256.7966 C224.6201,259.5435 222.6753,258.4473 224.8528,262.0012 C227.9165,249.1489 228.2553,232.9005 229.6280,218.9002 L253.1160,242.3078 L251.7207,220.7368 C256.3657,224.0651 259.7747,227.3401 264.2033,231.1592 C266.6918,233.3055 268.0800,234.5862 270.2450,237.0730 C273.6448,240.9796 272.4269,241.5755 277.9137,241.6057 C279.6607,217.4838 265.8903,193.6962 256.4705,177.2081 C274.2187,181.0441 299.3918,210.9628 311.7289,222.0439 C313.4698,203.1554 308.6000,198.8998 305.6692,184.8574 C325.5454,180.0734 355.2810,174.4750 363.9713,150.6644 C350.6164,149.8409 338.6704,146.1894 327.2474,141.8205 L300.0640,129.5129 C299.8286,129.3630 299.5315,129.1887 299.3050,129.0266 L296.5390,126.4441 C317.0115,125.6101 317.5881,131.1946 327.7734,115.9864 C332.6297,108.7356 338.9858,96.8306 341.5232,87.1021 C323.2251,89.9179 273.6055,103.7711 258.2277,94.4388 C264.9983,91.8651 269.6823,89.6215 273.4776,84.9535 C269.8291,83.3672 262.8350,82.4361 258.6466,81.1998 C256.2544,80.4940 253.6085,79.5691 251.4975,78.7571 L245.9181,75.7928 C245.7658,75.6842 245.4524,75.4312 245.2313,75.2365 C263.0046,66.2057 276.1788,53.2205 290.8311,42.6668 L285.2255,64.7337 L291.1275,60.9913 L285.8164,85.1770 C296.1676,77.5096 308.4267,39.1401 299.1316,21.8586 C294.0810,23.3234 259.6312,43.1033 234.8523,50.9864 Z"
       style="fill-rule: evenodd; fill: #fdfdfe; "
       id="path2" />
    <path
       d="  M260.4439,334.1089 C269.0463,335.6053 292.3078,328.7337 297.7549,323.3643 C298.7199,312.9958 291.7116,252.9212 287.9606,246.9701 C281.5435,245.4916 267.4159,250.5697 260.8170,252.4029 C247.2500,256.1722 250.7873,260.8602 252.5140,275.1611 C254.1058,288.3444 256.8551,324.8363 260.4439,334.1089 Z"
       style="fill-rule: evenodd; fill: #74c3ef; "
       id="path3" />
    <path
       d="  M82.0430,135.5875 C78.5179,141.4223 74.7477,145.8543 71.0029,153.5711 C62.2278,171.6541 69.6628,169.5641 72.4291,173.4961 C70.0223,177.4272 67.9056,183.5068 67.2293,189.1978 C74.0609,179.6711 75.2951,172.9918 92.6764,175.5902 C90.8645,180.8372 89.8660,179.3825 87.2201,184.3253 C98.2554,180.3864 104.0326,182.0694 115.1958,179.3621 C114.9329,179.2058 114.5066,178.7082 114.3692,178.9616 L98.9036,173.7502 C101.5003,171.9319 105.6657,171.5815 108.6572,170.8771 C112.3291,170.0122 114.6656,168.9845 118.6648,168.3509 C121.8958,176.3639 125.2892,177.5866 134.3292,181.5610 C139.5121,183.8396 149.2921,188.2318 154.8732,188.4774 C152.2368,187.1509 142.8964,177.5550 140.8305,175.0546 C126.4292,157.6256 132.1670,156.5609 135.5662,144.0004 C136.6101,140.1423 136.9734,134.8864 137.8780,131.8481 C139.8397,125.2587 149.3719,120.8898 152.3427,116.0027 C134.6009,120.2203 113.6766,137.0249 101.6431,149.5204 C96.1899,155.1835 87.1862,169.5675 77.1362,165.7745 C68.5408,162.5304 80.1043,140.9268 82.0430,135.5875 Z"
       style="fill-rule: evenodd; fill: #162b3e; "
       id="path4" />
    <path
       d="  M328.2191,306.3103 C324.8376,308.6601 319.5495,309.9056 314.6865,310.2756 C312.3245,303.7489 315.6463,303.9582 309.8085,300.4064 C307.4319,298.9605 303.1732,296.8969 300.6701,295.8618 C301.0900,304.4659 302.1198,315.5138 304.5876,322.2104 C312.5812,323.3185 333.2691,317.1174 339.8419,312.7139 C340.9510,305.4112 339.5332,298.0176 338.6029,290.7610 C337.2133,279.9234 328.3782,276.9913 313.4888,268.0368 C306.9669,264.1146 307.5611,259.0670 307.3695,250.0850 L318.2546,247.2879 C321.0195,251.5981 318.1501,255.1679 333.0218,261.2299 C332.4018,253.4571 331.6797,241.5810 328.7696,236.0701 C322.6730,234.5499 307.5720,239.3102 301.2837,241.4975 C295.3054,243.5770 294.8370,245.9136 295.2993,252.4341 C296.8789,274.7076 297.3534,272.9286 315.4116,284.0460 C327.3522,291.3969 327.1609,289.0071 328.2191,306.3103 Z"
       style="fill-rule: evenodd; fill: #74c3ef; "
       id="path5" />
    <path
       d="  M234.1661,321.5931 L218.4326,264.7539 L206.9397,266.8456 L230.6859,343.5087 C235.8165,343.5260 238.3542,342.3094 242.4955,340.7876 L247.9196,256.2427 C233.0509,258.7906 236.4053,258.0034 235.6598,283.5766 C235.3315,294.8453 235.8698,310.9445 234.1661,321.5931 Z"
       style="fill-rule: evenodd; fill: #74c3ef; "
       id="path6" />
    <path
       d="  M173.3558,276.0748 L182.6088,356.0595 C187.1116,356.9719 210.4854,350.0836 214.8997,348.0194 L213.9192,338.3906 L193.2903,343.1506 L190.2381,318.3137 C196.4514,315.5691 203.2939,315.2937 207.4420,312.2930 L206.4452,303.2598 L189.2087,307.2376 L186.1314,283.4776 C192.9613,282.0958 200.7996,280.6611 206.1657,277.5940 L205.4331,268.2888 C199.1075,268.2314 180.8152,274.2731 173.3558,276.0748 Z"
       style="fill-rule: evenodd; fill: #74c3ef; "
       id="path7" />
    <path
       d="  M11.5252,172.2995 L25.8851,197.5272 L29.7235,193.4738 C33.0779,188.7226 31.1775,188.6673 25.8315,179.9421 C20.0015,170.4273 23.6018,169.6184 29.6987,161.3188 C58.3093,122.3706 56.8933,129.9915 86.8151,96.3734 C97.0755,84.8456 106.2067,76.5895 117.0432,66.0633 C98.6808,74.8746 66.7429,103.2325 51.9366,118.9246 C41.3358,130.1594 18.4528,159.9289 11.5252,172.2995 Z"
       style="fill-rule: evenodd; fill: #fdfdfe; "
       id="path8" />
    <path
       d="  M134.7766,279.3889 C133.4792,267.3448 136.8927,255.7563 135.8246,250.5110 L135.2077,248.7168 C127.5579,253.7952 125.5287,264.4575 124.0777,276.1525 C122.3438,290.1274 121.7706,299.5930 133.9717,303.5630 L133.4897,283.2754 C139.6820,286.0756 142.8998,291.6079 149.7558,293.6504 C152.0991,281.5497 154.3160,286.9175 156.7027,262.0392 L160.5846,262.0392 C162.2923,253.2356 162.1424,246.8079 147.9880,242.8695 C142.4765,252.3795 135.3335,267.3625 134.7766,279.3889 Z"
       style="fill-rule: evenodd; fill: #74c3ef; "
       id="path9" />
    <path
       d="  M150.1757,310.5551 L151.8702,312.7149 C152.5940,319.6778 127.6957,316.3234 117.3895,322.7799 C120.0341,325.1914 118.3355,323.8741 125.1444,323.5678 C119.7709,328.1045 118.0462,331.2429 120.0761,340.6614 C128.9726,336.9661 133.1438,334.3847 145.0772,333.4954 C155.9091,332.6881 167.2249,335.0444 172.7897,326.6515 C172.4834,326.4806 171.9784,325.9996 171.8014,326.2893 L166.9692,324.6463 C166.7490,324.5721 166.3312,324.4832 166.0463,324.3262 L171.9089,321.5483 L168.4951,289.4701 L150.1757,310.5551 Z"
       style="fill-rule: evenodd; fill: #fdfdfe; "
       id="path10" />
    <path
       d="  M263.5008,262.4604 L269.9190,321.4463 C274.8506,322.7656 281.0849,319.6615 285.9761,318.4866 L279.0831,258.7984 L263.5008,262.4604 Z"
       style="fill-rule: evenodd; fill: #162b3e; "
       id="path11" />
    <path
       d="  M94.0114,166.7758 C104.1815,170.2001 111.6609,165.3218 120.0263,162.7892 C124.4318,171.6558 127.6288,175.4562 139.2971,179.5833 C135.4078,172.2968 129.1531,172.7459 127.0275,158.8375 C125.9950,152.0808 132.0673,142.6610 130.9782,132.2718 C121.6611,137.6884 95.7205,156.5467 94.0114,166.7758 Z"
       style="fill-rule: evenodd; fill: #74c3ef; "
       id="path12" />
    <path
       d="  M219.5135,204.1563 C223.0555,189.3898 230.1184,173.5742 233.7632,157.1022 C236.1415,146.3562 238.8070,140.4628 232.8159,133.3263 C230.5522,130.6298 219.9253,122.0705 214.8065,121.2873 C228.8886,148.9397 217.1013,174.8647 219.5135,204.1563 Z"
       style="fill-rule: evenodd; fill: #162b3e; "
       id="path13" />
    <path
       d="  M310.8446,19.2032 L319.1757,20.0701 L328.3514,76.5396 L336.7965,75.5465 C336.2745,64.7008 330.2087,17.7515 325.4552,10.4057 L308.5623,10.8979 L310.8446,19.2032 Z"
       style="fill-rule: evenodd; fill: #fdfdfe; "
       id="path14" />
    <path
       d="  M242.2232,96.3958 C241.7419,96.0804 214.5222,70.7934 223.8960,58.8270 C225.4782,56.8076 224.8185,57.8773 226.2736,56.3429 C228.1434,54.3706 227.0855,55.8728 228.7661,53.5783 C177.5252,58.3674 226.4455,93.7353 242.2232,96.3958 Z"
       style="fill-rule: evenodd; fill: #162b3e; "
       id="path15" />
    <path
       d="  M281.0937,163.7775 C280.1793,154.9339 274.6603,139.6556 270.3274,134.1006 C264.4878,126.6147 253.5590,122.7505 240.8292,123.3851 C248.5070,137.6772 260.7820,141.1228 271.5518,153.2072 C274.7777,156.8268 277.5307,160.2688 281.0937,163.7775 Z"
       style="fill-rule: evenodd; fill: #162b3e; "
       id="path16" />
    <path
       d="  M138.5807,59.2486 C148.2821,53.2178 154.6982,42.5895 164.6316,37.6643 C163.8389,52.5920 168.3157,46.6975 179.3246,43.0657 C179.5250,34.9859 177.2417,40.6345 176.4762,22.0400 C165.0040,23.8570 141.6767,48.0827 138.5807,59.2486 Z"
       style="fill-rule: evenodd; fill: #fdfdfe; "
       id="path17" />
    <path
       d="  M274.5538,347.4289 C269.4516,346.5396 263.4513,344.0240 259.4287,343.6505 C255.1345,343.2517 248.3605,345.9335 243.6850,346.9079 L278.7908,357.8259 L289.7847,335.0630 C278.0185,336.9712 277.6759,336.9946 274.5538,347.4289 Z"
       style="fill-rule: evenodd; fill: #fdfdfe; "
       id="path18" />
    <path
       d="  M160.4492,113.9934 C162.9059,114.7671 166.1555,115.0920 168.3245,116.3415 C171.1990,129.3522 159.8435,138.3253 156.7370,147.7862 C165.4887,141.3735 181.0489,119.4995 184.6038,105.8380 C175.6103,107.4732 167.6543,110.7950 160.4492,113.9934 Z"
       style="fill-rule: evenodd; fill: #162b3e; "
       id="path19" />
    <path
       d="  M67.8130,257.6910 C74.8840,261.4755 83.0398,269.2758 93.3211,271.9796 L77.5594,243.2395 C74.1294,246.1700 69.0893,252.3154 67.8130,257.6910 Z"
       style="fill-rule: evenodd; fill: #fdfdfe; "
       id="path20" />
    <path
       d="  M325.4552,228.9821 C328.4372,227.6149 327.1158,228.8352 328.5644,225.6371 C328.6210,225.5116 329.6579,221.1902 329.7583,220.7134 C331.4670,212.5909 334.8082,197.7700 334.9876,190.5616 C325.3500,193.2624 324.6151,192.7418 323.9415,204.5559 L323.5541,222.6239 C323.6752,228.3953 324.3797,227.7709 325.4552,228.9821 Z"
       style="fill-rule: evenodd; fill: #fdfdfe; "
       id="path21" />
    <path
       d="  M114.3455,283.1062 C115.7574,278.6847 116.2682,278.6780 116.1299,274.0042 C111.3404,270.3530 98.5203,259.9933 94.5222,258.6512 C97.9136,270.6036 102.7135,278.2252 114.3455,283.1062 Z"
       style="fill-rule: evenodd; fill: #fdfdfe; "
       id="path22" />
    <path
       d="  M142.3866,310.9611 C147.2836,309.9459 147.4196,306.8174 151.6782,302.8508 C149.2206,299.4577 147.3463,298.6935 144.2232,296.0863 C140.8956,293.3085 140.3923,291.5964 136.5416,288.7975 C135.5963,296.8620 138.2646,305.2250 142.3866,310.9611 Z"
       style="fill-rule: evenodd; fill: #fdfdfe; "
       id="path23" />
    <path
       d="  M151.7936,301.0969 C154.3454,300.5682 154.4163,298.9378 156.6357,296.8706 C152.1299,290.6498 151.8051,294.5835 149.8517,293.1636 C149.3589,297.3664 149.6452,298.1077 151.7936,301.0969 Z"
       style="fill-rule: evenodd; fill: #fdfdfe; "
       id="path24" />
    <path
       d="  M157.1888,295.8332 C159.7406,295.3046 159.8115,293.6741 162.0309,291.6070 C157.5252,285.3862 157.2003,289.3199 155.2469,287.9000 C154.7541,292.1028 155.0405,292.8441 157.1888,295.8332 Z"
       style="fill-rule: evenodd; fill: #fdfdfe; "
       id="path25" />
    <path
       d="  M113.8944,313.6534 C118.7913,312.6383 118.9274,309.5098 123.1860,305.5431 C120.7284,302.1501 118.8541,301.3859 115.7310,298.7787 C112.4034,296.0009 111.9000,294.2887 108.0494,291.4899 C107.1041,299.5544 109.7724,307.9173 113.8944,313.6534 Z"
       style="fill-rule: evenodd; fill: #fdfdfe; "
       id="path26" />
    <path
       d="  M134.7243,315.5249 C138.1104,315.0367 138.2044,313.5311 141.1494,311.6223 C135.1706,305.8778 134.7395,309.5103 132.1475,308.1991 C131.4936,312.0801 131.8736,312.7647 134.7243,315.5249 Z"
       style="fill-rule: evenodd; fill: #fdfdfe; "
       id="path27" />
    <path
       d="  M126.0126,317.2917 C129.3987,316.8035 129.4928,315.2979 132.4377,313.3890 C126.4589,307.6445 126.0279,311.2771 123.4359,309.9659 C122.7820,313.8468 123.1619,314.5314 126.0126,317.2917 Z"
       style="fill-rule: evenodd; fill: #fdfdfe; "
       id="path28" />
    <path
       d="  M116.8142,317.2917 C120.2004,316.8035 120.2944,315.2979 123.2394,313.3890 C117.2606,307.6445 116.8295,311.2771 114.2375,309.9659 C113.5836,313.8468 113.9636,314.5314 116.8142,317.2917 Z"
       style="fill-rule: evenodd; fill: #fdfdfe; "
       id="path29" />
    <path
       d="  M54.0256,272.4644 C60.3579,275.8535 67.6616,282.8389 76.8689,285.2603 L62.7538,259.5227 C59.6821,262.1470 55.1686,267.6504 54.0256,272.4644 Z"
       style="fill-rule: evenodd; fill: #fdfdfe; "
       id="path30" />
    <path
       d="  M90.7739,231.4082 C88.2221,231.9369 88.1512,233.5673 85.9318,235.6345 C90.4376,241.8553 90.7625,237.9216 92.7158,239.3415 C93.2086,235.1387 92.9223,234.3974 90.7739,231.4082 Z"
       style="fill-rule: evenodd; fill: #fdfdfe; "
       id="path31" />
    <path
       d="  M85.3787,236.6718 C82.8269,237.2005 82.7560,238.8309 80.5366,240.8981 C85.0424,247.1189 85.3672,243.1852 87.3206,244.6051 C87.8134,240.4023 87.5270,239.6610 85.3787,236.6718 Z"
       style="fill-rule: evenodd; fill: #fdfdfe; "
       id="path32" />
  </g>
</svg>
