<?xml version="1.0" encoding="utf-8"?>
<!-- Generator: Adobe Illustrator 25.4.1, SVG Export Plug-In . SVG Version: 6.00 Build 0)  -->
<svg version="1.0" id="katman_1" xmlns="http://www.w3.org/2000/svg" xmlns:xlink="http://www.w3.org/1999/xlink" x="0px" y="0px"
	 viewBox="0 0 1700 1200" style="enable-background:new 0 0 1700 1200;" xml:space="preserve">
<style type="text/css">
	.st0{fill-rule:evenodd;clip-rule:evenodd;fill:#1D1D1B;}
	.st1{fill:#1D1D1B;}
</style>
<path class="st0" d="M1143.1,322.6c0-38.7-33.9-68.8-72.3-64.1L270.1,361.7c-32.4,3.9-56.8,31.4-56.8,64.1v209.4
	c0,28.1,25.6,49.3,53.3,44c27.6-5.3,53.3,15.9,53.3,44v154.4c0,38.9,34.1,69,72.7,64.1l887.9-113.2c32.2-4.1,56.4-31.5,56.4-64.1
	V568c0-38.4-33.3-68.3-71.5-64.2l-68.7,7.4c-28.6,3.1-53.6-19.4-53.6-48.2V322.6z M986.6,727.7c-10.3,1.3-16.5-4.3-16.4-14.4
	l0.3-39.1c0-3.6,2.9-6.8,6.5-7.2l21.6-2.7c3.5-0.4,6.4-3.7,6.5-7.2l0.2-25.2c0-3.6-2.8-6.1-6.4-5.7l-22.7,2.8
	c-3.5,0.4-6.4-2.1-6.4-5.7l0.2-28.6c0-3.6-2.8-6.1-6.4-5.7l-1.1,0.1c-1.8,0.2-3.5,1.2-4.7,2.6l-55.2,65.4l0.1-13.1
	c0-3.6-2.8-6.1-6.4-5.7l-6.7,0.8c-13.1,1.6-23.3,5.7-31.9,13.6c-3.7,3.3-9.3,3.3-11.3-0.7l-1.6-3.2c-1.1-2.1-3.3-3.2-5.7-2.9
	l-22.4,2.8c-3.5,0.4-6.4,3.7-6.5,7.2l-1,130c0,3.6,2.8,6.1,6.4,5.7l36.1-4.5c3.5-0.4,6.4-3.7,6.5-7.2l0.5-66.1
	c0.1-18.3,7.6-26.9,24.6-29l12.8-1.6c3.5-0.4,6.4-3.6,6.5-7.1l12.7-1.6c3.5-0.4,6.4,2.1,6.4,5.7l-0.4,47.3
	c-0.3,31.8,18.8,48.7,50,44.9l27.2-3.4c3.5-0.4,6.4-3.7,6.5-7.2l0.2-30c0-3.6-2.8-6.1-6.4-5.7L986.6,727.7z M597.3,759.4
	c-0.1,10.1,6.2,15.6,16.4,14.4l12.2-1.5c3.5-0.4,6.4,2.1,6.4,5.7l-0.2,30c0,3.6-2.9,6.8-6.5,7.2l-27.2,3.4
	c-31.3,3.9-50.3-13.1-50-44.9l0.4-47.3c0-3.6-2.8-6.1-6.4-5.7l-13.2,1.6c-1.3,0.2-2.6-0.1-3.6-0.7l0,0.1c0.5,3.5-2.5,6.9-6,7.3
	l-33,4.1c-3.5,0.4-6.1-2.3-7.6-5.3c-2.2-4.4-7.1-6.1-13.4-5.3c-7.9,1-13.2,5.6-13.2,12.2c-0.1,7.9,10.7,8.7,24.1,9.5l0.8,0
	c22.5,1.2,51.4,2.7,51.1,38.2c-0.2,29.9-25.4,52.6-63.2,57.3c-35.8,4.4-58.4-10.5-61.7-37.4c-0.4-3.5,2.5-6.9,6.1-7.3l34.1-4.2
	c3.5-0.4,6.2,2.2,7.4,5.4c2.3,5.9,8.3,8,15.4,7.1c7.1-0.9,14-5.4,14-12.8c0.1-8.2-10.7-9.3-24.3-9.7c-22-1-51.2-4-50.9-38.7
	c0.2-28.6,24.8-50.1,61.1-54.6c28.7-3.5,49.4,6.1,56.8,24.8c0.3-1,0.8-2,1.5-2.9l60.5-71.5c1.2-1.4,2.9-2.4,4.7-2.6l1.1-0.1
	c3.5-0.4,6.4,2.1,6.4,5.7l-0.2,28.6c0,3.6,2.8,6.1,6.4,5.7l22.7-2.8c3.5-0.4,6.4,2.1,6.4,5.7l-0.2,25.2c0,3.6-2.9,6.8-6.5,7.2
	l-21.6,2.7c-3.5,0.4-6.4,3.7-6.5,7.2L597.3,759.4z M760.2,655.7c-2.4,0.3-4.6,2-5.6,4.3c-1.7,4-6.5,5.6-9.9,3.8
	c-10.4-5.5-22.9-7.7-36.7-6c-43.4,5.4-74.6,40.7-75,84.9c-0.4,44.5,30.4,72.4,73.7,67.1c13.9-1.7,26.5-7,37.1-15.1
	c3.1-2.3,7.3-1.8,8.6,1.4c0.8,1.9,2.8,3,5,2.7l27.8-3.4c3.5-0.4,6.4-3.7,6.5-7.2l1-130c0-3.6-2.8-6.1-6.4-5.7L760.2,655.7z
	 M713.6,765.7c-18.4,2.3-31.7-10.1-31.5-28.9c0.1-18.5,13.7-34,32.1-36.2c18.4-2.3,31.7,9.8,31.5,28.4
	C745.5,747.7,732,763.4,713.6,765.7z M1083.5,611.3c45.7-5.6,77,23.3,76.6,65.1c0,2.6-0.1,5-0.3,7.6c-0.3,3.3-3,6.1-6.3,6.5
	l-91.9,11.3c-4,0.5-7.1,4.6-5.7,8.2c4.5,10.9,13.7,15.7,26.6,14.1c9.8-1.2,18.4-6,23.5-13.1c1.5-2.1,3.6-3.7,6-4l36.3-4.5
	c4.3-0.5,7.4,3.3,5.6,7.5c-12.3,29.2-39.3,49.6-71.7,53.6c-44.4,5.5-76.7-23.1-76.4-66.7C1006.2,653.1,1038.8,616.8,1083.5,611.3z
	 M1108.9,660.8c-5.2-8.5-14-12.3-25.7-10.8c-11.3,1.4-20,7.3-25.1,17.2c-2.1,4,1,7.7,5.2,7.2l40.3-5
	C1107.8,668.9,1111,664.3,1108.9,660.8z M1249.1,594.8c-13.1,1.6-23.3,5.7-31.9,13.6c-3.7,3.3-9.3,3.3-11.3-0.7l-1.6-3.2
	c-1.1-2.1-3.3-3.2-5.7-2.9l-22.4,2.8c-3.5,0.4-6.4,3.7-6.5,7.2l-1.1,130c0,3.6,2.8,6.1,6.4,5.7l36.1-4.5c3.5-0.4,6.4-3.7,6.5-7.2
	l0.5-66.1c0.1-18.3,7.6-26.9,24.6-29l12.8-1.6c3.5-0.4,6.4-3.7,6.5-7.2l0.3-32.1c0-3.6-2.8-6.1-6.4-5.7L1249.1,594.8z M980.5,371.4
	c45.6-6.2,76.8,22.3,76.5,64.2c0,2.6-0.1,5-0.3,7.6c-0.3,3.3-3,6.1-6.3,6.6l-91.8,12.5c-4,0.5-7.1,4.7-5.7,8.3
	c4.4,10.9,13.7,15.5,26.6,13.7c9.8-1.3,18.4-6.2,23.4-13.4c1.5-2.1,3.6-3.7,6-4.1l36.3-4.9c4.3-0.6,7.3,3.2,5.6,7.4
	c-12.3,29.4-39.3,50-71.6,54.4c-44.3,6-76.6-22.1-76.2-65.8C903.4,414.1,935.9,377.4,980.5,371.4z M1005.9,420.6
	c-5.2-8.5-14-12.1-25.7-10.5c-11.3,1.5-20,7.6-25.1,17.5c-2.1,4,1,7.7,5.2,7.2l40.2-5.5C1004.8,428.6,1008,424,1005.9,420.6z
	 M845.3,390.3c-14.5,2-27.7,9.1-37.8,19.6c-3.2,3.4-8.4,3.9-11.4,1.2c-8.8-7.8-20.9-11.3-35-9.4c-12.7,1.7-24.7,7.9-34.3,17
	c-3.7,3.5-9.5,3.4-11.4-0.7l-1-2.2c-1-2.2-3.3-3.4-5.8-3.1l-23.8,3.2c-3.5,0.5-6.4,3.8-6.5,7.3l-1.2,130c0,3.6,2.8,6.1,6.3,5.6
	l36-4.9c3.5-0.5,6.4-3.8,6.5-7.3l0.6-71.9c0.2-17.7,7.6-28.3,20.7-30c10.2-1.4,15.7,5.5,15.5,20.1l-0.7,76.9c0,3.6,2.8,6.1,6.3,5.6
	l34.7-4.7c3.5-0.5,6.4-3.8,6.5-7.3l0.6-71.9c0.2-18,7.1-28.2,20.4-30c10.5-1.4,15.7,5,15.5,20.1l-0.7,76.9c0,3.6,2.8,6.1,6.3,5.6
	l36-4.9c3.5-0.5,6.4-3.8,6.5-7.3l0.7-83C895.5,407.3,875.8,386.2,845.3,390.3z M398.8,505.3c0-3.6,2.9-6.8,6.5-7.3l87.9-12
	c3.5-0.5,6.4,2,6.2,5.6c-3.2,57.6-42.1,102.9-97.5,110.5c-56.1,7.6-97.5-27.5-97-83.9c0.5-56.4,41.8-103,98.2-110.7
	c45.4-6.2,82.6,15.6,93.2,53c1.1,3.7-2,7.8-6,8.4l-41.3,5.6c-2.6,0.3-4.8-0.9-6.1-3c-7.4-12.4-22.6-18.7-39.6-16.4
	c-27.5,3.7-46.1,26.4-46.4,56c-0.3,29.4,17.7,47,45.5,43.3c15.4-2.1,29-9.9,37-20.6c2.9-3.9,0-8.2-4.6-7.6l-29.7,4
	c-3.5,0.5-6.4-2-6.3-5.6L398.8,505.3z M622.6,428.2c1-2.4,3.2-4.1,5.6-4.4l26.1-3.5c3.5-0.5,6.4,2,6.3,5.6l-1.2,130
	c0,3.6-2.9,6.8-6.5,7.3l-27.8,3.8c-2.2,0.3-4.1-0.8-4.9-2.7c-1.4-3.2-5.6-3.6-8.6-1.3c-10.6,8.2-23.2,13.7-37,15.6
	c-43.3,5.9-74-21.7-73.6-66.2c0.4-44.2,31.6-79.9,74.9-85.8c13.8-1.9,26.3,0.2,36.7,5.5C616.1,433.9,620.9,432.1,622.6,428.2z
	 M550.2,505.8c-0.2,18.8,13.1,31,31.5,28.5c18.4-2.5,31.9-18.3,32-37.1c0.2-18.5-13.1-30.5-31.5-28
	C563.9,471.6,550.4,487.2,550.2,505.8z"/>
<path class="st1" d="M1289,307.5c-5.3,0.7-10,4.8-11.5,10.2l-8.5,29.9c-3.4,12-19.6,14.1-23,3l-8.4-27.7c-1.5-4.9-6.2-7.9-11.5-7.2
	l-29.3,3.9c-8.4,1.1-14.2,10.5-11.1,18l47.1,114.2c1.8,4.4,6.2,6.8,11.1,6.2l27.3-3.6c4.9-0.6,9.3-4.3,11.1-9.1l47.1-126.6
	c3.1-8.3-2.7-16.2-11.1-15L1289,307.5z"/>
<path class="st1" d="M1410.4,440.2c39-5.1,68.8-33.5,75.8-71c0.7-3.6-2.1-6.4-5.7-5.9l-33,4.3c-5.6,0.7-10.3,5.5-13,10.8
	c-4.9,9.6-13.7,16.3-23.9,17.6c-17,2.2-28.5-9.3-28.5-28.5c0-19.4,11.5-33.9,28.5-36.2c9.7-1.3,18.4,2.8,23.7,10.4
	c2.8,4,7.2,7,12.4,6.3l33.2-4.4c3.6-0.5,6.4-4.1,5.7-7.5c-7.6-34.3-36.9-53.8-75.2-48.8c-45.9,6-79,42.6-79,86.8
	S1364.6,446.2,1410.4,440.2z"/>
</svg>
