<?xml version="1.0" encoding="utf-8"?>
<!-- Generator: Adobe Illustrator 25.0.1, SVG Export Plug-In . SVG Version: 6.00 Build 0)  -->
<svg version="1.0" id="Layer_1" xmlns="http://www.w3.org/2000/svg" xmlns:xlink="http://www.w3.org/1999/xlink" x="0px" y="0px"
	 viewBox="0 0 909.5 598.4" style="enable-background:new 0 0 909.5 598.4;" xml:space="preserve">
<style type="text/css">
	.st0{fill:#1AB394;}
	.st1{fill:none;}
</style>
<path class="st0" d="M177.3,214.5c1.7-1,3.4-2,5.1-2.9c28.9,16.8,57.8,33.5,86.7,50.1c0.1,25,0.1,50,0,74.9
	c-29,16.7-57.9,33.4-86.7,50.2c-29-16.7-58.1-33.5-87.1-50.3c0.1-25-0.1-49.9,0.1-74.8c1.5-0.7,2.9-1.5,4.3-2.4
	C125.6,244.4,151.4,229.4,177.3,214.5z M181.5,232.8c-22.1,12.8-44.2,25.5-66.3,38.3c-0.8,0.6-1.9,0.9-2.5,1.8
	c17,9.7,34,19.6,51,29.4l1.3,0.4c5.1-6.4,10.5-12.5,15.6-18.9c-9.9-5.8-19.8-11.6-29.8-17.2c1.2-1.3,3-2,4.5-3
	c4.9-2.9,9.6-6,14.5-8.7c27.3,15.9,54.8,31.4,82.1,47.3c0.1-9.8,0.1-19.7,0-29.5c-22.6-13.3-45.5-26.3-68.1-39.5
	C183,232.7,182.2,232.2,181.5,232.8z M197.7,293.9c-5.1,6.4-10.5,12.6-15.7,19c9.4,5.3,18.7,10.8,28.1,16.1c0,0.2,0,0.6,0,0.8
	c-5.5,3.6-11.1,7.1-16.6,10.8c-0.6,0.4-1.3,1.1-2.1,0.6c-26.3-15.1-52.4-30.5-78.8-45.4c-0.2,9.8,0,19.6-0.1,29.3
	c22.9,13.5,46,26.6,69,40c1,0.7,2-0.5,3-0.8c22.3-12.9,44.7-25.8,67-38.7c0-0.2-0.1-0.7-0.1-1c-17.3-10-34.6-20-51.9-30
	C199,294.3,198.4,294.1,197.7,293.9z"/>
<path class="st0" d="M462.8,250.4c10.1-1,20.8-0.1,30.1,4.3c8.2,4,14.6,10.8,18.1,19.2c4.8,11,5.3,23.4,4.3,35.2
	c-1.1,11.1-5.2,22.5-13.7,30.1s-20.1,10.7-31.4,10.7c-10.6,0.1-21.7-2.1-30.2-8.7c-8.6-6.4-13.5-16.7-15.3-27
	c-1.6-9.4-1.6-19,0-28.4c1.8-10.1,6.4-20,14.6-26.5C445.9,253.9,454.3,251.2,462.8,250.4z M463,267.9c-5.6,1.3-10.5,4.8-13.3,9.9
	c-3.9,6.8-4.8,14.8-4.7,22.5s1,15.8,5,22.5c3.2,5.1,8.4,8.5,14.4,9.4c7.6,1.3,16.2,0,21.9-5.7c5.2-5.5,7-13.2,7.7-20.5
	c0.3-6.6,0.4-13.2-1.1-19.7c-1.4-6.2-4.5-12.5-10.1-15.9C476.9,266.9,469.6,266.5,463,267.9L463,267.9z"/>
<path class="st0" d="M324,251.6h20.5c0,12.7,0,25.4,0,38c12.8,0,25.6,0,38.4,0c0-12.7,0-25.4,0-38h20.5c0,32.3,0,64.7,0,97h-20.4
	c0-13.9,0-27.9,0-41.8c-12.8-0.1-25.6,0-38.4,0c0,14,0,27.9,0,41.9H324C324,316.3,324,284,324,251.6z"/>
<path class="st0" d="M526.3,251.6h73.1c0,5.7,0,11.4,0,17.1c-8.7,0-17.5,0-26.2,0c0,26.6,0,53.3,0,79.9h-20.5
	c-0.1-2.8,0.1-5.6-0.1-8.4c0.2-2.7,0.2-5.5,0-8.2c0.2-15.4,0.2-30.8,0-46.3c0.2-1.9,0.2-3.8,0-5.7c0.2-3.7,0-7.4,0.1-11.1
	c-8.8-0.2-17.6,0-26.4-0.1C526.3,263,526.3,257.3,526.3,251.6z"/>
<path class="st0" d="M614.4,251.6h29.5c9.9,0,20.2,0.5,29.2,5c6,3.1,9.9,9,10.5,15.7c0.3,4.4,0.3,8.9-1.2,13
	c-1.8,5.2-5.9,9.7-11.2,11.2c-0.8,0.4-2.1,0.1-2.3,1.2c5.4,1.2,11,3.7,14,8.6c3.7,6,4,13.6,2.9,20.4c-1.4,8-7.3,14.6-14.5,17.9
	c-8.6,4.2-18.5,4.2-27.8,4h-28.9C614.4,316.3,614.4,284,614.4,251.6z M634.9,268.4c0,7.1,0,14.3,0,21.4c4.3,0.2,8.5,0,12.8,0.1
	c4.1,0,8.6-0.4,11.9-3c3.1-2.6,3.5-7.1,2.8-10.9c-0.7-3.5-3.9-5.8-7.2-6.5C648.6,267.9,641.8,268.6,634.9,268.4L634.9,268.4z
	 M634.9,306.4c0,8.4,0,16.8,0,25.2c5.4,0,10.8,0.1,16.3,0c3.9-0.4,8.1-1.3,10.8-4.3c2.9-3.1,3.1-7.7,2.6-11.7
	c-0.7-4.5-4.8-7.4-9-8.3C648.8,305.7,641.8,306.5,634.9,306.4L634.9,306.4z"/>
<path class="st0" d="M705.6,251.6h20.5c0,32.3,0,64.7,0,97h-20.5C705.6,316.3,705.6,284,705.6,251.6z"/>
<path class="st0" d="M741.1,251.6c24.4,0,48.7,0,73.1,0c0,5.7,0,11.4,0,17.2c-8.7,0-17.5,0-26.2,0c0,26.6,0,53.2,0,79.9
	c-6.9,0-13.8,0-20.7,0c0-26.6,0-53.3,0-79.9c-8.7,0-17.5,0-26.2,0C741,263.1,741.1,257.3,741.1,251.6z"/>
<rect x="75.5" y="194.4" class="st1" width="758.5" height="209.6"/>
</svg>
