<?xml version="1.0" encoding="UTF-8"?>
<svg xmlns:xodm="http://www.corel.com/coreldraw/odm/2003" xmlns="http://www.w3.org/2000/svg" xmlns:xlink="http://www.w3.org/1999/xlink" version="1.1" id="Layer_1" x="0px" y="0px" viewBox="0 0 2481 2500" xml:space="preserve">
<g id="Layer_x0020_1">
	<path fill="#00FFCE" d="M1461.2,1174.1c-73.3,91.4-149.9,180.3-223.9,271.1c134.1,75.9,266.7,154.6,401,230.3   c0.1,2.7,0.2,8.1,0.3,10.8c-79.1,51-158.2,101.8-236.7,153.7c-9,5.1-19.1,15.7-30.1,9.2C996.6,1634,623.5,1414.7,247.5,1201.3   c-2.4,139.6-0.1,279.1-1.2,418.7c327,191.9,656.4,380,984.2,570.6c14.8,10.4,29-6.4,42.1-12c318.5-184.5,636.9-369.1,955.9-552.7   c-0.5-3.4-1.5-10.4-2-13.9c-247-142.2-493.8-284.6-740.4-427.4C1478,1180.5,1469.7,1176.9,1461.2,1174.1L1461.2,1174.1z    M1229.4,301.7c-315.5,182.1-630.6,364.9-946.1,547c-12.2,7.9-27.8,12.7-35,26.2C492,1013.1,734,1154.8,976.9,1294.5   c4.6,1.4,13.7,4.2,18.2,5.7c72.6-91.2,150.2-178.4,222.1-270.2c-141.9-82.3-283.6-164.9-426.4-245.7c17.7-19,42.7-28.6,63.9-43   C924,700,991.5,655.6,1062,616.4c389.5,226.7,781.7,448.6,1171.4,674.7c1.7-140.4,1.5-280.8,0.2-421.1   c-323.1-189.5-648.6-375.2-972.3-563.8C1251.9,300.9,1239.6,293.8,1229.4,301.7L1229.4,301.7z M1169.7,40.9   c24.3-13.8,47.8-29,73-40.9c411.9,239,824.1,477.6,1237,715c2.1,356.4,1.5,712.9,0.3,1069.3c-413.2,237.5-825.9,475.9-1237.7,715.7   c-414.3-238.7-828.1-478.3-1242-717.8c1.2-356-2-712.1,1.6-1067.9c21.2-9.7,41.1-21.8,61.1-33.7   C431.9,467.5,800.7,254.1,1169.7,40.9L1169.7,40.9z"></path>
</g>
</svg>
