<?xml version="1.0" encoding="utf-8"?>
<!-- Generator: Adobe Illustrator 19.2.1, SVG Export Plug-In . SVG Version: 6.00 Build 0)  -->
<svg version="1.1" id="layer" xmlns="http://www.w3.org/2000/svg" xmlns:xlink="http://www.w3.org/1999/xlink" x="0px" y="0px"
	 viewBox="0 0 652 652" style="enable-background:new 0 0 652 652;" xml:space="preserve">
<style type="text/css">
	.st0{fill:#7D7F80;}
	.st1{fill:#007FAE;}
</style>
<g>
	<g>
		<g>
			<polygon class="st0" points="26.3,375.2 26.3,375.2 28.5,375.2 28.5,360.8 26.3,360.8 			"/>
		</g>
		<g>
			<polygon class="st0" points="39.6,375.2 39.6,375.2 39.6,359.8 50,370.8 50,360.8 52.2,360.8 52.2,376.1 41.8,365.1 41.8,375.2 
							"/>
		</g>
		<g>
			<path class="st0" d="M63.3,375.2L63.3,375.2v-14.3h3c1.5,0,2.6,0.1,3.4,0.4c0.9,0.3,1.7,0.8,2.5,1.4c1.5,1.3,2.2,3.2,2.2,5.3
				s-0.8,4-2.3,5.3c-0.8,0.7-1.6,1.2-2.5,1.4c-0.7,0.3-1.9,0.4-3.3,0.4H63.3z M65.5,373.2L65.5,373.2h1c1,0,1.7-0.1,2.4-0.3
				c0.7-0.3,1.2-0.6,1.7-1c1.1-1,1.6-2.2,1.6-3.8c0-1.6-0.5-2.8-1.6-3.8c-0.9-0.9-2.3-1.3-4.2-1.3h-1V373.2z"/>
		</g>
		<g>
			<path class="st0" d="M84.1,367.9L84.1,367.9c0-2,0.7-3.7,2.2-5.2c1.5-1.5,3.2-2.2,5.3-2.2c2,0,3.7,0.7,5.2,2.2
				c1.5,1.4,2.2,3.2,2.2,5.2c0,2.1-0.7,3.8-2.2,5.2c-1.5,1.5-3.2,2.2-5.4,2.2c-1.8,0-3.5-0.6-5-1.9C85,372.1,84.1,370.2,84.1,367.9z
				 M86.3,368L86.3,368c0,1.6,0.6,2.8,1.7,3.9c1,1,2.2,1.5,3.7,1.5c1.5,0,2.7-0.5,3.8-1.6c1-1,1.5-2.3,1.5-3.8
				c0-1.5-0.5-2.8-1.5-3.8c-1-1.1-2.3-1.6-3.8-1.6c-1.5,0-2.7,0.5-3.7,1.6C86.9,365.2,86.3,366.4,86.3,368z"/>
		</g>
		<g>
			<polygon class="st0" points="109.6,375.2 109.6,375.2 109.6,359.8 120,370.8 120,360.8 122.2,360.8 122.2,376.1 111.8,365.1 
				111.8,375.2 			"/>
		</g>
		<g>
			<polygon class="st0" points="141.2,362.8 141.2,362.8 135.5,362.8 135.5,366.3 141.1,366.3 141.1,368.3 135.5,368.3 135.5,373.2 
				141.2,373.2 141.2,375.2 133.3,375.2 133.3,360.8 141.2,360.8 			"/>
		</g>
		<g>
			<path class="st0" d="M159.9,362.9L159.9,362.9l-1.8,1.1c-0.3-0.6-0.6-0.9-0.9-1.1c-0.3-0.2-0.7-0.3-1.2-0.3
				c-0.7,0-1.1,0.2-1.5,0.5c-0.4,0.3-0.6,0.7-0.6,1.2c0,0.7,0.5,1.2,1.5,1.7l1.5,0.6c1.2,0.4,2,1,2.5,1.7c0.6,0.7,0.8,1.6,0.8,2.5
				c0,1.3-0.4,2.4-1.3,3.3c-0.9,0.8-2,1.2-3.3,1.2c-1.2,0-2.2-0.3-3.1-1.1c-0.8-0.7-1.3-1.7-1.5-3.1l2.2-0.5
				c0.1,0.8,0.3,1.4,0.5,1.7c0.4,0.6,1.1,0.9,1.9,0.9c0.7,0,1.2-0.2,1.7-0.7c0.4-0.5,0.7-1,0.7-1.7c0-0.2-0.1-0.5-0.2-0.7
				c-0.1-0.2-0.2-0.4-0.3-0.7c-0.2-0.2-0.4-0.3-0.7-0.5c-0.2-0.2-0.6-0.3-0.9-0.5l-1.3-0.6c-2-0.8-3-2.1-3-3.7c0-1.1,0.4-2,1.2-2.7
				c0.8-0.8,1.8-1.2,3.1-1.2C157.7,360.5,158.9,361.3,159.9,362.9z"/>
		</g>
		<g>
			<polygon class="st0" points="170.6,375.2 170.6,375.2 172.8,375.2 172.8,360.8 170.6,360.8 			"/>
		</g>
		<g>
			<path class="st0" d="M192.3,371.7L192.3,371.7h-6.2l-1.6,3.5h-2.3l7.1-15.2l6.9,15.2h-2.4L192.3,371.7z M191.4,369.7L191.4,369.7
				l-2.1-4.9l-2.3,4.9H191.4z"/>
		</g>
		<g>
			<path class="st0" d="M219.3,375.2L219.3,375.2v-14.3h3c1.4,0,2.6,0.1,3.4,0.4c0.9,0.3,1.7,0.8,2.4,1.4c1.5,1.3,2.3,3.2,2.3,5.3
				s-0.8,4-2.3,5.3c-0.8,0.7-1.6,1.2-2.4,1.4c-0.7,0.3-1.9,0.4-3.4,0.4H219.3z M221.4,373.2L221.4,373.2h0.9c1,0,1.8-0.1,2.5-0.3
				c0.6-0.3,1.2-0.6,1.7-1c1-1,1.6-2.2,1.6-3.8c0-1.6-0.5-2.8-1.6-3.8c-1-0.9-2.3-1.3-4.2-1.3h-0.9V373.2z"/>
		</g>
		<g>
			<polygon class="st0" points="240.7,375.2 240.7,375.2 242.9,375.2 242.9,360.8 240.7,360.8 			"/>
		</g>
		<g>
			<path class="st0" d="M261.5,367.7L261.5,367.7h5.9v0.5c0,1.1-0.1,2.1-0.3,2.9c-0.3,0.7-0.7,1.4-1.3,2.1c-1.3,1.5-3,2.2-5.1,2.2
				c-2,0-3.7-0.7-5.2-2.2c-1.4-1.4-2.1-3.2-2.1-5.2c0-2.1,0.7-3.8,2.2-5.2c1.4-1.5,3.2-2.2,5.3-2.2c1.1,0,2.2,0.2,3.1,0.7
				c1,0.4,1.9,1.2,2.8,2.2l-1.5,1.5c-1.2-1.6-2.6-2.3-4.3-2.3c-1.5,0-2.8,0.5-3.8,1.6c-1,1-1.5,2.3-1.5,3.8c0,1.7,0.6,2.9,1.7,4
				c1.1,0.9,2.2,1.4,3.5,1.4c1.1,0,2.1-0.3,2.9-1.1c0.8-0.7,1.3-1.6,1.4-2.6h-3.6V367.7z"/>
		</g>
		<g>
			<polygon class="st0" points="277.8,375.2 277.8,375.2 279.9,375.2 279.9,360.8 277.8,360.8 			"/>
		</g>
		<g>
			<polygon class="st0" points="295.1,362.8 295.1,362.8 295.1,375.2 292.9,375.2 292.9,362.8 289.6,362.8 289.6,360.8 298.3,360.8 
				298.3,362.8 			"/>
		</g>
		<g>
			<path class="st0" d="M315.6,371.7L315.6,371.7h-6.2l-1.6,3.5h-2.3l7.1-15.2l6.9,15.2h-2.4L315.6,371.7z M314.7,369.7L314.7,369.7
				l-2.1-4.9l-2.3,4.9H314.7z"/>
		</g>
		<g>
			<polygon class="st0" points="331.2,360.8 331.2,360.8 331.2,373.2 335.4,373.2 335.4,375.2 329,375.2 329,360.8 			"/>
		</g>
		<g>
			<path class="st0" d="M367.1,371.7L367.1,371.7H361l-1.6,3.5h-2.3l7.1-15.2l6.8,15.2h-2.3L367.1,371.7z M366.2,369.7L366.2,369.7
				l-2.1-4.9l-2.2,4.9H366.2z"/>
		</g>
		<g>
			<path class="st0" d="M388.6,362.9L388.6,362.9l-1.8,1.1c-0.3-0.6-0.7-0.9-0.9-1.1c-0.3-0.2-0.8-0.3-1.3-0.3
				c-0.6,0-1.1,0.2-1.5,0.5c-0.4,0.3-0.6,0.7-0.6,1.2c0,0.7,0.5,1.2,1.6,1.7l1.4,0.6c1.2,0.4,2,1,2.6,1.7c0.5,0.7,0.8,1.6,0.8,2.5
				c0,1.3-0.4,2.4-1.3,3.3c-0.9,0.8-2,1.2-3.3,1.2c-1.2,0-2.2-0.3-3.1-1.1s-1.3-1.7-1.5-3.1l2.2-0.5c0.1,0.8,0.2,1.4,0.5,1.7
				c0.5,0.6,1.2,0.9,2,0.9c0.7,0,1.2-0.2,1.7-0.7c0.4-0.5,0.7-1,0.7-1.7c0-0.2,0-0.5-0.1-0.7c-0.1-0.2-0.2-0.4-0.4-0.7
				c-0.2-0.2-0.3-0.3-0.6-0.5c-0.2-0.2-0.6-0.3-0.9-0.5l-1.4-0.6c-2-0.8-3-2.1-3-3.7c0-1.1,0.4-2,1.3-2.7c0.8-0.8,1.9-1.2,3.1-1.2
				C386.4,360.5,387.7,361.3,388.6,362.9z"/>
		</g>
		<g>
			<path class="st0" d="M407.4,362.9L407.4,362.9l-1.8,1.1c-0.3-0.6-0.7-0.9-1-1.1c-0.2-0.2-0.7-0.3-1.2-0.3c-0.6,0-1.1,0.2-1.5,0.5
				c-0.4,0.3-0.6,0.7-0.6,1.2c0,0.7,0.5,1.2,1.6,1.7l1.4,0.6c1.2,0.4,2,1,2.6,1.7c0.5,0.7,0.8,1.6,0.8,2.5c0,1.3-0.4,2.4-1.3,3.3
				c-0.8,0.8-2,1.2-3.3,1.2c-1.2,0-2.3-0.3-3.1-1.1c-0.8-0.7-1.3-1.7-1.5-3.1l2.2-0.5c0.1,0.8,0.2,1.4,0.5,1.7
				c0.5,0.6,1.1,0.9,2,0.9c0.7,0,1.2-0.2,1.7-0.7c0.4-0.5,0.7-1,0.7-1.7c0-0.2,0-0.5-0.1-0.7c-0.1-0.2-0.2-0.4-0.4-0.7
				c-0.2-0.2-0.3-0.3-0.6-0.5c-0.3-0.2-0.6-0.3-1-0.5l-1.3-0.6c-2-0.8-3-2.1-3-3.7c0-1.1,0.4-2,1.3-2.7c0.8-0.8,1.8-1.2,3.1-1.2
				C405.2,360.5,406.5,361.3,407.4,362.9z"/>
		</g>
		<g>
			<polygon class="st0" points="426,362.8 426,362.8 420.2,362.8 420.2,366.3 425.8,366.3 425.8,368.3 420.2,368.3 420.2,373.2 
				426,373.2 426,375.2 418.1,375.2 418.1,360.8 426,360.8 			"/>
		</g>
		<g>
			<polygon class="st0" points="440.5,362.8 440.5,362.8 440.5,375.2 438.3,375.2 438.3,362.8 435.1,362.8 435.1,360.8 443.8,360.8 
				443.8,362.8 			"/>
		</g>
		<g>
			<polygon class="st0" points="474.9,362.8 474.9,362.8 469.2,362.8 469.2,366.3 474.8,366.3 474.8,368.3 469.2,368.3 469.2,373.2 
				474.9,373.2 474.9,375.2 467,375.2 467,360.8 474.9,360.8 			"/>
		</g>
		<g>
			<polygon class="st0" points="488.5,367.7 488.5,367.7 484.5,360.8 487,360.8 489.7,365.7 492.6,360.8 495.1,360.8 490.9,367.7 
				495.3,375.2 492.8,375.2 489.6,369.7 486.4,375.2 483.9,375.2 			"/>
		</g>
		<g>
			<path class="st0" d="M515.1,361.6L515.1,361.6v2.6c-1.3-1.1-2.5-1.6-3.8-1.6c-1.5,0-2.8,0.5-3.7,1.6c-1,1.1-1.5,2.3-1.5,3.9
				c0,1.5,0.5,2.7,1.5,3.7c1,1.1,2.3,1.6,3.7,1.6c0.7,0,1.4-0.2,1.9-0.3c0.3-0.2,0.6-0.3,0.9-0.6c0.3-0.2,0.7-0.4,1-0.7v2.7
				c-1.3,0.7-2.5,1-3.9,1c-2,0-3.7-0.7-5.2-2.1c-1.4-1.5-2.2-3.2-2.2-5.2c0-1.8,0.7-3.5,1.8-4.9c1.5-1.7,3.4-2.7,5.7-2.7
				C512.7,360.5,513.9,360.9,515.1,361.6z"/>
		</g>
		<g>
			<polygon class="st0" points="528.1,366.4 528.1,366.4 534.3,366.4 534.3,360.8 536.5,360.8 536.5,375.2 534.3,375.2 534.3,368.5 
				528.1,368.5 528.1,375.2 525.9,375.2 525.9,360.8 528.1,360.8 			"/>
		</g>
		<g>
			<path class="st0" d="M556.1,371.7L556.1,371.7h-6.2l-1.6,3.5H546l7.1-15.2l6.9,15.2h-2.4L556.1,371.7z M555.1,369.7L555.1,369.7
				l-2.1-4.9l-2.3,4.9H555.1z"/>
		</g>
		<g>
			<polygon class="st0" points="569.4,375.2 569.4,375.2 569.4,359.8 579.9,370.8 579.9,360.8 582,360.8 582,376.1 571.6,365.1 
				571.6,375.2 			"/>
		</g>
		<g>
			<path class="st0" d="M600.7,367.7L600.7,367.7h5.9v0.5c0,1.1-0.2,2.1-0.4,2.9c-0.2,0.7-0.7,1.4-1.2,2.1c-1.3,1.5-3,2.2-5.1,2.2
				c-2,0-3.7-0.7-5.2-2.2c-1.4-1.4-2.2-3.2-2.2-5.2c0-2.1,0.7-3.8,2.2-5.2c1.4-1.5,3.2-2.2,5.3-2.2c1.1,0,2.2,0.2,3.1,0.7
				c0.9,0.4,1.8,1.2,2.8,2.2l-1.5,1.5c-1.2-1.6-2.7-2.3-4.3-2.3c-1.5,0-2.8,0.5-3.8,1.6c-1,1-1.5,2.3-1.5,3.8c0,1.7,0.5,2.9,1.7,4
				c1.1,0.9,2.3,1.4,3.5,1.4c1.1,0,2-0.3,2.9-1.1c0.8-0.7,1.3-1.6,1.4-2.6h-3.6V367.7z"/>
		</g>
		<g>
			<polygon class="st0" points="625,362.8 625,362.8 619.2,362.8 619.2,366.3 624.8,366.3 624.8,368.3 619.2,368.3 619.2,373.2 
				625,373.2 625,375.2 617.1,375.2 617.1,360.8 625,360.8 			"/>
		</g>
		<g>
			<path class="st1" d="M25.6,279L25.6,279H44v66.1H25.6V279z M40.3,282.7L40.3,282.7h-11v58.8h11V282.7z M31.1,335.9L31.1,335.9
				c0-1.3,0.7-2.4,1.8-3.2v-41.4c-1.2-0.8-1.8-1.8-1.8-3.2c0-1.1,0.3-1.9,1.1-2.7c0.7-0.7,1.6-1.1,2.6-1.1c1.1,0,1.9,0.4,2.7,1.1
				c0.7,0.7,1,1.6,1,2.7c0,1.3-0.6,2.4-1.8,3.2v41.4c1.2,0.8,1.8,1.8,1.8,3.2c0,1-0.3,1.9-1,2.6c-0.7,0.8-1.6,1.1-2.7,1.1
				c-1,0-1.9-0.3-2.6-1.1C31.5,337.9,31.1,336.9,31.1,335.9z"/>
		</g>
		<g>
			<path class="st1" d="M61.4,336.4L61.4,336.4c0-1.3,0.6-2.3,1.8-3.1v-46.5h16l47.7,47.7h10.7v-51.4h-3.7v47.7h-5.4l-47.8-47.7
				H59.6v58.8h11v-47.8H76l47.9,47.8H145v-56.5c-1.2-0.7-1.8-1.8-1.8-3.2c0-1.1,0.3-1.9,1-2.7c0.8-0.7,1.6-1,2.7-1
				c1,0,1.9,0.3,2.6,1c0.7,0.7,1.1,1.6,1.1,2.7c0,1.4-0.7,2.5-1.8,3.2v60.2h-26.3l-47.6-47.8h-0.5v47.8H55.9v-66.1h26.2l47.7,47.7
				h0.4v-47.7h11v58.8h-15.9l-47.8-47.8H66.9v42.8c1.2,0.7,1.8,1.7,1.8,3.1c0,1.1-0.3,1.9-1,2.7c-0.7,0.7-1.6,1.1-2.7,1.1
				c-1,0-1.9-0.4-2.6-1.1C61.7,338.3,61.4,337.4,61.4,336.4z"/>
		</g>
		<g>
			<path class="st1" d="M179.8,327.7L179.8,327.7c0-1.1,0.3-1.9,1-2.7c0.8-0.7,1.6-1,2.7-1c1.3,0,2.3,0.6,3.1,1.8H222
				c0.8,0,1.5-0.1,2-0.1c0.5-0.1,0.8-0.2,1.1-0.5c0.3-0.2,0.4-0.6,0.5-1.1c0.1-0.5,0.1-1.2,0.1-2v-22.1c0-1.8-0.2-2.8-0.6-3.2
				c-0.3-0.3-1.4-0.5-3.1-0.5h-44v36.7h47.7c1.6,0,2.9-0.1,3.8-0.3c1-0.2,1.7-0.5,2.2-1c0.6-0.5,0.9-1.2,1-2.2
				c0.2-1,0.3-2.2,0.3-3.8v-29.4c0-1.6-0.1-2.9-0.3-3.9c-0.1-0.9-0.4-1.7-1-2.3c-0.5-0.5-1.2-0.8-2.2-1c-0.9-0.2-2.3-0.2-3.8-0.2
				h-55.1v55h-11v-66.1h66.1c3.7,0,6.7,0.3,9.1,0.8c2.3,0.6,4.2,1.5,5.6,2.9c1.3,1.3,2.3,3.3,2.9,5.6c0.5,2.3,0.8,5.4,0.8,9.1v29.4
				c0,3.7-0.3,6.7-0.8,9.1c-0.6,2.4-1.6,4.2-2.9,5.7c-1.4,1.3-3.3,2.3-5.6,2.8c-2.4,0.5-5.4,0.7-9.1,0.7h-46.4
				c-0.8,1.2-1.8,1.8-3.2,1.8c-1,0-1.8-0.3-2.6-1c-0.7-0.8-1.1-1.6-1.1-2.7c0-1,0.4-1.9,1.1-2.6c0.8-0.7,1.6-1.1,2.6-1.1
				c1.4,0,2.4,0.6,3.2,1.8h46.4c3,0,5.4-0.2,7.3-0.6c1.9-0.4,3.4-1.2,4.5-2.2c1.1-1.1,1.8-2.6,2.2-4.5c0.4-1.9,0.6-4.3,0.6-7.3
				v-29.4c0-3-0.2-5.5-0.6-7.3c-0.4-1.9-1.2-3.4-2.2-4.5c-1.1-1.2-2.6-1.9-4.5-2.2c-1.9-0.4-4.3-0.7-7.3-0.7h-62.4v58.8h3.7v-55.1
				h58.8c2.2,0,4.1,0.2,5.6,0.4c1.4,0.3,2.6,0.8,3.3,1.7c0.8,0.8,1.4,2,1.7,3.4c0.3,1.4,0.4,3.3,0.4,5.6v29.4c0,2.3-0.1,4.2-0.4,5.6
				c-0.2,1.4-0.8,2.5-1.7,3.3c-0.7,0.8-1.9,1.4-3.3,1.7c-1.5,0.2-3.3,0.4-5.6,0.4h-51.4v-44h51.4c2.4,0,3.7,1.2,3.7,3.7v29.4
				c0,2.4-1.3,3.7-3.7,3.7h-39.1c-0.8,1.2-1.8,1.8-3.1,1.8c-1.1,0-1.9-0.3-2.7-1.1C180.2,329.6,179.8,328.7,179.8,327.7z"/>
		</g>
		<g>
			<path class="st1" d="M370,327.7L370,327.7c0-1.1,0.3-1.9,1-2.7c0.8-0.7,1.6-1,2.7-1c1.3,0,2.4,0.6,3.1,1.8h35.5
				c0.8,0,1.5-0.1,2-0.1c0.5-0.1,0.9-0.2,1.1-0.5c0.3-0.2,0.4-0.6,0.5-1.1c0.1-0.5,0.1-1.2,0.1-2v-22.1c0-1.8-0.2-2.8-0.6-3.2
				c-0.3-0.3-1.3-0.5-3.1-0.5h-44v36.7h47.7c1.6,0,2.9-0.1,3.8-0.3c1-0.2,1.7-0.5,2.2-1c0.6-0.5,0.9-1.2,1.1-2.2
				c0.1-1,0.2-2.2,0.2-3.8v-29.4c0-1.6-0.1-2.9-0.2-3.9c-0.2-0.9-0.5-1.7-1.1-2.3c-0.5-0.5-1.2-0.8-2.2-1c-0.9-0.2-2.3-0.2-3.8-0.2
				h-55.1v55h-11v-66.1h66.1c3.7,0,6.7,0.3,9.1,0.8c2.3,0.6,4.2,1.5,5.6,2.9c1.4,1.3,2.3,3.3,2.9,5.6c0.5,2.3,0.8,5.4,0.8,9.1v29.4
				c0,3.7-0.3,6.7-0.8,9.1c-0.6,2.4-1.5,4.2-2.9,5.7c-1.4,1.3-3.3,2.3-5.6,2.8c-2.4,0.5-5.4,0.7-9.1,0.7h-46.4
				c-0.8,1.2-1.8,1.8-3.1,1.8c-1.1,0-1.9-0.3-2.7-1c-0.7-0.8-1-1.6-1-2.7c0-1,0.3-1.9,1-2.6c0.8-0.7,1.6-1.1,2.7-1.1
				c1.3,0,2.3,0.6,3.1,1.8h46.4c3,0,5.5-0.2,7.3-0.6c1.9-0.4,3.4-1.2,4.5-2.2c1.2-1.1,1.9-2.6,2.2-4.5c0.4-1.9,0.7-4.3,0.7-7.3
				v-29.4c0-3-0.2-5.5-0.7-7.3c-0.3-1.9-1.1-3.4-2.2-4.5c-1.1-1.2-2.6-1.9-4.5-2.2c-1.8-0.4-4.3-0.7-7.3-0.7h-62.4v58.8h3.7v-55.1
				h58.8c2.2,0,4.2,0.2,5.6,0.4c1.4,0.3,2.6,0.8,3.4,1.7c0.8,0.8,1.3,2,1.6,3.4c0.3,1.4,0.4,3.3,0.4,5.6v29.4c0,2.3-0.1,4.2-0.4,5.6
				c-0.2,1.4-0.7,2.5-1.6,3.3c-0.8,0.8-2,1.4-3.4,1.7c-1.4,0.2-3.3,0.4-5.6,0.4h-51.4v-44h51.4c2.4,0,3.7,1.2,3.7,3.7v29.4
				c0,2.4-1.3,3.7-3.7,3.7h-39.1c-0.7,1.2-1.8,1.8-3.1,1.8c-1.1,0-1.9-0.3-2.7-1.1C370.3,329.6,370,328.7,370,327.7z"/>
		</g>
		<g>
			<path class="st1" d="M522.3,323.1L522.3,323.1v9.7c1.3,0.8,1.8,1.8,1.8,3.2c0,1-0.3,1.9-1,2.6c-0.7,0.8-1.6,1.1-2.7,1.1
				c-1,0-1.9-0.3-2.6-1.1c-0.8-0.7-1.1-1.6-1.1-2.6c0-1.3,0.6-2.4,1.8-3.2v-6h-55.1v18.3h-18.3v-47.7c0-3.7,0.2-6.7,0.7-9.1
				c0.6-2.3,1.5-4.2,2.9-5.6c1.3-1.4,3.2-2.3,5.6-2.9c2.4-0.5,5.4-0.8,9.1-0.8h47.8c3.7,0,6.7,0.3,9.1,0.8c2.3,0.6,4.2,1.5,5.6,2.9
				c1.3,1.3,2.3,3.2,2.9,5.6c0.5,2.4,0.7,5.4,0.7,9.1v47.7h-18.3v-11h-39.1c-0.7,1.2-1.7,1.8-3.1,1.8c-1.1,0-1.9-0.3-2.7-1.1
				c-0.7-0.7-1-1.6-1-2.6c0-1.1,0.3-1.9,1-2.7c0.7-0.7,1.6-1,2.7-1c1.3,0,2.3,0.6,3.1,1.8h42.8v11h11v-44c0-3-0.2-5.5-0.6-7.3
				c-0.4-1.9-1.2-3.4-2.3-4.5c-1.1-1.2-2.6-1.9-4.5-2.3c-1.9-0.4-4.3-0.7-7.3-0.7h-47.8c-3,0-5.4,0.3-7.3,0.7
				c-1.9,0.3-3.3,1.1-4.5,2.3c-1.1,1.1-1.8,2.6-2.3,4.5c-0.4,1.8-0.6,4.3-0.6,7.3v44h11v-18.3H522.3z M509.5,310.2L509.5,310.2
				c0-1.3,0.6-2.3,1.8-3.1v-6.1c0-1.7-0.2-2.7-0.6-3.2c-0.3-0.3-1.4-0.5-3.1-0.5h-40.4c-0.9,0-1.6,0-2.1,0.1
				c-0.5,0.1-0.8,0.2-1.1,0.4c-0.3,0.3-0.4,0.7-0.4,1.2c-0.1,0.5-0.2,1.2-0.2,2v14.7h55.1v-18.3c0-1.6-0.1-2.9-0.2-3.8
				c-0.1-1-0.4-1.8-1-2.3c-0.5-0.5-1.2-0.8-2.2-1c-1-0.1-2.3-0.2-3.8-0.2h-47.8c-1.6,0-2.8,0.1-3.8,0.2c-1,0.2-1.8,0.5-2.3,1
				c-0.5,0.6-0.8,1.3-1,2.3c-0.2,0.9-0.2,2.3-0.2,3.8v35.4c1.2,0.8,1.8,1.8,1.8,3.2c0,1-0.3,1.9-1,2.6c-0.8,0.8-1.6,1.1-2.7,1.1
				c-1,0-1.9-0.3-2.6-1.1c-0.7-0.7-1.1-1.6-1.1-2.6c0-1.3,0.6-2.4,1.8-3.2v-35.4c0-2.2,0.2-4.2,0.4-5.6c0.3-1.4,0.8-2.6,1.7-3.4
				c0.8-0.8,1.9-1.3,3.3-1.7c1.4-0.3,3.3-0.4,5.6-0.4h47.8c2.2,0,4.1,0.2,5.6,0.4c1.4,0.3,2.6,0.8,3.3,1.7c0.8,0.8,1.4,2,1.7,3.4
				c0.3,1.4,0.4,3.3,0.4,5.6v22h-62.4v-22c0-2.5,1.2-3.7,3.7-3.7h47.8c2.4,0,3.7,1.2,3.7,3.7v9.7c1.2,0.8,1.8,1.7,1.8,3.1
				c0,1.1-0.3,1.9-1.1,2.7c-0.7,0.7-1.6,1-2.6,1c-1.1,0-1.9-0.3-2.6-1C509.8,312.1,509.5,311.3,509.5,310.2z"/>
		</g>
		<g>
			<path class="st1" d="M602.2,317.4L602.2,317.4c0-1,0.3-1.9,1-2.6c0.7-0.7,1.6-1.1,2.7-1.1c1,0,1.9,0.3,2.6,1.1
				c0.8,0.7,1.1,1.6,1.1,2.6c0,0.4-0.1,0.7-0.1,0.9l16.2,16.2l-13,13l-26.2-26.2h-9.9l-26.2,26.2l-13-13l22.5-22.5l-22.5-22.5
				l13-12.9l17.1,17.2c0.2-0.1,0.5-0.1,0.9-0.1c1,0,1.9,0.3,2.6,1c0.8,0.8,1.1,1.6,1.1,2.7c0,1-0.3,1.9-1.1,2.6
				c-0.7,0.7-1.6,1.1-2.6,1.1c-1.1,0-1.9-0.3-2.7-1.1c-0.7-0.7-1-1.6-1-2.6c0-0.5,0-0.8,0.1-1l-14.5-14.6l-7.8,7.8l22.5,22.5
				l-22.5,22.5l7.8,7.8l24.7-24.8h12.8l24.8,24.8l7.8-7.8L606.8,321c-0.2,0.1-0.5,0.1-1,0.1c-1.1,0-1.9-0.3-2.7-1
				C602.5,319.3,602.2,318.5,602.2,317.4z M609,289.6L609,289.6c0-1,0.4-1.9,1.1-2.6c0.7-0.7,1.6-1.1,2.6-1.1c1.1,0,1.9,0.3,2.7,1.1
				c0.7,0.7,1.1,1.6,1.1,2.6c0,1.1-0.4,1.9-1.1,2.7c-0.8,0.7-1.6,1-2.7,1c-0.4,0-0.8,0-1-0.1L591,313.9h-17.6l-19.7,19.9
				c0.2,0.3,0.3,0.7,0.3,0.8c0,1.1-0.4,2-1.1,2.7c-0.7,0.7-1.6,1.1-2.7,1.1c-1,0-1.8-0.4-2.6-1.1c-0.7-0.7-1.1-1.6-1.1-2.7
				c0-1,0.4-1.8,1.1-2.6c0.7-0.7,1.6-1.1,2.6-1.1c0.3,0,0.6,0.1,1,0.2l20.9-21h17.3l19.7-19.6C609.1,290.3,609,290,609,289.6z
				 M609,334.5L609,334.5c0-0.4,0.1-0.7,0.1-0.9l-16.3-16.4l27.7-27.6l-7.8-7.8l-24.8,24.8h-23.2l-13.4-13.4
				c-0.3,0.1-0.5,0.1-0.9,0.1c-1.1,0-1.9-0.3-2.7-1c-0.7-0.8-1.1-1.6-1.1-2.7c0-1,0.4-1.9,1.1-2.6c0.8-0.7,1.6-1.1,2.7-1.1
				c1,0,1.9,0.3,2.6,1.1c0.7,0.7,1.1,1.6,1.1,2.6c0,0.2,0,0.3-0.1,0.5c0,0.2-0.1,0.3-0.1,0.5l12.4,12.3h20.2l26.2-26.2l13,12.9
				l-27.7,27.7l13.7,13.8c0.4-0.2,0.7-0.2,1-0.2c1.1,0,1.9,0.4,2.7,1.1c0.7,0.7,1.1,1.6,1.1,2.6c0,1.1-0.4,1.9-1.1,2.7
				c-0.8,0.7-1.6,1.1-2.7,1.1c-1,0-1.9-0.4-2.6-1.1C609.4,336.4,609,335.6,609,334.5z"/>
		</g>
		<g>
			<path class="st1" d="M25.6,279L25.6,279H44v66.1H25.6V279z M40.3,282.7L40.3,282.7h-11v58.8h11V282.7z M31.1,335.9L31.1,335.9
				c0-1.3,0.7-2.4,1.8-3.2v-41.4c-1.2-0.8-1.8-1.8-1.8-3.2c0-1.1,0.3-1.9,1.1-2.7c0.7-0.7,1.6-1.1,2.6-1.1c1.1,0,1.9,0.4,2.7,1.1
				c0.7,0.7,1,1.6,1,2.7c0,1.3-0.6,2.4-1.8,3.2v41.4c1.2,0.8,1.8,1.8,1.8,3.2c0,1-0.3,1.9-1,2.6c-0.7,0.8-1.6,1.1-2.7,1.1
				c-1,0-1.9-0.3-2.6-1.1C31.5,337.9,31.1,336.9,31.1,335.9z"/>
		</g>
		<g>
			<path class="st1" d="M61.4,336.4L61.4,336.4c0-1.3,0.6-2.3,1.8-3.1v-46.5h16l47.7,47.7h10.7v-51.4h-3.7v47.7h-5.4l-47.8-47.7
				H59.6v58.8h11v-47.8H76l47.9,47.8H145v-56.5c-1.2-0.7-1.8-1.8-1.8-3.2c0-1.1,0.3-1.9,1-2.7c0.8-0.7,1.6-1,2.7-1
				c1,0,1.9,0.3,2.6,1c0.7,0.7,1.1,1.6,1.1,2.7c0,1.4-0.7,2.5-1.8,3.2v60.2h-26.3l-47.6-47.8h-0.5v47.8H55.9v-66.1h26.2l47.7,47.7
				h0.4v-47.7h11v58.8h-15.9l-47.8-47.8H66.9v42.8c1.2,0.7,1.8,1.7,1.8,3.1c0,1.1-0.3,1.9-1,2.7c-0.7,0.7-1.6,1.1-2.7,1.1
				c-1,0-1.9-0.4-2.6-1.1C61.7,338.3,61.4,337.4,61.4,336.4z"/>
		</g>
		<g>
			<path class="st1" d="M179.8,327.7L179.8,327.7c0-1.1,0.3-1.9,1-2.7c0.8-0.7,1.6-1,2.7-1c1.3,0,2.3,0.6,3.1,1.8H222
				c0.8,0,1.5-0.1,2-0.1c0.5-0.1,0.8-0.2,1.1-0.5c0.3-0.2,0.4-0.6,0.5-1.1c0.1-0.5,0.1-1.2,0.1-2v-22.1c0-1.8-0.2-2.8-0.6-3.2
				c-0.3-0.3-1.4-0.5-3.1-0.5h-44v36.7h47.7c1.6,0,2.9-0.1,3.8-0.3c1-0.2,1.7-0.5,2.2-1c0.6-0.5,0.9-1.2,1-2.2
				c0.2-1,0.3-2.2,0.3-3.8v-29.4c0-1.6-0.1-2.9-0.3-3.9c-0.1-0.9-0.4-1.7-1-2.3c-0.5-0.5-1.2-0.8-2.2-1c-0.9-0.2-2.3-0.2-3.8-0.2
				h-55.1v55h-11v-66.1h66.1c3.7,0,6.7,0.3,9.1,0.8c2.3,0.6,4.2,1.5,5.6,2.9c1.3,1.3,2.3,3.3,2.9,5.6c0.5,2.3,0.8,5.4,0.8,9.1v29.4
				c0,3.7-0.3,6.7-0.8,9.1c-0.6,2.4-1.6,4.2-2.9,5.7c-1.4,1.3-3.3,2.3-5.6,2.8c-2.4,0.5-5.4,0.7-9.1,0.7h-46.4
				c-0.8,1.2-1.8,1.8-3.2,1.8c-1,0-1.8-0.3-2.6-1c-0.7-0.8-1.1-1.6-1.1-2.7c0-1,0.4-1.9,1.1-2.6c0.8-0.7,1.6-1.1,2.6-1.1
				c1.4,0,2.4,0.6,3.2,1.8h46.4c3,0,5.4-0.2,7.3-0.6c1.9-0.4,3.4-1.2,4.5-2.2c1.1-1.1,1.8-2.6,2.2-4.5c0.4-1.9,0.6-4.3,0.6-7.3
				v-29.4c0-3-0.2-5.5-0.6-7.3c-0.4-1.9-1.2-3.4-2.2-4.5c-1.1-1.2-2.6-1.9-4.5-2.2c-1.9-0.4-4.3-0.7-7.3-0.7h-62.4v58.8h3.7v-55.1
				h58.8c2.2,0,4.1,0.2,5.6,0.4c1.4,0.3,2.6,0.8,3.3,1.7c0.8,0.8,1.4,2,1.7,3.4c0.3,1.4,0.4,3.3,0.4,5.6v29.4c0,2.3-0.1,4.2-0.4,5.6
				c-0.2,1.4-0.8,2.5-1.7,3.3c-0.7,0.8-1.9,1.4-3.3,1.7c-1.5,0.2-3.3,0.4-5.6,0.4h-51.4v-44h51.4c2.4,0,3.7,1.2,3.7,3.7v29.4
				c0,2.4-1.3,3.7-3.7,3.7h-39.1c-0.8,1.2-1.8,1.8-3.1,1.8c-1.1,0-1.9-0.3-2.7-1.1C180.2,329.6,179.8,328.7,179.8,327.7z"/>
		</g>
		<g>
			<path class="st1" d="M370,327.7L370,327.7c0-1.1,0.3-1.9,1-2.7c0.8-0.7,1.6-1,2.7-1c1.3,0,2.4,0.6,3.1,1.8h35.5
				c0.8,0,1.5-0.1,2-0.1c0.5-0.1,0.9-0.2,1.1-0.5c0.3-0.2,0.4-0.6,0.5-1.1c0.1-0.5,0.1-1.2,0.1-2v-22.1c0-1.8-0.2-2.8-0.6-3.2
				c-0.3-0.3-1.3-0.5-3.1-0.5h-44v36.7h47.7c1.6,0,2.9-0.1,3.8-0.3c1-0.2,1.7-0.5,2.2-1c0.6-0.5,0.9-1.2,1.1-2.2
				c0.1-1,0.2-2.2,0.2-3.8v-29.4c0-1.6-0.1-2.9-0.2-3.9c-0.2-0.9-0.5-1.7-1.1-2.3c-0.5-0.5-1.2-0.8-2.2-1c-0.9-0.2-2.3-0.2-3.8-0.2
				h-55.1v55h-11v-66.1h66.1c3.7,0,6.7,0.3,9.1,0.8c2.3,0.6,4.2,1.5,5.6,2.9c1.4,1.3,2.3,3.3,2.9,5.6c0.5,2.3,0.8,5.4,0.8,9.1v29.4
				c0,3.7-0.3,6.7-0.8,9.1c-0.6,2.4-1.5,4.2-2.9,5.7c-1.4,1.3-3.3,2.3-5.6,2.8c-2.4,0.5-5.4,0.7-9.1,0.7h-46.4
				c-0.8,1.2-1.8,1.8-3.1,1.8c-1.1,0-1.9-0.3-2.7-1c-0.7-0.8-1-1.6-1-2.7c0-1,0.3-1.9,1-2.6c0.8-0.7,1.6-1.1,2.7-1.1
				c1.3,0,2.3,0.6,3.1,1.8h46.4c3,0,5.5-0.2,7.3-0.6c1.9-0.4,3.4-1.2,4.5-2.2c1.2-1.1,1.9-2.6,2.2-4.5c0.4-1.9,0.7-4.3,0.7-7.3
				v-29.4c0-3-0.2-5.5-0.7-7.3c-0.3-1.9-1.1-3.4-2.2-4.5c-1.1-1.2-2.6-1.9-4.5-2.2c-1.8-0.4-4.3-0.7-7.3-0.7h-62.4v58.8h3.7v-55.1
				h58.8c2.2,0,4.2,0.2,5.6,0.4c1.4,0.3,2.6,0.8,3.4,1.7c0.8,0.8,1.3,2,1.6,3.4c0.3,1.4,0.4,3.3,0.4,5.6v29.4c0,2.3-0.1,4.2-0.4,5.6
				c-0.2,1.4-0.7,2.5-1.6,3.3c-0.8,0.8-2,1.4-3.4,1.7c-1.4,0.2-3.3,0.4-5.6,0.4h-51.4v-44h51.4c2.4,0,3.7,1.2,3.7,3.7v29.4
				c0,2.4-1.3,3.7-3.7,3.7h-39.1c-0.7,1.2-1.8,1.8-3.1,1.8c-1.1,0-1.9-0.3-2.7-1.1C370.3,329.6,370,328.7,370,327.7z"/>
		</g>
		<g>
			<path class="st1" d="M522.3,323.1L522.3,323.1v9.7c1.3,0.8,1.8,1.8,1.8,3.2c0,1-0.3,1.9-1,2.6c-0.7,0.8-1.6,1.1-2.7,1.1
				c-1,0-1.9-0.3-2.6-1.1c-0.8-0.7-1.1-1.6-1.1-2.6c0-1.3,0.6-2.4,1.8-3.2v-6h-55.1v18.3h-18.3v-47.7c0-3.7,0.2-6.7,0.7-9.1
				c0.6-2.3,1.5-4.2,2.9-5.6c1.3-1.4,3.2-2.3,5.6-2.9c2.4-0.5,5.4-0.8,9.1-0.8h47.8c3.7,0,6.7,0.3,9.1,0.8c2.3,0.6,4.2,1.5,5.6,2.9
				c1.3,1.3,2.3,3.2,2.9,5.6c0.5,2.4,0.7,5.4,0.7,9.1v47.7h-18.3v-11h-39.1c-0.7,1.2-1.7,1.8-3.1,1.8c-1.1,0-1.9-0.3-2.7-1.1
				c-0.7-0.7-1-1.6-1-2.6c0-1.1,0.3-1.9,1-2.7c0.7-0.7,1.6-1,2.7-1c1.3,0,2.3,0.6,3.1,1.8h42.8v11h11v-44c0-3-0.2-5.5-0.6-7.3
				c-0.4-1.9-1.2-3.4-2.3-4.5c-1.1-1.2-2.6-1.9-4.5-2.3c-1.9-0.4-4.3-0.7-7.3-0.7h-47.8c-3,0-5.4,0.3-7.3,0.7
				c-1.9,0.3-3.3,1.1-4.5,2.3c-1.1,1.1-1.8,2.6-2.3,4.5c-0.4,1.8-0.6,4.3-0.6,7.3v44h11v-18.3H522.3z M509.5,310.2L509.5,310.2
				c0-1.3,0.6-2.3,1.8-3.1v-6.1c0-1.7-0.2-2.7-0.6-3.2c-0.3-0.3-1.4-0.5-3.1-0.5h-40.4c-0.9,0-1.6,0-2.1,0.1
				c-0.5,0.1-0.8,0.2-1.1,0.4c-0.3,0.3-0.4,0.7-0.4,1.2c-0.1,0.5-0.2,1.2-0.2,2v14.7h55.1v-18.3c0-1.6-0.1-2.9-0.2-3.8
				c-0.1-1-0.4-1.8-1-2.3c-0.5-0.5-1.2-0.8-2.2-1c-1-0.1-2.3-0.2-3.8-0.2h-47.8c-1.6,0-2.8,0.1-3.8,0.2c-1,0.2-1.8,0.5-2.3,1
				c-0.5,0.6-0.8,1.3-1,2.3c-0.2,0.9-0.2,2.3-0.2,3.8v35.4c1.2,0.8,1.8,1.8,1.8,3.2c0,1-0.3,1.9-1,2.6c-0.8,0.8-1.6,1.1-2.7,1.1
				c-1,0-1.9-0.3-2.6-1.1c-0.7-0.7-1.1-1.6-1.1-2.6c0-1.3,0.6-2.4,1.8-3.2v-35.4c0-2.2,0.2-4.2,0.4-5.6c0.3-1.4,0.8-2.6,1.7-3.4
				c0.8-0.8,1.9-1.3,3.3-1.7c1.4-0.3,3.3-0.4,5.6-0.4h47.8c2.2,0,4.1,0.2,5.6,0.4c1.4,0.3,2.6,0.8,3.3,1.7c0.8,0.8,1.4,2,1.7,3.4
				c0.3,1.4,0.4,3.3,0.4,5.6v22h-62.4v-22c0-2.5,1.2-3.7,3.7-3.7h47.8c2.4,0,3.7,1.2,3.7,3.7v9.7c1.2,0.8,1.8,1.7,1.8,3.1
				c0,1.1-0.3,1.9-1.1,2.7c-0.7,0.7-1.6,1-2.6,1c-1.1,0-1.9-0.3-2.6-1C509.8,312.1,509.5,311.3,509.5,310.2z"/>
		</g>
		<g>
			<path class="st1" d="M602.2,317.4L602.2,317.4c0-1,0.3-1.9,1-2.6c0.7-0.7,1.6-1.1,2.7-1.1c1,0,1.9,0.3,2.6,1.1
				c0.8,0.7,1.1,1.6,1.1,2.6c0,0.4-0.1,0.7-0.1,0.9l16.2,16.2l-13,13l-26.2-26.2h-9.9l-26.2,26.2l-13-13l22.5-22.5l-22.5-22.5
				l13-12.9l17.1,17.2c0.2-0.1,0.5-0.1,0.9-0.1c1,0,1.9,0.3,2.6,1c0.8,0.8,1.1,1.6,1.1,2.7c0,1-0.3,1.9-1.1,2.6
				c-0.7,0.7-1.6,1.1-2.6,1.1c-1.1,0-1.9-0.3-2.7-1.1c-0.7-0.7-1-1.6-1-2.6c0-0.5,0-0.8,0.1-1l-14.5-14.6l-7.8,7.8l22.5,22.5
				l-22.5,22.5l7.8,7.8l24.7-24.8h12.8l24.8,24.8l7.8-7.8L606.8,321c-0.2,0.1-0.5,0.1-1,0.1c-1.1,0-1.9-0.3-2.7-1
				C602.5,319.3,602.2,318.5,602.2,317.4z M609,289.6L609,289.6c0-1,0.4-1.9,1.1-2.6c0.7-0.7,1.6-1.1,2.6-1.1c1.1,0,1.9,0.3,2.7,1.1
				c0.7,0.7,1.1,1.6,1.1,2.6c0,1.1-0.4,1.9-1.1,2.7c-0.8,0.7-1.6,1-2.7,1c-0.4,0-0.8,0-1-0.1L591,313.9h-17.6l-19.7,19.9
				c0.2,0.3,0.3,0.7,0.3,0.8c0,1.1-0.4,2-1.1,2.7c-0.7,0.7-1.6,1.1-2.7,1.1c-1,0-1.8-0.4-2.6-1.1c-0.7-0.7-1.1-1.6-1.1-2.7
				c0-1,0.4-1.8,1.1-2.6c0.7-0.7,1.6-1.1,2.6-1.1c0.3,0,0.6,0.1,1,0.2l20.9-21h17.3l19.7-19.6C609.1,290.3,609,290,609,289.6z
				 M609,334.5L609,334.5c0-0.4,0.1-0.7,0.1-0.9l-16.3-16.4l27.7-27.6l-7.8-7.8l-24.8,24.8h-23.2l-13.4-13.4
				c-0.3,0.1-0.5,0.1-0.9,0.1c-1.1,0-1.9-0.3-2.7-1c-0.7-0.8-1.1-1.6-1.1-2.7c0-1,0.4-1.9,1.1-2.6c0.8-0.7,1.6-1.1,2.7-1.1
				c1,0,1.9,0.3,2.6,1.1c0.7,0.7,1.1,1.6,1.1,2.6c0,0.2,0,0.3-0.1,0.5c0,0.2-0.1,0.3-0.1,0.5l12.4,12.3h20.2l26.2-26.2l13,12.9
				l-27.7,27.7l13.7,13.8c0.4-0.2,0.7-0.2,1-0.2c1.1,0,1.9,0.4,2.7,1.1c0.7,0.7,1.1,1.6,1.1,2.6c0,1.1-0.4,1.9-1.1,2.7
				c-0.8,0.7-1.6,1.1-2.7,1.1c-1,0-1.9-0.4-2.6-1.1C609.4,336.4,609,335.6,609,334.5z"/>
		</g>
		<g>
			<path class="st1" d="M339,298.7L339,298.7l-20.4-20.5h-44.4l-19.5,19.9V327l19.3,18.1l43.5-0.5l13.7-20.3v-22.5L315.4,286
				l-38-0.1l-14.9,16L263,324l14.4,13.2l36-0.1l10.2-16.1v-16l-11.3-11.3h-31.5l-10,11.3l0.7,15.8l9.6,8.8l23.5-0.2
				c0.6,1.2,1.8,1.9,3.2,1.9c2.1,0,3.8-1.7,3.8-3.7c0-2.2-1.7-3.8-3.8-3.8c-1.6,0-3,1-3.5,2.4l-21.6,0.2l-7.6-7.1l-0.3-12.7l7.7-9.1
				l28.3,0.1l9,9v13.4l-8.7,13.1l-31.6,0.2l-12.1-10.9l-0.8-19.1l12.6-13.6h34.8l13.5,13.6l-0.2,18.7l-11.4,18.3l-39.9,0.7l-17-15.8
				v-25.6l17.1-17.6l41.2,0.1l18.1,18.1l-0.5,25.3l-7.8,12c0,0,0,0-0.1,0c-2.1,0-3.7,1.7-3.7,3.7c0,2.2,1.7,3.8,3.7,3.8
				c2.1,0,3.8-1.7,3.8-3.8c0-0.5-0.1-0.9-0.3-1.4l8.3-12.7L339,298.7z"/>
		</g>
	</g>
</g>
</svg>
