<?xml version="1.0" encoding="UTF-8"?>
<svg xmlns:xodm="http://www.corel.com/coreldraw/odm/2003" xmlns="http://www.w3.org/2000/svg" xmlns:xlink="http://www.w3.org/1999/xlink" version="1.1" id="Layer_1" x="0px" y="0px" viewBox="0 0 2500 761" style="enable-background:new 0 0 2500 761;" xml:space="preserve">
<style type="text/css">
	.st0{fill-rule:evenodd;clip-rule:evenodd;fill:url(#SVGID_1_);}
	.st1{fill-rule:evenodd;clip-rule:evenodd;fill:url(#SVGID_00000133522120302171698860000016601064775930000268_);}
	.st2{fill-rule:evenodd;clip-rule:evenodd;fill:url(#SVGID_00000088845390812835080580000002508592940381746589_);}
	.st3{fill-rule:evenodd;clip-rule:evenodd;fill:url(#SVGID_00000145051756073985086720000006940477429754054302_);}
	.st4{fill-rule:evenodd;clip-rule:evenodd;fill:url(#SVGID_00000041285833218917377840000005342866417688115075_);}
	.st5{fill:url(#SVGID_00000040546209236742181870000004458483108497491372_);}
	.st6{fill:#FFFFFF;}
	.st7{fill:#86F4D0;fill-opacity:0.4;}
	.st8{fill:#86F4D0;fill-opacity:0.2;}
	.st9{fill:#86F4D0;fill-opacity:0.302;}
	.st10{fill:#FFFFFF;fill-opacity:0.902;}
	.st11{fill:url(#SVGID_00000151518332666492522450000007624867216499638975_);fill-opacity:0.902;}
	.st12{fill:#FFFFFF;fill-opacity:0.6;}
	.st13{fill:#86F4D0;fill-opacity:0.6;}
	.st14{fill:url(#SVGID_00000024690199850820842720000003580407225205031300_);}
	.st15{fill:#86F4D0;fill-opacity:0.702;}
	.st16{fill:url(#SVGID_00000104694946956766314670000002862029984391335556_);}
	.st17{fill:url(#SVGID_00000110429242701083603970000012947081606625568442_);}
	.st18{fill:url(#SVGID_00000039840359707548652260000017403273087560334781_);}
	.st19{fill:url(#SVGID_00000092430678088087091150000014957941606137116820_);}
	.st20{fill:url(#SVGID_00000059991889636716183350000006880317383127404163_);}
	.st21{fill:url(#SVGID_00000024713722194878079700000005399919258413253261_);}
	.st22{fill:url(#SVGID_00000016037604330573557260000010254314746690508937_);}
	.st23{fill:url(#SVGID_00000009584762393447368010000015932559693920929695_);}
	.st24{fill:url(#SVGID_00000039113660239852448930000012037766990347813817_);}
	.st25{fill:url(#SVGID_00000029028003232605248490000011369901608090272141_);}
	.st26{fill:url(#SVGID_00000127742845011977663880000016577784538707528357_);}
	.st27{fill:url(#SVGID_00000103959931169303548810000014470772411148892816_);}
	.st28{fill:url(#SVGID_00000063628794987063581640000006165222899407822496_);}
	.st29{fill:url(#SVGID_00000023266633000967175870000000427774846892897721_);}
	.st30{fill:url(#SVGID_00000031195534213739686070000010085715333888769197_);}
	.st31{fill:url(#SVGID_00000130612303847721289790000001846744471368718514_);}
</style>
<g id="Layer_x0020_1">
	<g id="_2680130909472">
		<g>
			
				<linearGradient id="SVGID_1_" gradientUnits="userSpaceOnUse" x1="1012.0552" y1="264.2414" x2="1012.0552" y2="541.2415" gradientTransform="matrix(1.0794 0 0 -1.0794 -74.5234 813.0734)">
				<stop offset="0" style="stop-color:#29DDB5"></stop>
				<stop offset="1" style="stop-color:#43FFAE"></stop>
			</linearGradient>
			<path class="st0" d="M992,228.8h51.8c3,0,5.4,2.4,5.4,5.4v287.1c0,3-2.4,5.4-5.4,5.4H992c-3,0-5.4-2.4-5.4-5.4V234.2     C986.6,231.3,989,228.8,992,228.8z"></path>
			
				<linearGradient id="SVGID_00000047036635138120523950000004927300683102810766_" gradientUnits="userSpaceOnUse" x1="1239.0552" y1="266.2414" x2="1239.0552" y2="480.2414" gradientTransform="matrix(1.0794 0 0 -1.0794 -74.5234 813.0734)">
				<stop offset="0" style="stop-color:#29DDB5"></stop>
				<stop offset="1" style="stop-color:#43FFAE"></stop>
			</linearGradient>
			<path style="fill-rule:evenodd;clip-rule:evenodd;fill:url(#SVGID_00000047036635138120523950000004927300683102810766_);" d="     M1161.5,294.7h202.9c30.2,0,56.1,24.8,56.1,56.1v119.8c0,30.2-24.8,56.1-56.1,56.1h-202.9c-30.2,0-56.1-24.8-56.1-56.1V350.8     C1105.4,320.6,1130.2,294.7,1161.5,294.7z M1194.9,345.4H1332c17.3,0,31.3,14,31.3,31.3v66.9c0,17.3-14,31.3-31.3,31.3h-137.1     c-17.3,0-31.3-14-31.3-31.3v-66.9C1163.6,359.5,1177.7,345.4,1194.9,345.4z"></path>
			
				<linearGradient id="SVGID_00000127018898129967288640000005587568697306605989_" gradientUnits="userSpaceOnUse" x1="1573.0552" y1="264.2414" x2="1573.0552" y2="541.2415" gradientTransform="matrix(1.0794 0 0 -1.0794 -74.5234 813.0734)">
				<stop offset="0" style="stop-color:#29DDB5"></stop>
				<stop offset="1" style="stop-color:#43FFAE"></stop>
			</linearGradient>
			<path style="fill-rule:evenodd;clip-rule:evenodd;fill:url(#SVGID_00000127018898129967288640000005587568697306605989_);" d="     M1597.6,228.8h51.8h141.4c3.2,0,5.4,2.2,5.4,5.4V286c0,3.2-2.2,5.4-5.4,5.4h-136v231c0,3.2-2.2,5.4-5.4,5.4h-51.8     c-3.2,0-5.4-2.2-5.4-5.4v-231h-136c-3.2,0-5.4-2.2-5.4-5.4v-51.8c0-3.2,2.2-5.4,5.4-5.4H1597.6z"></path>
			
				<linearGradient id="SVGID_00000051353881764327176490000006503989830934087854_" gradientUnits="userSpaceOnUse" x1="2214.5552" y1="260.2414" x2="2214.5552" y2="544.2415" gradientTransform="matrix(1.0794 0 0 -1.0794 -74.5234 813.0734)">
				<stop offset="0" style="stop-color:#29DDB5"></stop>
				<stop offset="1" style="stop-color:#43FFAE"></stop>
			</linearGradient>
			<path style="fill-rule:evenodd;clip-rule:evenodd;fill:url(#SVGID_00000051353881764327176490000006503989830934087854_);" d="     M2429.8,225.6h51.8c1.1,0,3.2,0,4.3,1.1c2.2,1.1,3.2,2.2,3.2,4.3c0,1.1,0,3.2,0,4.3l0,0c0,1.1-1.1,3.2-3.2,4.3l-131.7,133.8     l141.4,144.6c1.1,1.1,2.2,3.2,3.2,4.3c0,0,0,0,0,1.1c0,1.1,0,2.2,0,3.2c0,2.2-1.1,3.2-3.2,4.3l0,0c-1.1,0-2.2,1.1-3.2,1.1h-51.8     c-2.2,0-5.4-1.1-7.6-2.2c-2.2-1.1-4.3-3.2-6.5-4.3l-110.1-112.3l-110.1,112.3c-2.2,2.2-4.3,3.2-6.5,4.3c-2.2,1.1-5.4,2.2-7.6,2.2     h-51.8c-1.1,0-3.2,0-4.3-1.1l0,0c-2.2-1.1-3.2-2.2-3.2-4.3c0-1.1,0-3.2,0-4.3c0-1.1,1.1-3.2,3.2-4.3l141.4-144.6l-131.7-133.8     c-1.1-1.1-2.2-3.2-3.2-4.3c0,0,0,0,0-1.1s0-2.2,0-3.2c0-2.2,1.1-3.2,3.2-4.3l0,0c1.1,0,2.2-1.1,3.2-1.1h51.8     c2.2,0,5.4,1.1,7.6,2.2s4.3,3.2,6.5,4.3l100.4,102.5l100.4-102.5c2.2-2.2,4.3-3.2,6.5-4.3     C2424.4,226.7,2427.7,225.6,2429.8,225.6z"></path>
			
				<linearGradient id="SVGID_00000003785861168838507590000000201213140581341600_" gradientUnits="userSpaceOnUse" x1="1890.0486" y1="265.2414" x2="1890.0486" y2="479.2414" gradientTransform="matrix(1.0794 0 0 -1.0794 -74.5234 813.0734)">
				<stop offset="0" style="stop-color:#29DDB5"></stop>
				<stop offset="1" style="stop-color:#43FFAE"></stop>
			</linearGradient>
			<path style="fill-rule:evenodd;clip-rule:evenodd;fill:url(#SVGID_00000003785861168838507590000000201213140581341600_);" d="     M2103.8,526.8v-49.7h-205.1c0,0-20.5-1.1-20.5-24.8c-1.1-23.7-1.1-23.7-1.1-23.7h223.4c0,0,11.9,1.1,11.9-18.4     c0-19.4-2.2-79.9-2.2-79.9s0-34.5-50.7-33.5s-181.3,1.1-181.3,1.1s-60.4,3.2-59.4,56.1c1.1,54,1.1,115.5,1.1,115.5     s-6.5,57.2,63.7,57.2c70.2,0,220.2,2.2,220.2,2.2V526.8z M1877.2,389.7h173.8v-32.4c0,0,1.1-14-11.9-14s-129.5,0-134.9,0     c-4.3,0-27,2.2-28.1,22.7v24.8L1877.2,389.7z"></path>
		</g>
		<g>
			
				<linearGradient id="SVGID_00000166657076358534736050000016623953839872649401_" gradientUnits="userSpaceOnUse" x1="594.5552" y1="583.2415" x2="594.5552" y2="753.2415" gradientTransform="matrix(1.0794 0 0 -1.0794 -74.5234 813.0734)">
				<stop offset="0" style="stop-color:#2ADEB4"></stop>
				<stop offset="1" style="stop-color:#44FCB1"></stop>
			</linearGradient>
			<polygon style="fill:url(#SVGID_00000166657076358534736050000016623953839872649401_);" points="487.9,0 487.9,183.5      646.6,91.8    "></polygon>
			<polygon class="st6" points="646.6,457.7 646.6,641.2 806.4,549.4    "></polygon>
			<polygon class="st7" points="77.7,177 77.7,359.5 236.4,268.8    "></polygon>
			<polygon class="st8" points="277.4,245 277.4,428.5 436.1,336.8    "></polygon>
			<polygon class="st9" points="159.8,360.5 159.8,544 318.4,452.3    "></polygon>
			<polygon class="st10" points="264.5,498.7 264.5,682.2 423.2,590.4    "></polygon>
			
				<linearGradient id="SVGID_00000130621487234134262180000004497329404696449694_" gradientUnits="userSpaceOnUse" x1="386.7578" y1="601.3216" x2="437.7578" y2="441.3216" gradientTransform="matrix(1.0794 0 0 -1.0794 -74.5234 813.0734)">
				<stop offset="0" style="stop-color:#3AF3B1"></stop>
				<stop offset="1" style="stop-color:#2CDFB5"></stop>
			</linearGradient>
			<polygon style="fill:url(#SVGID_00000130621487234134262180000004497329404696449694_);fill-opacity:0.902;" points="     304.4,154.4 304.4,337.9 463.1,246.1    "></polygon>
			<polygon class="st12" points="304.4,77.7 304.4,261.2 145.7,169.5    "></polygon>
			<polygon class="st13" points="487.9,365.9 487.9,549.4 329.2,457.7    "></polygon>
			
				<linearGradient id="SVGID_00000159460382849197499940000001227767841549518500_" gradientUnits="userSpaceOnUse" x1="704.1103" y1="574.3628" x2="822.1103" y2="471.3628" gradientTransform="matrix(1.0794 0 0 -1.0794 -74.5234 813.0734)">
				<stop offset="0" style="stop-color:#42FCAF"></stop>
				<stop offset="1" style="stop-color:#35E3B6"></stop>
			</linearGradient>
			<polygon style="fill:url(#SVGID_00000159460382849197499940000001227767841549518500_);" points="806.4,183.5 806.4,365.9      646.6,274.2    "></polygon>
			<polygon class="st15" points="646.6,457.7 646.6,641.2 487.9,549.4    "></polygon>
			<polygon class="st7" points="453.4,534.3 453.4,716.7 293.6,626.1    "></polygon>
			
				<linearGradient id="SVGID_00000057860229093686574050000001026791718175190669_" gradientUnits="userSpaceOnUse" x1="555.8381" y1="659.2528" x2="674.8381" y2="556.2528" gradientTransform="matrix(1.0794 0 0 -1.0794 -74.5234 813.0734)">
				<stop offset="0" style="stop-color:#3AF3B1"></stop>
				<stop offset="1" style="stop-color:#2CDFB5"></stop>
			</linearGradient>
			<polygon style="fill:url(#SVGID_00000057860229093686574050000001026791718175190669_);" points="646.6,91.8 646.6,274.2      487.9,183.5    "></polygon>
			
				<linearGradient id="SVGID_00000072991184330962513780000002135584530245894787_" gradientUnits="userSpaceOnUse" x1="104.8381" y1="365.2528" x2="223.8381" y2="262.2528" gradientTransform="matrix(1.0794 0 0 -1.0794 -74.5234 813.0734)">
				<stop offset="0" style="stop-color:#90F5D4"></stop>
				<stop offset="1" style="stop-color:#8FEED6"></stop>
			</linearGradient>
			<polygon style="fill:url(#SVGID_00000072991184330962513780000002135584530245894787_);" points="159.8,409.1 159.8,591.5      1.1,500.9    "></polygon>
			
				<linearGradient id="SVGID_00000162315271599691943620000012359230643157773489_" gradientUnits="userSpaceOnUse" x1="662.0001" y1="611.1201" x2="780.0001" y2="508.12" gradientTransform="matrix(1.0794 0 0 -1.0794 -74.5234 813.0734)">
				<stop offset="0" style="stop-color:#53FDB7"></stop>
				<stop offset="1" style="stop-color:#43E6BB"></stop>
			</linearGradient>
			<polygon style="fill:url(#SVGID_00000162315271599691943620000012359230643157773489_);" points="646.6,91.8 646.6,274.2      806.4,183.5    "></polygon>
			<polygon class="st6" points="806.4,549.4 806.4,365.9 646.6,457.7    "></polygon>
			
				<linearGradient id="SVGID_00000018938098308511923570000017764730634282692495_" gradientUnits="userSpaceOnUse" x1="538.1448" y1="561.6069" x2="616.1448" y2="416.6069" gradientTransform="matrix(1.0794 0 0 -1.0794 -74.5234 813.0734)">
				<stop offset="0" style="stop-color:#7AFEC7"></stop>
				<stop offset="1" style="stop-color:#66E7C9"></stop>
			</linearGradient>
			<polygon style="fill:url(#SVGID_00000018938098308511923570000017764730634282692495_);" points="487.9,183.5 487.9,365.9      646.6,274.2    "></polygon>
			<polygon class="st6" points="487.9,549.4 487.9,365.9 646.6,457.7    "></polygon>
			<polygon class="st6" points="646.6,457.7 646.6,274.2 806.4,365.9    "></polygon>
			<polygon class="st6" points="646.6,457.7 646.6,274.2 487.9,365.9    "></polygon>
			
				<linearGradient id="SVGID_00000060011948931112391510000015601001029254812334_" gradientUnits="userSpaceOnUse" x1="662.2478" y1="441.4038" x2="780.2478" y2="338.4038" gradientTransform="matrix(1.0794 0 0 -1.0794 -74.5234 813.0734)">
				<stop offset="0" style="stop-color:#53FDB7"></stop>
				<stop offset="1" style="stop-color:#43E6BB"></stop>
			</linearGradient>
			<polygon style="fill:url(#SVGID_00000060011948931112391510000015601001029254812334_);" points="646.6,274.2 646.6,457.7      806.4,365.9    "></polygon>
			
				<linearGradient id="SVGID_00000031183777523267441190000015141983672753900432_" gradientUnits="userSpaceOnUse" x1="581.3526" y1="498.1612" x2="632.3526" y2="338.1612" gradientTransform="matrix(1.0794 0 0 -1.0794 -74.5234 813.0734)">
				<stop offset="0" style="stop-color:#3AF3B1"></stop>
				<stop offset="1" style="stop-color:#2CDFB5"></stop>
			</linearGradient>
			<polygon style="fill:url(#SVGID_00000031183777523267441190000015141983672753900432_);" points="646.6,274.2 646.6,457.7      487.9,365.9    "></polygon>
			
				<linearGradient id="SVGID_00000085964377893222040280000009920484228538916009_" gradientUnits="userSpaceOnUse" x1="703.8625" y1="405.079" x2="821.8626" y2="302.079" gradientTransform="matrix(1.0794 0 0 -1.0794 -74.5234 813.0734)">
				<stop offset="0" style="stop-color:#42FCAF"></stop>
				<stop offset="1" style="stop-color:#35E3B6"></stop>
			</linearGradient>
			<polygon style="fill:url(#SVGID_00000085964377893222040280000009920484228538916009_);" points="806.4,365.9 806.4,549.4      646.6,457.7    "></polygon>
			
				<linearGradient id="SVGID_00000039829841457614539180000009231503188341952687_" gradientUnits="userSpaceOnUse" x1="538.0023" y1="392.5967" x2="616.0023" y2="246.5968" gradientTransform="matrix(1.0794 0 0 -1.0794 -74.5234 813.0734)">
				<stop offset="0" style="stop-color:#7AFEC7"></stop>
				<stop offset="1" style="stop-color:#66E7C9"></stop>
			</linearGradient>
			<polygon style="fill:url(#SVGID_00000039829841457614539180000009231503188341952687_);" points="487.9,365.9 487.9,549.4      646.6,457.7    "></polygon>
			
				<linearGradient id="SVGID_00000085242998086183352580000010757006454973284002_" gradientUnits="userSpaceOnUse" x1="704.9555" y1="320.4603" x2="754.9555" y2="160.4603" gradientTransform="matrix(1.0794 0 0 -1.0794 -74.5234 813.0734)">
				<stop offset="0" style="stop-color:#3AF3B1"></stop>
				<stop offset="1" style="stop-color:#2CDFB5"></stop>
			</linearGradient>
			<polygon style="fill:url(#SVGID_00000085242998086183352580000010757006454973284002_);" points="646.6,457.7 646.6,641.2      806.4,549.4    "></polygon>
			
				<linearGradient id="SVGID_00000109002976051743466150000017422076897223840135_" gradientUnits="userSpaceOnUse" x1="349.7578" y1="282.3216" x2="400.7578" y2="122.3216" gradientTransform="matrix(1.0794 0 0 -1.0794 -74.5234 813.0734)">
				<stop offset="0" style="stop-color:#3AF3B1"></stop>
				<stop offset="1" style="stop-color:#2CDFB5"></stop>
			</linearGradient>
			<polygon style="fill:url(#SVGID_00000109002976051743466150000017422076897223840135_);" points="264.5,498.7 264.5,682.2      423.2,590.4    "></polygon>
			
				<linearGradient id="SVGID_00000025438605674633711930000012805067071113374911_" gradientUnits="userSpaceOnUse" x1="419.71" y1="588.7103" x2="516.71" y2="717.7103" gradientTransform="matrix(1.0794 0 0 -1.0794 -74.5234 813.0734)">
				<stop offset="0" style="stop-color:#56E7C4"></stop>
				<stop offset="1" style="stop-color:#68FEBF"></stop>
			</linearGradient>
			<polygon style="fill:url(#SVGID_00000025438605674633711930000012805067071113374911_);" points="487.9,0 487.9,183.5      329.2,91.8    "></polygon>
			
				<linearGradient id="SVGID_00000148632741523441514400000013680487786252440250_" gradientUnits="userSpaceOnUse" x1="223.7679" y1="361.5062" x2="321.7679" y2="490.5062" gradientTransform="matrix(1.0794 0 0 -1.0794 -74.5234 813.0734)">
				<stop offset="0" style="stop-color:#36E1B7"></stop>
				<stop offset="1" style="stop-color:#68FEBF"></stop>
			</linearGradient>
			<polygon style="fill:url(#SVGID_00000148632741523441514400000013680487786252440250_);" points="277.4,245 277.4,428.5      117.7,336.8    "></polygon>
			
				<linearGradient id="SVGID_00000112599644983010558190000018165830739344095417_" gradientUnits="userSpaceOnUse" x1="396.71" y1="432.7103" x2="493.71" y2="561.7103" gradientTransform="matrix(1.0794 0 0 -1.0794 -74.5234 813.0734)">
				<stop offset="0" style="stop-color:#56E7C4"></stop>
				<stop offset="1" style="stop-color:#68FEBF"></stop>
			</linearGradient>
			<polygon style="fill:url(#SVGID_00000112599644983010558190000018165830739344095417_);" points="463.1,168.4 463.1,351.9      304.4,260.1    "></polygon>
			
				<linearGradient id="SVGID_00000157308720557662888200000006616598532650270371_" gradientUnits="userSpaceOnUse" x1="386.7578" y1="601.3216" x2="437.7578" y2="441.3216" gradientTransform="matrix(1.0794 0 0 -1.0794 -74.5234 813.0734)">
				<stop offset="0" style="stop-color:#3AF3B1"></stop>
				<stop offset="1" style="stop-color:#2CDFB5"></stop>
			</linearGradient>
			<polygon style="fill:url(#SVGID_00000157308720557662888200000006616598532650270371_);" points="304.4,154.4 304.4,337.9      463.1,246.1    "></polygon>
			
				<linearGradient id="SVGID_00000150071056607933334080000005085489254556423573_" gradientUnits="userSpaceOnUse" x1="361.9593" y1="587.197" x2="230.9593" y2="667.1969" gradientTransform="matrix(1.0794 0 0 -1.0794 -74.5234 813.0734)">
				<stop offset="0" style="stop-color:#82EFD2"></stop>
				<stop offset="1" style="stop-color:#8EFECF"></stop>
			</linearGradient>
			<polygon style="fill:url(#SVGID_00000150071056607933334080000005085489254556423573_);" points="304.4,77.7 304.4,261.2      145.7,169.5    "></polygon>
			
				<linearGradient id="SVGID_00000083079218479551096240000004118762562503288465_" gradientUnits="userSpaceOnUse" x1="537.5186" y1="196.9927" x2="614.5186" y2="50.9927" gradientTransform="matrix(1.0794 0 0 -1.0794 -74.5234 813.0734)">
				<stop offset="0" style="stop-color:#7AFEC7"></stop>
				<stop offset="1" style="stop-color:#66E7C9"></stop>
			</linearGradient>
			<polygon style="fill:url(#SVGID_00000083079218479551096240000004118762562503288465_);" points="486.8,577.5 486.8,761      645.5,669.2    "></polygon>
		</g>
	</g>
</g>
</svg>
