<?xml version="1.0" encoding="utf-8"?>
<!-- Generator: Adobe Illustrator 26.0.3, SVG Export Plug-In . SVG Version: 6.00 Build 0)  -->
<svg version="1.0" id="katman_1" xmlns="http://www.w3.org/2000/svg" xmlns:xlink="http://www.w3.org/1999/xlink" x="0px" y="0px"
	 viewBox="0 0 600 450" style="enable-background:new 0 0 600 450;" xml:space="preserve">
<style type="text/css">
	.st0{fill:#946BAB;}
</style>
<path d="M70.7,260.5c-0.7,0-1.3-0.3-1.8-0.7c-0.4-0.6-0.7-1.1-0.7-1.8v-65.1c0-0.8,0.3-1.3,0.7-1.8c0.5-0.6,1.1-0.8,1.8-0.8h28.4
	c8.7,0,15.5,2,20.5,5.9c4.9,3.9,7.4,9.7,7.4,17.3c0,7.6-2.5,13.3-7.4,17.1c-4.9,3.8-11.8,5.6-20.5,5.6H87.6v21.6
	c0,0.7-0.3,1.3-0.7,1.8c-0.4,0.4-1.1,0.7-1.8,0.7L70.7,260.5L70.7,260.5z M98.6,222c2.8,0,4.9-0.7,6.4-2.1c1.6-1.5,2.4-3.6,2.4-6.4
	c0-2.6-0.8-4.7-2.2-6.3c-1.4-1.6-3.6-2.4-6.6-2.4H87.3V222H98.6z M126,260.5c-0.6,0-1.1-0.2-1.5-0.6c-0.4-0.4-0.6-1-0.6-1.5
	c0-0.4,0.1-0.7,0.1-0.9l23.3-64.3c0.7-1.9,2-2.9,4-2.9h15.6c2,0,3.3,1,4,2.9l23.4,64.3c0.1,0.2,0.1,0.5,0.1,0.9
	c0,0.6-0.3,1.1-0.7,1.5c-0.4,0.4-0.9,0.6-1.4,0.6h-13.1c-1.6,0-2.8-0.8-3.4-2.2l-3.6-9.8H146l-3.6,9.8c-0.7,1.5-1.8,2.2-3.4,2.2H126
	z M150.2,233.5h17.9l-8.9-25.6L150.2,233.5z M203.1,260.5c-0.7,0-1.3-0.3-1.8-0.7c-0.4-0.6-0.7-1.1-0.7-1.8v-65.1
	c0-0.8,0.3-1.3,0.7-1.8c0.4-0.6,1.1-0.8,1.8-0.8h27.6c8.8,0,15.7,2,20.6,6c5,4,7.5,9.7,7.5,16.9c0,4.7-1.1,8.6-3.3,11.9
	c-2.1,3.3-5.1,5.8-8.9,7.6l13.6,24.5c0.2,0.4,0.3,0.8,0.3,1.1c0,0.6-0.2,1.1-0.6,1.5c-0.4,0.4-0.9,0.6-1.5,0.6h-14.1
	c-1.9,0-3.3-0.9-4.1-2.7L229,236h-9.6v22c0,0.8-0.3,1.3-0.8,1.8c-0.4,0.4-1.1,0.7-1.8,0.7H203.1z M230.5,221.3
	c2.9,0,5.1-0.7,6.5-2.1c1.6-1.5,2.3-3.5,2.3-6c0-2.5-0.8-4.6-2.3-6.1c-1.5-1.6-3.6-2.3-6.5-2.3h-11.1v16.6H230.5z M264.9,260.5
	c-0.6,0-1.1-0.2-1.5-0.6c-0.4-0.4-0.6-1-0.6-1.5c0-0.4,0.1-0.7,0.1-0.9l23.3-64.3c0.7-1.9,2-2.9,4-2.9h15.6c2,0,3.3,1,4,2.9
	l23.5,64.3c0.1,0.2,0.1,0.5,0.1,0.9c0,0.6-0.3,1.1-0.7,1.5c-0.4,0.4-0.9,0.6-1.4,0.6h-13.1c-1.6,0-2.8-0.8-3.4-2.2l-3.6-9.8H285
	l-3.6,9.8c-0.7,1.5-1.8,2.2-3.4,2.2H264.9z M289.2,233.5h17.9l-8.9-25.6L289.2,233.5z"/>
<path class="st0" d="M368.9,261.5c-9.7,0-17.3-2.3-22.8-7c-5.5-4.8-8.4-11.5-8.8-20.3c-0.1-1.9-0.1-4.9-0.1-9.1s0.1-7.3,0.1-9.3
	c0.3-8.4,3.2-14.9,8.8-19.6c5.6-4.7,13.2-7,22.8-7c6.4,0,12,1.1,16.8,3.1c4.8,2.1,8.4,4.8,10.9,8c2.6,3.2,3.9,6.5,4,9.9
	c0,0.6-0.3,1.1-0.7,1.6c-0.4,0.4-0.9,0.6-1.5,0.6h-15.6c-0.7,0-1.2-0.1-1.6-0.3c-0.3-0.3-0.7-0.6-1-1.1c-0.8-1.9-2.1-3.5-3.9-4.8
	c-1.8-1.3-4.2-2-7.4-2c-7.8,0-11.8,4-12,12c-0.1,1.9-0.1,4.8-0.1,8.6c0,3.9,0.1,6.8,0.1,8.8c0.3,8.5,4.4,12.8,12.3,12.8
	c3.9,0,6.9-1,9.3-2.9c2.3-1.9,3.4-4.9,3.4-8.8v-1.8h-8.9c-0.8,0-1.4-0.3-1.9-0.7c-0.5-0.6-0.7-1.2-0.7-1.9v-7.9
	c0-0.8,0.3-1.3,0.7-1.8c0.6-0.6,1.2-0.8,1.9-0.8h25.5c0.8,0,1.3,0.3,1.8,0.8c0.6,0.4,0.8,1.1,0.8,1.8v11.6c0,5.7-1.3,10.6-4,14.8
	c-2.6,4.1-6.3,7.2-11.1,9.4C380.9,260.4,375.3,261.5,368.9,261.5z M475.9,260.5c-0.7,0-1.3-0.3-1.8-0.7c-0.5-0.6-0.7-1.1-0.7-1.8
	v-65.1c0-0.8,0.3-1.3,0.7-1.8c0.4-0.6,1.1-0.8,1.8-0.8h11.3c1.6,0,2.7,0.6,3.4,1.9l23.7,37.4v-36.6c0-0.8,0.2-1.3,0.7-1.8
	c0.4-0.6,1.1-0.8,1.8-0.8h12.8c0.8,0,1.3,0.3,1.8,0.8c0.4,0.4,0.7,1.1,0.7,1.8v65c0,0.8-0.3,1.4-0.7,1.9c-0.5,0.4-1.1,0.7-1.8,0.7
	h-11.3c-1.6,0-2.7-0.6-3.4-1.9l-23.6-35.9V258c0,0.8-0.3,1.3-0.8,1.8c-0.5,0.4-1.1,0.7-1.8,0.7H475.9z"/>
<path class="st0" d="M410.3,191.8c0-0.8,0.7-1.5,1.5-1.5h43.4c4.2,0,7.7,3.4,7.7,7.7v6.2c0,0.8-0.7,1.5-1.5,1.5H418
	c-4.2,0-7.7-3.4-7.7-7.7V191.8z"/>
<path class="st0" d="M410.3,246.7c0-0.8,0.7-1.5,1.5-1.5h43.4c4.2,0,7.7,3.4,7.7,7.7v6.2c0,0.8-0.7,1.5-1.5,1.5H418
	c-4.2,0-7.7-3.4-7.7-7.7V246.7z"/>
<path class="st0" d="M410.3,218.9c0-0.8,0.7-1.5,1.5-1.5h36c4.2,0,7.7,3.4,7.7,7.7v6.2c0,0.8-0.7,1.5-1.5,1.5h-36
	c-4.2,0-7.7-3.4-7.7-7.7V218.9z"/>
</svg>
