<?xml version="1.0" encoding="utf-8"?>
<!-- Generator: Adobe Illustrator 26.0.3, SVG Export Plug-In . SVG Version: 6.00 Build 0)  -->
<svg version="1.0" id="katman_1" xmlns="http://www.w3.org/2000/svg" xmlns:xlink="http://www.w3.org/1999/xlink" x="0px" y="0px"
	 viewBox="0 0 800 600" style="enable-background:new 0 0 800 600;" xml:space="preserve">
<style type="text/css">
	.st0{fill-rule:evenodd;clip-rule:evenodd;}
	.st1{fill:#F35165;}
</style>
<path d="M225.6,329.9c-5.1,5.1-12,7.6-20.6,7.6c-8.6,0-15.5-2.5-20.6-7.6c-5.2-5.1-7.7-11.6-7.7-19.5c0-7.9,2.6-14.4,7.7-19.5
	c5.2-5.1,12-7.6,20.6-7.6c8.6,0,15.5,2.5,20.6,7.6c5.1,5.1,7.7,11.6,7.7,19.5C233.3,318.3,230.7,324.8,225.6,329.9L225.6,329.9z
	 M205,323.7c3.7,0,6.7-1.2,8.9-3.7c2.2-2.5,3.3-5.7,3.3-9.6c0-4-1.1-7.2-3.3-9.7c-2.2-2.5-5.2-3.7-8.9-3.7c-3.8,0-6.8,1.2-8.9,3.7
	s-3.2,5.7-3.2,9.7c0,4,1.1,7.2,3.2,9.7C198.2,322.5,201.2,323.7,205,323.7L205,323.7z M240.6,336v-74.4h16.2V336H240.6z M318.3,336
	h-19.8l-16.2-22.2V336h-16.2v-74.4h16.2v44.5l16.6-21.3H318l-20.3,24.2L318.3,336z"/>
<path d="M341.4,337.4c-7.4,0-13.3-2.5-17.6-7.6s-6.5-11.5-6.5-19.4c0-7.8,2.2-14.2,6.7-19.3c4.4-5.1,10.3-7.6,17.6-7.6
	c3.4,0,6.7,0.8,9.6,2.3c2.7,1.5,4.9,3.7,6.4,6.4v-7.3h16.1V336h-16.1v-7.2c-1.4,2.5-3.6,4.6-6.5,6.2
	C348.1,336.6,344.8,337.4,341.4,337.4z M346.1,323.9c3.9,0,6.9-1.3,9-3.8c2.2-2.5,3.2-5.8,3.2-9.7c0-3.8-1.1-7-3.2-9.5
	c-2.1-2.5-5.1-3.8-9-3.8c-3.7,0-6.6,1.2-8.8,3.7c-2.2,2.5-3.4,5.7-3.4,9.6c0,4,1.1,7.2,3.4,9.7C339.4,322.6,342.4,323.9,346.1,323.9
	z M404.9,337.6c-7.3,0-13.2-1.6-17.6-4.8c-4.4-3.2-6.6-7.3-6.6-12.2h16.1c0,1.8,0.8,3.2,2.3,4.4c1.6,1.1,3.6,1.7,6,1.7
	c1.8,0,3.2-0.4,4.3-1.3c1.1-0.8,1.7-2.1,1.7-3.5c0-2.3-1.2-3.8-3.7-4.4l-12.5-3.2c-4.2-1.1-7.3-2.9-9.5-5.4
	c-2.2-2.6-3.3-5.7-3.3-9.3c0-4.8,2-8.7,5.9-11.7c3.9-3,9.3-4.5,15.9-4.5c7.3,0,13,1.4,16.9,4.2c3.9,2.8,5.9,6.8,5.9,11.7h-16
	c0.1-1.6-0.6-3.1-1.9-4.2c-1.2-1-2.9-1.5-5.1-1.5c-1.8,0-3.2,0.4-4.2,1.2c-1,0.7-1.6,1.8-1.6,3.1c0,2.3,1.4,3.8,4.3,4.6l12.1,3.3
	c4,1.1,7.2,2.8,9.5,5.3c2.3,2.4,3.5,5.6,3.4,9c0,5.3-2,9.6-6,12.8C417.3,335.9,411.8,337.6,404.9,337.6z M457.9,323.3
	c1.9,0,3.8-0.1,5.6-0.3v12.9c-3.6,0.6-7.2,0.9-10.8,0.8c-1.6,0-3.3-0.1-4.9-0.3c-1.6-0.3-3.2-0.8-4.8-1.4c-1.7-0.7-3.1-1.7-4.3-3
	c-1.1-1.3-2.1-3.1-2.9-5.5c-0.9-2.7-1.3-5.6-1.2-8.5v-56h16.2v22.9h11.5v12.9h-11.5v17c0,3.5,0.6,5.8,1.8,7
	C453.8,322.8,455.6,323.4,457.9,323.3L457.9,323.3z M493,337.4c-7.4,0-13.3-2.5-17.6-7.6c-4.3-5-6.5-11.5-6.5-19.4
	c0-7.8,2.2-14.2,6.7-19.3c4.5-5.1,10.3-7.6,17.6-7.6c3.4-0.1,6.7,0.7,9.6,2.3c2.7,1.4,4.9,3.7,6.3,6.4v-7.3h16.1V336h-16.1v-7.2
	c-1.4,2.5-3.6,4.6-6.5,6.2C499.7,336.6,496.4,337.4,493,337.4z M497.7,323.9c3.9,0,6.9-1.3,9-3.8c2.1-2.5,3.2-5.8,3.2-9.7
	c0-3.8-1.1-7-3.2-9.5c-2.1-2.5-5.1-3.8-9-3.8c-3.7,0-6.6,1.2-8.8,3.7c-2.2,2.5-3.4,5.7-3.4,9.6c0,4,1.1,7.2,3.4,9.7
	C491,322.6,494,323.9,497.7,323.9z M532.6,336v-51.2h16.2v10.7c0.8-3.7,2.6-6.5,5.3-8.5c2.5-2,5.6-3,8.8-3c1.4,0,2.9,0.1,4.2,0.4
	v15.1c-1.6-0.2-3.2-0.3-4.9-0.3c-9,0-13.4,5.7-13.4,17.1v19.8C548.8,335.9,532.6,336,532.6,336z M597.9,323.3c1.9,0,3.8-0.1,5.6-0.3
	v12.9c-3.6,0.6-7.2,0.9-10.8,0.8c-1.6,0-3.3-0.1-4.9-0.3c-1.6-0.3-3.2-0.8-4.8-1.4c-1.7-0.7-3.1-1.7-4.3-3c-1.1-1.3-2.1-3.1-2.9-5.5
	c-0.9-2.7-1.3-5.6-1.2-8.5v-56h16.2v22.9h11.5v12.9h-11.5v17c0,3.5,0.6,5.8,1.8,7C593.8,322.8,595.6,323.4,597.9,323.3z
	 M663.1,307.7c0,2.4-0.2,4.8-0.4,7.1H625c0.1,3.3,1.3,5.9,3.4,7.8c2.1,1.9,5,2.8,8.6,2.7c4.9,0,8.1-1.6,9.5-4.8h15.9
	c-0.8,5-3.5,9.1-8.2,12.3c-4.7,3.2-10.4,4.7-17.2,4.7c-8.7,0-15.5-2.4-20.6-7.2c-5-4.8-7.5-11.5-7.5-20c0-8.3,2.5-14.9,7.5-19.8
	c5-4.9,11.7-7.3,20-7.3c7.9,0,14.3,2.3,19.3,6.8C660.6,294.6,663.1,300.5,663.1,307.7z M625,304.7h22.1c-0.1-3.4-1-6-2.9-7.8
	c-1.8-1.8-4.5-2.7-7.9-2.7c-3.5,0-6.2,1-8.2,2.9C626.1,299,625.1,301.5,625,304.7z M670.5,336v-51.2h16.2v10.7
	c0.8-3.7,2.6-6.5,5.3-8.5c2.5-2,5.6-3,8.8-3c1.4,0,2.9,0.1,4.2,0.4v15.1c-1.6-0.2-3.2-0.3-4.9-0.3c-9,0-13.4,5.7-13.4,17.1v19.8
	L670.5,336z"/>
<path class="st0" d="M166.4,269.2c-5-5.1-11.4-7.6-19-7.6h-31.5v30.5c7.1,2.3,11.9,8.8,11.8,16.3c0,7.4-4.8,14-11.8,16.3v11.3H133
	v-20.6h14.4c7.7,0,14-2.5,19-7.6c5-5.1,7.5-11.5,7.5-19.3S171.4,274.3,166.4,269.2z M153.3,297.7c-2.2,2.4-5,3.6-8.5,3.6H133v-25.7
	h11.7c3.5,0,6.3,1.2,8.5,3.6c2.2,2.4,3.3,5.5,3.3,9.2C156.6,292.2,155.5,295.3,153.3,297.7z"/>
<path class="st1" d="M107.1,321c6.9,0,12.4-5.6,12.4-12.5c0-6.9-5.6-12.4-12.4-12.4c-6.9,0-12.4,5.6-12.4,12.4
	C94.7,315.4,100.2,321,107.1,321L107.1,321z"/>
</svg>
