<?xml version="1.0" encoding="utf-8"?>
<!-- Generator: Adobe Illustrator 25.0.1, SVG Export Plug-In . SVG Version: 6.00 Build 0)  -->
<svg version="1.0" id="Layer_1" xmlns="http://www.w3.org/2000/svg" xmlns:xlink="http://www.w3.org/1999/xlink" x="0px" y="0px"
	 viewBox="0 0 868 564" style="enable-background:new 0 0 868 564;" xml:space="preserve">
<style type="text/css">
	.st0{fill:#4231C8;}
	.st1{fill:none;}
</style>
<path class="st0" d="M196.1,243.7l-14.9-8.7c-2.8-1.4-6.2-1.4-9,0l-14.9,8.7c-3.2,1.9-3.2,5,0,6.8l14.9,8.8c2.8,1.5,6.2,1.5,9,0
	l14.9-8.8c1.9-0.6,2.9-2.7,2.2-4.6C198,244.8,197.2,244,196.1,243.7z"/>
<path class="st0" d="M254.1,232.9l-71.8-41.3c-2.8-1.4-6.2-1.4-9,0l-71.8,41.3c-2.6,1.8-4.3,4.6-4.5,7.8v82.5c0.2,3.2,1.8,6,4.5,7.8
	l71.8,41.3c2.8,1.4,6.2,1.4,9,0l71.8-41.3c2.6-1.8,4.3-4.6,4.5-7.8v-82.5C258.4,237.6,256.7,234.7,254.1,232.9z M222.1,252.1
	l-40.9,24c-2.8,1.5-6.2,1.5-9,0L146.4,261c-3.2-1.9-5.9-0.4-5.9,3.3v46c0.3,2-1.1,3.9-3.1,4.2c-1,0.2-2-0.1-2.8-0.7l-4.4-2.3
	c-2.7-1.6-4.4-4.5-4.6-7.7v-50c0.2-3.1,1.8-6,4.5-7.8l42.2-24.5c2.8-1.4,6.2-1.4,9,0l40.9,23.6c1.9,0.5,3.1,2.4,2.7,4.3
	C224.5,250.8,223.4,251.8,222.1,252.1L222.1,252.1z"/>
<path class="st0" d="M343.3,340.4c-0.1-0.6,0.4-1.2,1-1.2c0,0,0,0,0,0c0.1,0,0.2,0,0.3,0h2.4c0.7,0,1.3,0.5,1.3,1.2v12.9
	c0,0.5-0.3,0.9-0.8,1.2l0,0c-9.8,7.3-23.7,5.2-30.9-4.6s-5.2-23.7,4.6-30.9c6.1-4.5,14-5.6,21.1-2.9c2,0.8,5.9,2.5,5.9,4
	c0.1,0.2,0.1,0.4,0,0.6l-1.2,2.1c-0.2,0.4-0.6,0.6-1,0.6c-0.4,0-0.8-0.2-1.1-0.4c-3-2.2-6.6-3.3-10.3-3.4
	c-9.4-0.1-17.1,7.4-17.2,16.8c-0.1,8.7,6.5,16.1,15.2,17.1c0.7,0,1.3,0,2,0c3.2,0.1,6.3-0.8,9-2.6L343.3,340.4z"/>
<path class="st0" d="M387.9,353.2c0.6,0,1.2,0.5,1.2,1.1c0,0,0,0,0,0c0,0.1,0,0.1,0,0.2v2.3c0,0.7-0.5,1.3-1.2,1.3h-24.6
	c-0.6,0.1-1.2-0.3-1.3-0.9c0,0,0,0,0,0c0-0.1,0-0.3,0-0.4v-40.3c0-0.7,0.5-1.3,1.2-1.3c0,0,0,0,0,0h2.5c0.7,0,1.2,0.5,1.2,1.1
	c0,0,0,0,0,0c0,0.1,0,0.1,0,0.2v36.7L387.9,353.2z"/>
<path class="st0" d="M440.4,336.8c-0.1,11.9-9.9,21.5-21.8,21.4s-21.5-9.9-21.4-21.8s9.9-21.5,21.8-21.4
	c11.8,0.1,21.3,9.6,21.4,21.4C440.5,336.5,440.5,336.6,440.4,336.8z M418.4,353.7c9.4,0,17-7.6,17-17c0-9.4-7.6-17-17-17
	c-9.3,0-16.9,7.6-17,16.9v0.1C401.4,346,409,353.6,418.4,353.7L418.4,353.7z"/>
<path class="st0" d="M479.5,335.1c5.9,3.5,7.8,11,4.3,16.9c-2.2,3.6-6,5.9-10.2,6.1h-18.8c-0.7,0.1-1.3-0.4-1.4-1.1
	c0-0.1,0-0.1,0-0.2v-40.2c-0.1-0.7,0.3-1.3,1-1.4c0.1,0,0.2,0,0.3,0h17c6.1-0.4,11.4,4.3,11.8,10.5c0,0.2,0,0.5,0,0.7
	C483.5,329.8,482.1,332.9,479.5,335.1z M471.8,320.3h-13.4v13.3h13.4c3.7-0.1,6.7-3.1,6.6-6.9c0,0,0,0,0,0v-0.5
	c0-3.3-2.6-5.9-5.9-5.9L471.8,320.3z M458.4,338.3v14.9h15.3c4.1,0,7.4-3.3,7.4-7.4c0-4.1-3.3-7.4-7.4-7.4H458.4z"/>
<path class="st0" d="M500.4,356.9c-0.2,0.7-0.8,1.2-1.6,1.2h-2.5c-0.8,0-1.2,0-1.2-0.9c0-0.3,0-0.5,0-0.8c16.7-40,16.8-40,16.8-40.1
	c0.2-0.6,0.7-1.1,1.4-1.1h1.7c0.7,0,1.3,0.4,1.4,1.1l16.9,40.1c0,0.2,0,0.5,0,0.7c0,0.6-0.5,0.9-1.3,0.9h-2.5
	c-0.7,0-1.3-0.5-1.5-1.1l-3.4-8.3h-20.8L500.4,356.9z M505.7,343.8h16.9l-8.4-21.1L505.7,343.8z"/>
<path class="st0" d="M571.3,353.2c0.6,0,1.2,0.5,1.2,1.1v2.5c0,0.7-0.5,1.3-1.2,1.3h-24.6c-0.6,0.1-1.2-0.3-1.3-0.9c0,0,0,0,0,0
	c0-0.1,0-0.3,0-0.4v-40.3c0-0.7,0.5-1.3,1.2-1.3h2.6c0.6,0,1.2,0.5,1.2,1.1v36.9L571.3,353.2z"/>
<path class="st0" d="M311.4,208.8c-0.1-1.2,0.7-2.2,1.9-2.3c0,0,0,0,0,0c0.1,0,0.2,0,0.4,0h34.2c13.9,0.4,24.9,12,24.6,25.9
	c0.3,13.8-10.5,25.2-24.3,25.6h-16.3v25.3c0,1.6-0.8,2.4-2.5,2.4h-15.7c-1.6,0-2.2-0.8-2.2-2.4V208.8z M331.8,223.3V241h11.8
	c4.6-0.1,8.3-3.8,8.3-8.5c0,0,0,0,0,0c0-0.1,0-0.2,0-0.4c0.2-4.8-3.5-8.8-8.3-9L331.8,223.3z"/>
<path class="st0" d="M391.4,208.8c-0.1-1.2,0.8-2.3,2-2.3c0,0,0,0,0,0H429c14.3,0.5,25.6,12.3,25.3,26.6c-0.4,9-5.3,17.2-13,21.9
	l15.4,28.4c0.5,0.7,0.4,1.6-0.3,2.1c-0.3,0.2-0.6,0.3-1,0.3h-19.3c-1.5,0-2.1-0.4-2.9-2.2l-12.7-24.1H412v24
	c0.1,1.2-0.7,2.2-1.9,2.4c-0.2,0-0.3,0-0.5,0h-16c-1.5,0-2.2-0.8-2.2-2.4L391.4,208.8z M412,222.9v19.3h11.8
	c5.2-0.1,9.3-4.4,9.3-9.5c-0.1-5.2-4.2-9.5-9.5-9.7H412z"/>
<path class="st0" d="M511.9,205.3c22.5,0,40.8,18.2,40.9,40.7c0,22.5-18.2,40.8-40.7,40.9c-22.5,0-40.8-18.2-40.9-40.7
	C471.1,223.6,489.4,205.3,511.9,205.3C511.9,205.3,511.9,205.3,511.9,205.3L511.9,205.3z M511.9,267.2c11.2,0,20.2-9.1,20.2-20.2
	c0,0,0,0,0,0c0-0.3,0-0.6,0-0.9c-0.5-11.1-10-19.7-21.1-19.2c-11.1,0.5-19.7,10-19.2,21.1c0.5,10.4,8.8,18.7,19.2,19.2L511.9,267.2
	L511.9,267.2z"/>
<path class="st0" d="M574.1,209c-0.1-1.2,0.8-2.3,2-2.5h34.2c12.6,0,22.9,10.3,22.8,22.9c0,0,0,0,0,0l0,0c0.1,5-1.6,9.8-4.8,13.7
	c5.2,4.8,8.2,11.6,8.3,18.7c-0.1,13-10.6,23.6-23.6,23.8h-36.6c-1.1,0.1-2.2-0.7-2.3-1.8c0-0.1,0-0.3,0-0.4V209z M604.6,222.2h-9.8
	v15.6h9.6c4.2,0.3,7.9-2.8,8.2-7c0,0,0,0,0,0c0-0.2,0-0.5,0-0.7c0.1-4.3-3.4-7.8-7.7-7.9L604.6,222.2z M607.2,252.1h-12.4v17.7h12.4
	c4.7-0.3,8.4-4.3,8.3-9C615.4,256.2,611.8,252.4,607.2,252.1L607.2,252.1z"/>
<path class="st0" d="M661.4,208.8c0-1.6,0.7-2.4,2.2-2.4h16c1.2-0.1,2.2,0.7,2.4,1.9c0,0,0,0,0,0c0,0.2,0,0.3,0,0.5v74.5
	c0.1,1.2-0.7,2.2-1.9,2.4c-0.2,0-0.3,0-0.5,0h-16c-1.5,0-2.2-0.8-2.2-2.4V208.8z"/>
<path class="st0" d="M708.5,208.8c-0.2-1.1,0.6-2.2,1.7-2.4c0,0,0,0,0,0c0.2,0,0.4,0,0.6,0h57.8c1.1-0.1,2.2,0.7,2.3,1.8
	c0,0,0,0,0,0c0,0.2,0,0.4,0,0.6v13.6c0.1,1.2-0.7,2.2-1.9,2.3c0,0,0,0,0,0c-0.1,0-0.3,0-0.4,0h-18.9v58.6c0.1,1.2-0.7,2.2-1.8,2.4
	c0,0,0,0,0,0c-0.2,0-0.4,0-0.6,0h-15.4c-1.2,0.1-2.2-0.7-2.3-1.9c0-0.2,0-0.3,0-0.5v-58.5h-18.8c-1.2,0.1-2.2-0.7-2.4-1.9
	c0,0,0,0,0,0c0-0.2,0-0.3,0-0.5L708.5,208.8z"/>
<rect x="59" y="163" class="st1" width="750" height="238"/>
</svg>
