<svg id="Layer_1" data-name="Layer 1" xmlns="http://www.w3.org/2000/svg" xmlns:xlink="http://www.w3.org/1999/xlink" viewBox="0 0 500 500"><defs><linearGradient id="linear-gradient" x1="199.8099" y1="39.5317" x2="424.3291" y2="164.8626" gradientUnits="userSpaceOnUse"><stop offset="0" stop-color="#f26f26"/><stop offset="1" stop-color="#e24000"/></linearGradient><linearGradient id="linear-gradient-2" x1="70.063" y1="152.8535" x2="430.6678" y2="348.6787" xlink:href="#linear-gradient"/><linearGradient id="linear-gradient-3" x1="66.3461" y1="331.0639" x2="331.4264" y2="479.1268" xlink:href="#linear-gradient"/></defs><polygon points="163.86 65.436 121.601 89.835 89.118 108.589 174.213 157.719 206.696 138.965 248.955 114.566 163.86 65.436" fill="#fa873b"/><polygon points="125.154 272.347 89.118 293.151 89.118 293.151 174.213 342.281 210.249 321.476 125.154 272.347" fill="#fa873b"/><polygon points="408.792 206.849 323.697 157.719 281.437 182.118 366.533 231.247 408.792 206.849" fill="#fa873b"/><polygon points="323.697 342.281 284.991 364.629 248.955 385.434 334.05 434.564 370.086 413.759 408.791 391.411 323.697 342.281" fill="#fa873b"/><polygon points="408.791 108.589 334.05 65.436 248.955 16.306 163.86 65.436 248.955 114.566 323.697 157.719 408.792 206.849 410.882 205.64 410.882 109.797 408.791 108.589" fill="url(#linear-gradient)"/><polygon points="408.792 293.151 334.05 250.002 248.955 200.872 174.213 157.719 89.118 108.589 89.118 206.849 163.86 250.002 248.954 299.131 323.697 342.281 408.791 391.411 410.882 390.206 410.882 294.36 408.792 293.151" fill="url(#linear-gradient-2)"/><polygon points="248.955 385.434 174.213 342.281 89.118 293.151 89.118 391.411 163.86 434.564 248.955 483.694 334.05 434.564 248.955 385.434" fill="url(#linear-gradient-3)"/></svg>