<?xml version="1.0" encoding="utf-8"?>
<!-- Generator: Adobe Illustrator 24.3.0, SVG Export Plug-In . SVG Version: 6.00 Build 0)  -->
<svg version="1.1" id="katman_1" xmlns="http://www.w3.org/2000/svg" xmlns:xlink="http://www.w3.org/1999/xlink" x="0px" y="0px"
	 viewBox="0 0 560 400" style="enable-background:new 0 0 560 400;" xml:space="preserve">
<style type="text/css">
	.st0{fill:#0080BD;}
</style>
<g transform="matrix(.181583 0 0 .181583 80.3219 154.949)">
	<path class="st0" d="M406.4,369.6c-0.3,0-0.6,0-0.9,0h-0.2l-0.8-0.1l-0.3-0.1c-0.2,0-0.4-0.1-0.6-0.2c-0.2,0-0.3-0.1-0.5-0.1H403
		c-0.3-0.1-0.6-0.2-1-0.4c-3.6-1.7-5.9-5.4-5.9-9.3c0-5.6,4.6-10.3,10.2-10.4c2.1,0,4.1,0.7,5.8,1.9c0.2,0.1,0.3,0.2,0.5,0.4
		l0.3,0.3l0.3,0.3l0.5,0.4c0.1,0.1,0.2,0.2,0.3,0.4c0.1,0.1,0.2,0.2,0.2,0.3c0.1,0.2,0.3,0.4,0.4,0.6s0.1,0.2,0.2,0.3l0.3,0.5
		c0,0.1,0.1,0.2,0.1,0.2c0.1,0.2,0.2,0.5,0.3,0.7l0.1,0.3c0.1,0.2,0.2,0.5,0.3,0.8c0,0,0,0.1,0,0.1c0.1,0.2,0.1,0.5,0.2,0.8v0.2
		c0.1,0.3,0.1,0.6,0.1,0.9v1.1c0,5.6-4.6,10.3-10.2,10.3 M328.6,211.2c7-6.7,9.7-16.8,6.9-26.1l52.4-30.6c3.4,3.7,7.8,6.2,12.7,7.4
		v171.4c0,0.5-0.3,0.9-0.8,1h-0.3c-0.4,0-0.7-0.2-0.9-0.5L328.6,211.2z M388.3,341c-0.2,0.2-0.5,0.3-0.8,0.3c-0.2,0-0.4,0-0.5-0.1
		l-146.8-85.7c0.7-2.4,1.1-4.9,1.1-7.4c0-2.5-0.4-5-1.1-7.4l52.4-30.6c6.5,7.1,16.6,9.8,25.8,7l70,122.6
		C388.7,340.1,388.6,340.7,388.3,341 M381.8,353c-0.2,0.3-0.5,0.5-0.9,0.5l-140.1-0.1c-2-9.7-9.4-17.4-19-19.7v-60.6
		c4.9-1.2,9.2-3.7,12.6-7.4l147,85.8c0.3,0.2,0.5,0.6,0.5,0.9C381.9,352.6,381.8,352.8,381.8,353 M381,367.3l-146.6,85.6
		c-3.4-3.7-7.8-6.2-12.6-7.4v-61.8c9.2-2.2,16.4-9.3,18.7-18.5l140,0.1c0.6,0,1.1,0.5,1.1,1.1C381.6,366.8,381.4,367.1,381,367.3
		 M226.1,471.4c0,0.3-0.1,0.6-0.1,0.9v0.1c-0.1,0.3-0.1,0.5-0.2,0.8c0,0,0,0.1,0,0.1c-0.1,0.3-0.2,0.5-0.2,0.8
		c0,0.1-0.1,0.1-0.1,0.2c-0.1,0.2-0.2,0.5-0.3,0.7l-0.1,0.2c-0.1,0.2-0.2,0.4-0.3,0.6l-0.1,0.2c-0.1,0.2-0.2,0.4-0.4,0.5
		c-0.1,0.1-0.1,0.2-0.2,0.2c-0.1,0.2-0.3,0.3-0.4,0.5c-0.1,0.1-0.1,0.2-0.2,0.2L223,478l-0.3,0.2l-0.4,0.4c-0.1,0.1-0.2,0.1-0.3,0.2
		l-0.4,0.3l-0.4,0.2l-0.4,0.3c-0.1,0.1-0.3,0.1-0.4,0.2l-0.4,0.2c-0.2,0.1-0.3,0.1-0.5,0.2l-0.4,0.2c-0.2,0.1-0.4,0.1-0.6,0.1
		l-0.4,0.1c-0.2,0-0.4,0.1-0.7,0.1l-0.3,0c-0.3,0-0.7,0-1,0s-0.7,0-1,0l-0.3,0c-0.2,0-0.4-0.1-0.7-0.1l-0.4-0.1l-0.6-0.1l-0.4-0.2
		c-0.2,0-0.3-0.1-0.5-0.2l-0.4-0.2l-0.4-0.2c-0.1-0.1-0.3-0.2-0.4-0.3s-0.3-0.1-0.4-0.2l-0.4-0.3l-0.3-0.2c-0.1-0.1-0.3-0.2-0.4-0.4
		L209,478c-0.1-0.1-0.3-0.3-0.4-0.4l-0.2-0.2l-0.4-0.5c-0.1-0.1-0.1-0.2-0.2-0.2c-0.1-0.2-0.3-0.4-0.4-0.5c0-0.1-0.1-0.1-0.1-0.2
		s-0.2-0.4-0.3-0.6l-0.1-0.2c-0.1-0.2-0.2-0.5-0.3-0.7l-0.1-0.2c-0.1-0.2-0.2-0.5-0.2-0.8c0,0,0-0.1,0-0.1c-0.1-0.3-0.1-0.5-0.2-0.8
		c0,0,0-0.1,0-0.1c-0.1-0.6-0.2-1.2-0.2-1.8c0-5.6,4.6-10.2,10.2-10.2s10.2,4.6,10.2,10.2c0,0.3,0,0.6-0.1,0.9 M197.4,452.9
		l-147-85.8c-0.3-0.2-0.6-0.6-0.5-1c0-0.2,0.1-0.3,0.1-0.5c0.2-0.3,0.5-0.6,0.9-0.6l140.4,0.1c2.4,9.1,9.6,16.3,18.8,18.5v61.8
		C205.2,446.6,200.8,449.2,197.4,452.9 M44.3,341.3c-0.3,0-0.6-0.1-0.8-0.3c-0.3-0.3-0.4-0.9-0.2-1.3l70-122.6
		c9.2,2.8,19.3,0.1,25.8-7l52.4,30.6c-1.4,4.8-1.4,10,0,14.8L44.8,341.2C44.6,341.3,44.5,341.3,44.3,341.3 M33.3,333.8
		c-0.2,0.3-0.5,0.5-0.9,0.5c-0.1,0-0.2,0-0.3,0c-0.5-0.1-0.8-0.5-0.8-1V161.9c4.9-1.2,9.3-3.7,12.6-7.4l52.4,30.6
		c-0.7,2.4-1.1,4.9-1.1,7.4c0,7.1,2.9,13.8,8,18.7L33.3,333.8z M29.8,368.7c-0.3,0.1-0.6,0.3-1,0.4h-0.1l-0.5,0.1
		c-0.2,0.1-0.4,0.1-0.6,0.2l-0.3,0.1l-0.8,0.1h-0.2c-0.3,0-0.6,0-0.9,0c-5.6,0-10.3-4.7-10.3-10.3c0-0.3,0-0.6,0.1-0.9v-0.2
		c0-0.3,0.1-0.6,0.1-0.9c0-0.1,0-0.1,0-0.2c0.1-0.2,0.1-0.5,0.2-0.8c0,0,0-0.1,0.1-0.1c0.1-0.3,0.2-0.5,0.3-0.8l0.1-0.3
		c0.1-0.2,0.2-0.5,0.3-0.7s0.1-0.2,0.1-0.2c0.1-0.2,0.2-0.3,0.3-0.5l0.2-0.3c0.1-0.2,0.3-0.4,0.4-0.6c0.1-0.1,0.2-0.2,0.3-0.3
		c0.1-0.1,0.2-0.2,0.3-0.4l0.4-0.4l0.3-0.3l0.3-0.3l0.5-0.4c1.7-1.2,3.8-1.9,5.9-1.8c5.6,0.1,10.2,4.7,10.2,10.3
		C35.7,363.3,33.4,367,29.8,368.7 M18,144c-0.1-0.1-0.2-0.2-0.3-0.3c-0.1-0.1-0.2-0.2-0.3-0.3c-0.2-0.2-0.3-0.4-0.4-0.6l-0.2-0.3
		c-0.1-0.2-0.2-0.3-0.3-0.5c0-0.1-0.1-0.1-0.1-0.2c-0.1-0.2-0.2-0.5-0.4-0.7c0-0.1-0.1-0.2-0.1-0.2c-0.1-0.3-0.2-0.5-0.3-0.8
		c0,0,0-0.1-0.1-0.2c-0.1-0.2-0.1-0.5-0.2-0.8c0-0.1,0-0.1,0-0.2c-0.1-0.3-0.1-0.6-0.1-0.9v-0.2c0-0.3-0.1-0.6-0.1-0.9
		c0-5.6,4.6-10.3,10.2-10.3h1.1c0.3,0,0.5,0.1,0.8,0.1l0.3,0.1l0.6,0.2c0.2,0,0.3,0.1,0.5,0.2h0.1c0.3,0.1,0.6,0.2,1,0.4
		c3.6,1.7,5.9,5.4,5.9,9.4c0,5.6-4.6,10.3-10.2,10.3c-2.1,0-4.1-0.7-5.9-1.9l-0.5-0.4l-0.3-0.3l-0.3-0.3
		C18.4,144.2,18.2,144.1,18,144 M125.1,201.8c-0.3,0.1-0.5,0.2-0.8,0.3h-0.1c-0.2,0.1-0.5,0.2-0.8,0.3h-0.1
		c-0.3,0.1-0.5,0.1-0.8,0.2h-0.1c-0.6,0.1-1.1,0.2-1.7,0.2c-4,0-7.6-2.4-9.2-6c-0.1-0.3-0.2-0.5-0.3-0.8v-0.1
		c-0.1-0.2-0.2-0.5-0.2-0.8v-0.1c-0.1-0.3-0.1-0.5-0.2-0.8V194c0-0.3-0.1-0.6-0.1-0.8s0-0.6,0-0.9c0-4,2.3-7.6,5.9-9.4
		c0.3-0.1,0.5-0.2,0.8-0.3h0.1l0.8-0.2h0.1c0.3-0.1,0.5-0.1,0.8-0.2h0.1c0.3,0,0.5-0.1,0.8-0.1h0.9c4.3,0,8.1,2.7,9.6,6.8
		c0,0,0,0,0,0.1c0.1,0.3,0.2,0.5,0.2,0.8c0,0,0,0.1,0,0.1c0.1,0.3,0.1,0.5,0.2,0.8c0,0,0,0.1,0,0.1c0.1,0.6,0.2,1.1,0.2,1.7
		C131,196.4,128.7,200.1,125.1,201.8 M196.6,43.8c0.4-0.3,0.9-0.2,1.3,0.2c0.3,0.3,0.4,0.9,0.2,1.3l-70,122.6
		c-2.4-0.7-4.8-1.1-7.3-1.1c-7,0-13.7,2.9-18.5,8.1l-52.5-30.6c1.4-4.8,1.4-10,0-14.8L196.6,43.8z M205.8,24.8
		c0-0.3,0.1-0.6,0.1-0.9v-0.1c0-0.3,0.1-0.6,0.2-0.8c0,0,0-0.1,0-0.1c0.1-0.3,0.1-0.5,0.2-0.8l0.1-0.2c0.1-0.2,0.2-0.5,0.3-0.7
		l0.1-0.2c0.1-0.2,0.2-0.4,0.3-0.6s0.1-0.2,0.1-0.2s0.2-0.4,0.4-0.5l0.2-0.2c0.1-0.2,0.2-0.3,0.4-0.5l0.2-0.2
		c0.1-0.2,0.3-0.3,0.4-0.4l0.3-0.3l0.4-0.4l0.3-0.2l0.4-0.3c0.1-0.1,0.2-0.2,0.4-0.2s0.3-0.2,0.4-0.3l0.4-0.2l0.4-0.2l0.5-0.2
		l0.4-0.1c0.2-0.1,0.4-0.1,0.5-0.1l0.4-0.1c0.2,0,0.4-0.1,0.6-0.1h0.3c0.3,0,0.7-0.1,1-0.1h0.1c0.3,0,0.7,0,1,0.1h0.4
		c0.2,0,0.4,0.1,0.6,0.1l0.4,0.1c0.2,0,0.4,0.1,0.5,0.1l0.4,0.1l0.5,0.2l0.4,0.2l0.4,0.2l0.4,0.3c0.1,0.1,0.2,0.1,0.4,0.2
		c0.2,0.1,0.3,0.2,0.4,0.3l0.3,0.2l0.4,0.4l0.3,0.3c0.1,0.1,0.3,0.3,0.4,0.4c0.1,0.1,0.2,0.2,0.2,0.3c0.1,0.1,0.3,0.3,0.4,0.5
		l0.2,0.2l0.4,0.5l0.1,0.2c0.1,0.2,0.2,0.4,0.3,0.6l0.1,0.2c0.1,0.2,0.2,0.5,0.3,0.7c0,0.1,0,0.1,0.1,0.2c0.1,0.2,0.2,0.5,0.2,0.8
		c0,0,0,0.1,0,0.1c0.1,0.3,0.1,0.5,0.2,0.8v0.1c0,0.3,0.1,0.6,0.1,0.9c0,0.3,0,0.6,0.1,0.9c0,5.6-4.6,10.2-10.2,10.2
		s-10.2-4.6-10.2-10.2v-0.9 M205.7,248.1c0.1-5.6,4.7-10.1,10.2-10.1c5.6,0,10.2,4.6,10.2,10.2s-4.6,10.2-10.2,10.2
		C210.3,258.4,205.7,253.7,205.7,248.1 M197.4,265.7c3.4,3.7,7.8,6.2,12.6,7.4v60.6c-9.6,2.3-17,10-19,19.7l-139.7-0.1
		c-0.5,0-0.9-0.3-1-0.8c-0.1-0.5,0.1-1,0.5-1.2L197.4,265.7z M138.1,173.8l70-122.6c0.2-0.4,0.7-0.6,1.2-0.5c0.5,0.1,0.8,0.5,0.8,1
		v171.4c-4.9,1.2-9.3,3.7-12.6,7.4L145,199.9c0.7-2.4,1.1-4.9,1.1-7.4C146.1,185.4,143.2,178.7,138.1,173.8 M226.1,358.7
		c0,2.4-0.8,4.7-2.3,6.5c-0.1,0.1-0.1,0.1-0.2,0.2s-0.2,0.3-0.4,0.4l-0.6,0.6c-3.5,3.1-8.8,3.5-12.6,0.7c-0.3-0.2-0.6-0.5-0.9-0.7
		l-0.3-0.3l-0.3-0.3c-0.1-0.1-0.2-0.2-0.3-0.4c-1.6-1.9-2.5-4.3-2.5-6.8c0-2.2,0.7-4.4,2.1-6.2c0.2-0.3,0.4-0.5,0.6-0.8l0.1-0.1
		c0.2-0.2,0.5-0.5,0.7-0.7l0.1,0c3.8-3.3,9.6-3.3,13.4,0l0.1,0.1c0.2,0.2,0.5,0.5,0.7,0.7l0.1,0.1c0.2,0.2,0.4,0.5,0.6,0.8
		s0.4,0.6,0.6,0.9C225.6,355,226.1,356.8,226.1,358.7 M286.8,199.9l-52.4,30.6c-3.4-3.7-7.8-6.2-12.6-7.4V51.7c0-0.5,0.3-0.9,0.8-1
		c0.5-0.1,1,0.1,1.2,0.5l70,122.6C286.7,180.5,284,190.6,286.8,199.9 M321.3,193.4c0,0.3-0.1,0.6-0.1,0.8v0.1c0,0.3-0.1,0.5-0.2,0.8
		c0,0,0,0.1,0,0.1c-0.1,0.3-0.2,0.5-0.2,0.8c0,0,0,0,0,0.1c-0.1,0.3-0.2,0.5-0.3,0.8c-1.9,4.2-6.4,6.6-10.9,5.8h-0.1
		c-0.3,0-0.5-0.1-0.8-0.2h-0.1c-0.3-0.1-0.5-0.2-0.8-0.3h0c-4-1.5-6.7-5.4-6.7-9.7c0-0.6,0-1.1,0.1-1.7s0-0.1,0-0.1
		c0.1-0.3,0.1-0.5,0.2-0.8v-0.1c0.1-0.3,0.2-0.5,0.2-0.8V189c0.1-0.3,0.2-0.5,0.3-0.8c1.6-3.6,5.3-6,9.3-6h0.9l0.8,0.1h0.1
		c0.3,0.1,0.5,0.1,0.8,0.2h0.1l0.8,0.2h0.1c4,1.5,6.7,5.4,6.7,9.7L321.3,193.4 M234,44c0.3-0.3,0.9-0.4,1.3-0.2l146.8,85.7
		c-1.4,4.8-1.4,10,0,14.8l-52.4,30.6c-4.8-5.1-11.5-8.1-18.5-8.1c-2.5,0-4.9,0.4-7.3,1.1l-70-122.6C233.6,44.9,233.7,44.4,234,44
		 M402.1,127.5c0.3-0.1,0.6-0.3,1-0.4h0.1c0.2-0.1,0.3-0.1,0.5-0.2l0.6-0.2l0.3-0.1c0.3,0,0.5-0.1,0.8-0.1h1.1
		c5.6,0,10.3,4.7,10.2,10.3v1.1c0,0.3-0.1,0.6-0.1,0.9v0.2c-0.1,0.3-0.1,0.5-0.2,0.8c0,0.1,0,0.1,0,0.2c-0.1,0.3-0.2,0.5-0.3,0.8
		l-0.1,0.3c-0.1,0.2-0.2,0.5-0.3,0.7s-0.1,0.2-0.1,0.2l-0.3,0.5c-0.1,0.1-0.1,0.2-0.2,0.3s-0.3,0.4-0.4,0.6
		c-0.1,0.1-0.2,0.2-0.2,0.3c-0.1,0.1-0.2,0.2-0.3,0.3s-0.3,0.3-0.5,0.4l-0.3,0.3l-0.3,0.3c-0.2,0.1-0.3,0.3-0.5,0.4
		c-1.7,1.2-3.7,1.9-5.8,1.9c-5.6-0.1-10.2-4.7-10.2-10.4c0-4,2.3-7.6,5.9-9.3 M412.3,334.3V161.9c11.5-2.8,19.6-13.2,19.6-25
		c0-14-11.4-25.5-25.4-25.7c-7,0-13.7,2.9-18.5,8.1L240.3,33.1c0.7-2.4,1.1-4.9,1.1-7.4c0-13.9-11.5-25.4-25.4-25.4
		s-25.4,11.5-25.4,25.4c0,2.5,0.4,5,1.1,7.4L43.9,119.3c-4.8-5.1-11.5-8.1-18.5-8.1C11.4,111.4,0,122.9,0,136.9
		c0,11.8,8.1,22.1,19.6,25v172.4C8.1,337.1,0,347.5,0,359.3c0,14,11.4,25.6,25.5,25.7c7,0,13.7-2.9,18.5-8.1l147.7,86.2
		c-0.7,2.4-1.1,4.9-1.1,7.4c0,13.9,11.5,25.4,25.4,25.4s25.4-11.5,25.4-25.4c0-2.5-0.4-5-1.1-7.4l147.7-86.2
		c4.8,5.1,11.5,8.1,18.5,8.1c14-0.2,25.4-11.7,25.4-25.7C431.9,347.5,423.7,337.1,412.3,334.3"/>
	<path class="st0" d="M652.7,195.1h-53v-25.4h135.7v25.4h-53v136.3h-29.7V195.1z"/>
	<path class="st0" d="M913.8,250.5c0-33-24-56.8-56.2-56.8s-56.2,23.8-56.2,56.8s24,56.8,56.2,56.8S913.8,283.5,913.8,250.5
		 M771.5,250.5c0-47.8,36.5-83.1,86.1-83.1s86.1,35.1,86.1,83.1s-36.5,83.1-86.1,83.1S771.5,298.3,771.5,250.5"/>
	<path class="st0" d="M1059.8,263.7l-25.4,26.3v41.3h-29.7V169.7h29.7v82.9l79.1-82.9h33.3l-67.2,72.3l71.3,89.4h-34.7L1059.8,263.7
		z"/>
	<path class="st0" d="M1321.1,306.2v25.2h-119.9V169.7h116.7v25.2h-87v42h77.2v24.7h-77.2v44.6H1321.1z"/>
	<path class="st0" d="M1524.9,169.7v161.7h-24.4l-88.2-109.5v109.5h-29.5V169.7h24.4l88.2,109.5V169.7H1524.9z"/>
	<path class="st0" d="M1728.2,250.5c0-33-24-56.8-56.2-56.8s-56.2,23.8-56.2,56.8s24,56.8,56.2,56.8S1728.2,283.5,1728.2,250.5
		 M1585.9,250.5c0-47.8,36.6-83.1,86.1-83.1s86.1,35.1,86.1,83.1s-36.6,83.1-86.1,83.1S1585.9,298.3,1585.9,250.5"/>
	<path class="st0" d="M1966.1,331.4l-0.2-107.2l-52.5,88.7h-13.2l-52.6-87.3v105.8h-28.3V169.7h24.4l63.5,107.2l62.4-107.2h24.4
		l0.2,161.7H1966.1z"/>
	<path class="st0" d="M2136.8,274.3v57H2107v-56.6l-62.8-105.1h31.8l46.8,78.8l47.3-78.8h29.2L2136.8,274.3z"/>
</g>
</svg>
