<?xml version="1.0" encoding="utf-8"?>
<!-- Generator: Adobe Illustrator 25.0.1, SVG Export Plug-In . SVG Version: 6.00 Build 0)  -->
<svg version="1.0" id="Layer_1" xmlns="http://www.w3.org/2000/svg" xmlns:xlink="http://www.w3.org/1999/xlink" x="0px" y="0px"
	 viewBox="0 0 859 540" style="enable-background:new 0 0 859 540;" xml:space="preserve">
<style type="text/css">
	.st0{fill:#007EA4;}
	.st1{fill:#1AA64A;}
	.st2{fill:none;}
</style>
<path class="st0" d="M153.1,284.5h-9c-5.4,0,13,25.8,26.3,28.7c3,0.6,4.5,2.1,4.5,5v18.9c-0.1,3.6-2.2,5.3-5.7,4.8
	c-25.4-4.2-43.9-17.8-55.4-40.9c-1.7-3.3-3-6.7-4-10.3c-1.9-5.9-2.1-6.2-8.4-6.4c-7.8-0.2-12.9-4.2-14.6-11.3
	c-1.9-8,4.4-16.4,12.8-16.9c1.2-0.1,2.3-0.1,3.5,0c3.6,0.3,5.5-1.7,6.4-4.9c2.2-8,5.7-15.6,10.4-22.4c3.9-5.7,5.9-5.9,10.8-1.2
	c3.7,3.6,7.3,7.4,11,11c2.4,2.3,3,4.8,0.9,7.6c-1.1,1.5-2,3.1-2.8,4.8c-1.7,3.5-0.8,5,3.1,5c6.8,0.1,13.5,0,20.4,0
	c7.2,0.1,12.5,4.5,14.2,11.7c1.3,5.8-1.9,12.9-8.1,15.2c-3.6,1.4-7.9,1.2-11.9,1.5C156.1,284.6,154.6,284.5,153.1,284.5"/>
<path class="st1" d="M183.1,198c23.5,1,44.2,12.6,58.4,35.3c4.9,7.9,3.5,15.2-3.5,19.5c-7.5,4.8-15.9,2.8-20.6-4.8
	c-7.1-11.5-17.1-18.8-30.4-21.3c-10.6-1.9-21.6,0.1-30.8,5.8c-4.2,2.6-5.5,2.3-9-1.2l-11.2-11.2c-3.2-3.4-3.1-5.7,0.7-8.5
	C148.6,202.9,164.9,197.7,183.1,198 M184.1,327.6V318c-0.2-2.2,1.3-4.1,3.5-4.4c13.4-2.8,23.3-10.3,30.3-21.9
	c3.1-5.2,8-7.2,13.8-6.3c5.3,0.8,9.4,3.5,11.7,8.5c1.5,3.3,1.3,7.1-0.4,10.3c-10.7,20.3-30.4,34.2-53.1,37.5
	c-3.9,0.5-5.7-0.9-5.8-4.8C184,333.9,184.1,330.8,184.1,327.6L184.1,327.6z"/>
<path class="st0" d="M294.5,241.1v64.7h-12.3v-64.7h-20v-10.3h52.1v10.3H294.5z"/>
<path id="B" class="st0" d="M314.3,281.6c-0.1-3.5,0.6-6.9,2.1-10c1.3-3.2,3.3-6,5.8-8.4c2.5-2.4,5.4-4.3,8.6-5.5
	c6.6-2.6,13.9-2.6,20.5,0c3.3,1.3,6.2,3.3,8.6,5.8c2.5,2.4,4.5,5.3,5.8,8.5c2.7,6.4,2.8,13.6,0.1,20c-1.3,3.2-3.3,6-5.8,8.4
	c-5.1,5-12,7.8-19.2,7.7c-3.5,0-6.9-0.6-10.2-1.9c-3.2-1.3-6.2-3.2-8.6-5.7c-2.5-2.4-4.4-5.3-5.8-8.5
	C315,288.7,314.4,285.2,314.3,281.6L314.3,281.6z M356.2,281.8c0.1-4.3-1.4-8.4-4.4-11.5c-2.7-3-6.6-4.7-10.7-4.6
	c-4.1,0-7.9,1.7-10.7,4.6c-5.9,6.5-5.9,16.4,0,22.9c5.5,5.9,14.8,6.2,20.7,0.7c0.2-0.2,0.5-0.4,0.7-0.7
	C354.8,290.1,356.3,286,356.2,281.8z"/>
<path class="st0" d="M379.8,306v-79.5h11.1v51l20.4-20.2H425l-22,21.4l24.2,27.2h-14.5l-21.9-25.1v25.1h-11.1V306z"/>
<path id="B-2" class="st0" d="M428.3,281.6c-0.1-3.5,0.6-6.9,2.1-10c1.3-3.2,3.3-6,5.8-8.4c2.5-2.4,5.4-4.3,8.6-5.5
	c6.6-2.6,13.9-2.6,20.5,0c3.3,1.3,6.2,3.3,8.6,5.8c2.5,2.4,4.5,5.3,5.8,8.5c2.7,6.4,2.8,13.6,0.1,20c-1.3,3.2-3.3,6-5.8,8.4
	c-5.1,5-12,7.8-19.2,7.7c-3.5,0-6.9-0.6-10.2-1.9c-3.2-1.3-6.2-3.2-8.6-5.7c-2.5-2.4-4.4-5.3-5.8-8.5
	C429,288.7,428.3,285.2,428.3,281.6L428.3,281.6z M470.1,281.8c0.1-4.3-1.4-8.4-4.4-11.5c-2.7-3-6.6-4.7-10.7-4.6
	c-4.1,0-7.9,1.7-10.7,4.6c-5.8,6.5-5.8,16.4,0,22.9c5.5,5.9,14.8,6.2,20.7,0.7c0.2-0.2,0.5-0.4,0.7-0.7
	C468.7,290.1,470.3,286,470.1,281.8z"/>
<path class="st1" d="M530,271.2c-1.6-1.9-3.6-3.3-5.9-4.2c-2.3-1-4.8-1.6-7.3-1.5c-4.5,0-8.3,1.4-11,4.4s-4.1,6.8-4.1,11.7
	s1.4,9,4.1,12s6.6,4.4,11.5,4.4c2.5,0.1,5-0.5,7.2-1.5c2.2-1.1,4.1-2.7,5.5-4.6v12.9c-2.1,1.2-4.3,2-6.6,2.6c-2.4,0.6-5,0.9-7.5,0.9
	c-7.6,0-13.8-2.5-18.7-7.3s-7.1-11.2-7.1-19s2.5-14.2,7.5-18.9s11.5-7.2,19.5-7.2c2.4,0,4.7,0.2,7,0.8c2.1,0.5,4.1,1.3,5.9,2.3
	L530,271.2L530,271.2z M552.5,265c0.9-2.8,2.5-5.2,4.8-7.1c2.1-1.6,4.7-2.4,7.3-2.3c1.6,0,3.1,0.2,4.6,0.5c1.6,0.4,3.1,1,4.5,1.7
	l-4,9.4c-0.9-0.7-2-1.2-3.1-1.5c-1.2-0.4-2.5-0.6-3.7-0.5c-3.7,0-6.3,1.4-8,4.4s-2.5,8-2.5,15v21.4h-11.1v-48.7h11.1V265z"/>
<path class="st1" d="M588.5,328.8H577l13.4-27.1l-17.9-44.5h12.4l8.9,25.1l1.4,4.6c0.4,1.6,0.7,3.2,0.9,4.9c0.9-2.8,1.9-5.5,3.2-8.1
	l0.3-0.6l12-25.9h12.1L588.5,328.8z M629.6,328.8v-71.5h11.1v8c1.2-3,3.4-5.5,6.2-7.1c3.1-1.8,6.6-2.6,10.2-2.6
	c6.1-0.2,11.9,2.5,15.7,7.2c4,4.8,6,11.1,6,18.8c0,8.1-1.9,14.6-5.9,19.3s-9.4,7-16.2,7c-6.5,0.3-12.6-2.9-16.1-8.3v29.2h-11
	L629.6,328.8z M640.4,281.5c0,5,1.3,9,3.7,12.1c2.4,2.9,6.1,4.6,9.9,4.5c4.2,0,7.5-1.4,9.8-4.2s3.5-6.8,3.5-12s-1.2-9.1-3.6-12
	c-2.5-2.9-6.1-4.5-9.9-4.4c-4.2,0-7.5,1.4-9.8,4.3S640.4,276.5,640.4,281.5L640.4,281.5z M693.4,306v-38.9h-8.5v-9.8h8.5v-18.4h11.1
	v18.4h8.5v9.8h-8.5V306L693.4,306z M719.1,281.6c-0.1-3.5,0.7-6.9,2.1-10c2.7-6.4,7.9-11.4,14.3-13.9c6.6-2.6,13.9-2.6,20.5,0
	c3.3,1.3,6.2,3.3,8.6,5.8c2.5,2.4,4.5,5.3,5.8,8.5c2.7,6.4,2.8,13.6,0.1,20c-1.3,3.2-3.3,6-5.8,8.4c-5.1,5-12,7.7-19.2,7.7
	c-3.5,0-6.9-0.6-10.2-1.9c-3.2-1.3-6.2-3.2-8.6-5.7c-2.5-2.4-4.4-5.3-5.8-8.5C719.7,288.6,719,285.1,719.1,281.6L719.1,281.6z
	 M761,281.8c0.1-4.3-1.5-8.4-4.5-11.5c-2.7-3-6.6-4.7-10.7-4.6c-4.1,0-7.9,1.7-10.7,4.6c-5.8,6.5-5.8,16.4,0,22.9
	c5.5,5.9,14.8,6.2,20.7,0.7c0.2-0.2,0.5-0.4,0.7-0.7C759.4,290.1,761,286,761,281.8L761,281.8z"/>
<rect x="73" y="171" class="st2" width="713" height="198"/>
</svg>
