<?xml version="1.0" encoding="utf-8"?>
<!-- Generator: Adobe Illustrator 25.0.1, SVG Export Plug-In . SVG Version: 6.00 Build 0)  -->
<svg version="1.0" id="katman_1" xmlns="http://www.w3.org/2000/svg" xmlns:xlink="http://www.w3.org/1999/xlink" x="0px" y="0px"
	 viewBox="0 0 560 400" style="enable-background:new 0 0 560 400;" xml:space="preserve">
<style type="text/css">
	.st0{fill:#1D1D1B;}
	.st1{fill:#0037C1;}
</style>
<g>
	<path class="st0" d="M244.4,168.6L244.4,168.6L244.4,168.6l-19,49.3l-18.8-49.3l0-0.1h-14.8l0.1,0.1l27,66l0,0.1h13.3l0-0.1l27-66
		l0.1-0.1L244.4,168.6L244.4,168.6z M232,234.7h-13.2l-14.8-36.1l14.8,36.1H232z M515.5,214.9c0,4.7-1.3,8.8-4,12.1
		c-2.6,3.2-6.1,5.7-10,7c-4.3,1.5-8.9,2.2-13.5,2.1c-14.5,0-24.1-5.5-28.4-16.3l-0.2-0.4l0-0.1l0.1,0l10.9-5.7l0.1,0l0,0.1l0.2,0.5
		c1.2,3.2,3.6,5.8,6.6,7.4c3.4,1.7,7.1,2.6,10.8,2.5c4.1,0,7.5-0.8,10.2-2.3c2.6-1.5,3.9-3.7,3.9-6.8c0-4.9-4.8-7.9-14.3-8.9
		c-3.2-0.3-6.5-0.9-9.6-1.7c-2.8-0.7-5.4-1.8-8-3.2c-2.6-1.4-4.7-3.5-6-6.1c-1.4-2.5-2-5.6-2-9.2c0-4.3,1.3-8,4-11.1
		c2.5-3,5.8-5.2,9.5-6.4c3.8-1.2,7.8-1.9,11.9-1.9c12.8,0,21.4,4.4,25.7,13.2l0.2,0.4l0,0.1l-0.1,0l-10.4,5.4l-0.1,0l0-0.1l-0.2-0.4
		c-1.1-1.9-3-3.5-5.7-4.9c-2.8-1.4-5.8-2.1-8.9-2.1c-4.2,0-7.4,0.8-9.5,2.3c-2.1,1.5-3.1,3.4-3.1,5.7c0,0.8,0.1,1.5,0.5,2.2
		c0.3,0.7,0.8,1.3,1.4,1.7c1.4,1.1,3,1.9,4.7,2.3c2.4,0.6,4.7,1,7.1,1.3c3,0.4,5.6,0.8,7.9,1.3c2.4,0.5,4.8,1.3,7,2.3
		c2.2,0.9,4.2,2.1,6,3.7c1.7,1.6,3,3.6,3.8,5.7C515,209.4,515.5,212.2,515.5,214.9z M321.2,168.6L321.2,168.6l0.1,13h-35.9v13.7H320
		v12.5h-34.6v13.4h35.9v13.2h-49v-65.9H321.2L321.2,168.6z M428.4,168.7L428.4,168.7l-13.3-0.1l0,0.1l-27,66l-0.1,0.1h14.8l0-0.1
		l19-49.3l18.8,49.3l0,0.1h14.8l-0.1-0.1L428.4,168.7z M428.3,168.7l14.8,36.1L428.3,168.7z M347.6,221.3h32.9v0.8v12.4h-46.1v-65.9
		h13.2V221.3z"/>
	<path class="st1" d="M120.9,187.8l-20.8,36.7l-20.8-36.7H120.9z M141.7,175.5H58.4l41.7,73.4L141.7,175.5z M44.5,151l6.9,12.2h97.2
		l6.9-12.2H44.5z"/>
</g>
</svg>
