<?xml version="1.0" encoding="utf-8"?>
<!-- Generator: Adobe Illustrator 28.0.0, SVG Export Plug-In . SVG Version: 6.00 Build 0)  -->
<svg version="1.1" id="Layer_1" xmlns="http://www.w3.org/2000/svg" xmlns:xlink="http://www.w3.org/1999/xlink" x="0px" y="0px"
	 viewBox="0 0 512 512" style="enable-background:new 0 0 512 512;" xml:space="preserve">
<style type="text/css">
	.st0{fill:#3944EB;}
</style>
<path class="st0" d="M79.33,245.9l20.04-43.17c0.5-1.09,0.72-2.29,0.64-3.48c-0.08-1.2-0.47-2.35-1.12-3.36s-1.54-1.83-2.6-2.4
	c-1.05-0.57-2.23-0.86-3.43-0.85H30.03c-1.39,0-2.74,0.41-3.91,1.16c-1.16,0.75-2.09,1.83-2.66,3.09L0.64,245.9
	c-0.5,1.09-0.72,2.28-0.64,3.48c0.08,1.2,0.47,2.35,1.12,3.36c0.65,1.01,1.54,1.83,2.6,2.4c1.05,0.57,2.23,0.86,3.43,0.85h33.57
	c1.2,0,2.38,0.31,3.43,0.88c1.05,0.58,1.94,1.41,2.59,2.42c0.65,1.01,1.03,2.17,1.11,3.37c0.08,1.2-0.13,2.4-0.63,3.49l-20.1,43.11
	c-0.49,1.09-0.69,2.29-0.6,3.49c0.09,1.19,0.49,2.35,1.14,3.35s1.55,1.83,2.6,2.4c1.05,0.57,2.23,0.87,3.43,0.86h62.83
	c1.39,0,2.74-0.41,3.91-1.16c1.16-0.75,2.09-1.83,2.66-3.09l22.82-48.95c0.5-1.1,0.72-2.3,0.63-3.51c-0.09-1.2-0.48-2.37-1.13-3.38
	c-0.65-1.01-1.55-1.85-2.62-2.42c-1.06-0.57-2.25-0.87-3.45-0.86H85.83c-1.2,0.01-2.38-0.28-3.43-0.85c-1.05-0.57-1.95-1.4-2.6-2.4
	c-0.65-1.01-1.03-2.16-1.12-3.36C78.6,248.19,78.82,246.99,79.33,245.9z"/>
<path class="st0" d="M213.94,238.2l-31.32,37.99h31.25v11.76h-48.17v-11.56l31.38-37.99h-30.32v-11.76h47.17V238.2z"/>
<path class="st0" d="M240.09,287.95h-14v-61.31h14V287.95z"/>
<path class="st0" d="M305.64,246.44c0,11.62-7.76,19.66-20.3,19.66h-16.99v21.85h-14v-61.31h30.98
	C297.88,226.64,305.64,234.75,305.64,246.44z M268.28,238.2v16.34h14.4c5.51,0,9.02-2.92,9.02-8.1c0-5.18-3.52-8.24-9.02-8.24
	H268.28z"/>
<path class="st0" d="M383.33,226.64v61.31H369.8v-31.22c0-6.44,0.07-12.55,0.27-18.66c-1.53,5.85-2.99,11.29-5.24,18.66l-9.42,31.22
	h-12.08l-9.55-31.22c-2.19-7.37-4.11-12.89-5.64-18.6c0.2,6.11,0.27,12.16,0.27,18.47v31.35H315v-61.31h21.83l7.36,23.98
	c1.99,6.58,3.78,13.02,5.24,18.93c1.46-6.04,3.32-12.49,5.17-18.93l7.3-23.98H383.33z"/>
<path class="st0" d="M441.65,238.4h-30.12v11.89h28.33v11.82h-28.33v14.08h31.18v11.76H397.6v-61.31h44.05V238.4z"/>
<path class="st0" d="M496.39,287.95l-15.33-22.45l-15.39,22.45h-15.39l22.56-32.75l-20.04-28.56h15.79l12.67,18.73l12.67-18.73
	h15.53l-20.1,28.69l22.62,32.61H496.39z"/>
</svg>
